<?xml version="1.0" standalone="no"?>
<!DOCTYPE svg PUBLIC "-//W3C//DTD SVG 1.1//EN" "http://www.w3.org/Graphics/SVG/1.1/DTD/svg11.dtd" >
<svg>
<metadata>
Created by FontForge 20090914 at Sat Aug 21 09:47:21 2021
 By www-data
Copyright 2020 The Saira Project Authors (https://github.com/Omnibus-Type/Saira)
</metadata>
<defs>
<font id="Saira-Bold" horiz-adv-x="690" >
  <font-face 
    font-family="Saira"
    font-weight="700"
    font-stretch="normal"
    units-per-em="1000"
    panose-1="0 0 0 0 0 0 0 0 0 0"
    ascent="800"
    descent="-200"
    x-height="509.998"
    cap-height="688"
    bbox="-194 -418.999 1249 1164"
    underline-thickness="35"
    underline-position="-143"
    unicode-range="U+000D-U+FB02"
  />
<missing-glyph horiz-adv-x="500" 
d="M0 0v700h500v-700h-500zM225 99v70h60v-70h-60zM50 50h400v600h-400v-600zM229 215l0.000976562 63.002c0 21.333 5.5 38.666 16.5 51.999s23.5 25.666 37.5 36.999s26.833 24.166 38.5 38.499s17.5 34.166 17.5 59.499c0 9.33301 -2 20.833 -6 34.5
s-12.333 25.834 -25 36.501s-32 16 -58 16c-22.667 0 -40.5 -4 -53.5 -12s-22.667 -17.833 -29 -29.5s-10.5 -22.834 -12.5 -33.501s-3 -19 -3 -25v-28h-49c-0.666992 3.33301 -1.5 7.83301 -2.5 13.5s-1.5 11.5 -1.5 17.5s1.33301 16.833 4 32.5s9 32.334 19 50.001
s25.167 32.834 45.5 45.501s47.833 19 82.5 19c35.333 0 62.666 -6.33301 81.999 -19s33.333 -27.334 42 -44.001s14 -32 16 -46s3 -22.667 3 -26c0 -33.333 -7.33301 -59.833 -22 -79.5s-29.667 -36.167 -45 -49.5c-11.333 -9.33301 -21.5 -19.166 -30.5 -29.499
s-13.5 -23.833 -13.5 -40.5v-53h-53z" />
    <glyph glyph-name="fi" unicode="fi" horiz-adv-x="708" 
d="M114 0l-0.000976562 387.997h-94v122h94v35c0 38.667 2.33301 70.167 7 94.5s13 43.5 25 57.5s28.833 24.167 50.5 30.5s49 10.333 82 12s72.5 2.5 118.5 2.5v-110c-27.333 0 -49.166 -0.666992 -65.499 -2s-28.5 -4.16602 -36.5 -8.49902s-13.167 -10.666 -15.5 -18.999
s-3.5 -20.166 -3.5 -35.499v-57h121v-122h-121v-388h-162zM483.999 -0.00292969v510h163v-510h-163zM482.999 613.997v129h165v-129h-165z" />
    <glyph glyph-name="fl" unicode="fl" horiz-adv-x="688" 
d="M114 0l-0.000976562 387.997h-94v122h94v35c0 38.667 2.33301 70.167 7 94.5s13 43.5 25 57.5s28.833 24.167 50.5 30.5s49 10.333 82 12s72.5 2.5 118.5 2.5v-110c-27.333 0 -49.166 -0.666992 -65.499 -2s-28.5 -4.16602 -36.5 -8.49902s-13.167 -10.666 -15.5 -18.999
s-3.5 -20.166 -3.5 -35.499v-57h121v-122h-121v-388h-162zM463.999 -0.00292969v743h163v-743h-163z" />
    <glyph glyph-name="f_f" unicode="ff" horiz-adv-x="773" 
d="M114 0v387.994h-94v122h94v35c0 38.667 2.33301 70.167 7 94.5s13 43.5 25 57.5s28.833 24.167 50.5 30.5s49 10.333 82 12s72.5 2.5 118.5 2.5v-110c-27.333 0 -49.166 -0.666992 -65.499 -2s-28.5 -4.16602 -36.5 -8.49902s-13.167 -10.666 -15.5 -18.999
s-3.5 -20.166 -3.5 -35.499v-57h188v35c0 38.667 2.33301 70.167 7 94.5s13.167 43.5 25.5 57.5s29.166 24.167 50.499 30.5s48.5 10.333 81.5 12s72.833 2.5 119.5 2.5v-110c-28 0 -50.167 -0.666992 -66.5 -2s-28.5 -4.16602 -36.5 -8.49902
s-13.167 -10.666 -15.5 -18.999s-3.5 -20.166 -3.5 -35.499v-57h122v-122h-122v-388h-162v388h-188v-388h-162z" />
    <glyph glyph-name="f_f_i" unicode="ffi" horiz-adv-x="1058" 
d="M114 0v387.994h-94v122h94v35c0 38.667 2.33301 70.167 7 94.5s13 43.5 25 57.5s28.833 24.167 50.5 30.5s49 10.333 82 12s72.5 2.5 118.5 2.5v-110c-27.333 0 -49.166 -0.666992 -65.499 -2s-28.5 -4.16602 -36.5 -8.49902s-13.167 -10.666 -15.5 -18.999
s-3.5 -20.166 -3.5 -35.499v-57h188v35c0 38.667 2.33301 70.167 7 94.5s13.167 43.5 25.5 57.5s29.166 24.167 50.499 30.5s48.5 10.333 81.5 12s72.833 2.5 119.5 2.5v-110c-28 0 -50.167 -0.666992 -66.5 -2s-28.5 -4.16602 -36.5 -8.49902
s-13.167 -10.666 -15.5 -18.999s-3.5 -20.166 -3.5 -35.499v-57h122v-122h-122v-388h-162v388h-188v-388h-162zM834 -0.00585938v510h163v-510h-163zM833 613.994v129h165v-129h-165z" />
    <glyph glyph-name="f_f_l" unicode="ffl" horiz-adv-x="1038" 
d="M114 0v387.994h-94v122h94v35c0 38.667 2.33301 70.167 7 94.5s13 43.5 25 57.5s28.833 24.167 50.5 30.5s49 10.333 82 12s72.5 2.5 118.5 2.5v-110c-27.333 0 -49.166 -0.666992 -65.499 -2s-28.5 -4.16602 -36.5 -8.49902s-13.167 -10.666 -15.5 -18.999
s-3.5 -20.166 -3.5 -35.499v-57h188v35c0 38.667 2.33301 70.167 7 94.5s13.167 43.5 25.5 57.5s29.166 24.167 50.499 30.5s48.5 10.333 81.5 12s72.833 2.5 119.5 2.5v-110c-28 0 -50.167 -0.666992 -66.5 -2s-28.5 -4.16602 -36.5 -8.49902
s-13.167 -10.666 -15.5 -18.999s-3.5 -20.166 -3.5 -35.499v-57h122v-122h-122v-388h-162v388h-188v-388h-162zM814 -0.00585938v743h163v-743h-163z" />
    <glyph glyph-name=".notdef" horiz-adv-x="500" 
d="M0 0v700h500v-700h-500zM225 99v70h60v-70h-60zM50 50h400v600h-400v-600zM229 215l0.000976562 63.002c0 21.333 5.5 38.666 16.5 51.999s23.5 25.666 37.5 36.999s26.833 24.166 38.5 38.499s17.5 34.166 17.5 59.499c0 9.33301 -2 20.833 -6 34.5
s-12.333 25.834 -25 36.501s-32 16 -58 16c-22.667 0 -40.5 -4 -53.5 -12s-22.667 -17.833 -29 -29.5s-10.5 -22.834 -12.5 -33.501s-3 -19 -3 -25v-28h-49c-0.666992 3.33301 -1.5 7.83301 -2.5 13.5s-1.5 11.5 -1.5 17.5s1.33301 16.833 4 32.5s9 32.334 19 50.001
s25.167 32.834 45.5 45.501s47.833 19 82.5 19c35.333 0 62.666 -6.33301 81.999 -19s33.333 -27.334 42 -44.001s14 -32 16 -46s3 -22.667 3 -26c0 -33.333 -7.33301 -59.833 -22 -79.5s-29.667 -36.167 -45 -49.5c-11.333 -9.33301 -21.5 -19.166 -30.5 -29.499
s-13.5 -23.833 -13.5 -40.5v-53h-53z" />
    <glyph glyph-name="CR" unicode="&#xd;" horiz-adv-x="253" 
 />
    <glyph glyph-name="space" unicode=" " horiz-adv-x="253" 
 />
    <glyph glyph-name="exclam" unicode="!" horiz-adv-x="330" 
d="M113 233l-10 102.5l-9.5 101.5c-3 32.667 -5.5 62.834 -7.5 90.501s-3.5 51.667 -4.5 72s-1.5 35.166 -1.5 44.499v44h185v-44c0 -9.33301 -0.5 -24.166 -1.5 -44.499s-2.5 -44.333 -4.5 -72s-4.5 -57.834 -7.5 -90.501l-9.5 -101.5l-10 -102.5h-119zM87 0v145h171v-145
h-171z" />
    <glyph glyph-name="quotedbl" unicode="&#x22;" horiz-adv-x="474" 
d="M282 429l-17 202v57h143v-57l-17 -202h-109zM82 429l-17 202v57h143v-57l-17 -202h-109z" />
    <glyph glyph-name="numbersign" unicode="#" horiz-adv-x="726" 
d="M100 0l40 175h-88v100h111l31 136h-105v99h128l42 178h107l-42 -178h127l42 178h106l-42 -178h89v-99h-111l-32 -136h106v-100h-128l-41 -175h-106l40 175h-127l-40 -175h-107zM270 275h127l31 136h-127z" />
    <glyph glyph-name="dollar" unicode="$" horiz-adv-x="538" 
d="M262 66c-18.667 0.666992 -38.6689 1.66992 -60.002 3.00293s-43.333 3.16602 -66 5.49902s-45 5.16602 -67 8.49902v116c6 0 14.833 -0.5 26.5 -1.5s24.834 -2 39.501 -3s30.334 -1.83301 47.001 -2.5s33 -1 49 -1c32.667 0 56 1.16699 70 3.5s22.667 6.83301 26 13.5
s5 15.667 5 27s-0.833008 19.5 -2.5 24.5s-6 8.5 -13 10.5s-17.833 3.66699 -32.5 5l-101 14c-38.667 5.33301 -67.167 15.333 -85.5 30s-30.5 33.667 -36.5 57s-9 50.333 -9 81c0 32 4.66699 58.333 14 79s23.333 37 42 49s42 20.5 70 25.5s60.333 7.83301 97 8.5
c25.333 0 48.666 -0.666992 69.999 -2s41.333 -3.33301 60 -6s36 -5.66699 52 -9v-116c-18 1.33301 -36.333 2.83301 -55 4.5s-36.334 2.83398 -53.001 3.50098s-31 1 -43 1c-20.667 0 -37.5 -0.5 -50.5 -1.5s-23.167 -2.66699 -30.5 -5s-12.5 -6.16602 -15.5 -11.499
s-4.5 -12.666 -4.5 -21.999c0 -10.667 0.833008 -18.834 2.5 -24.501s5.83398 -9.33398 12.501 -11.001s17 -3.5 31 -5.5l113 -14c27.333 -3.33301 50 -9.5 68 -18.5s31.5 -24.333 40.5 -46s13.5 -53.834 13.5 -96.501c0 -45.333 -6.83301 -80.5 -20.5 -105.5
s-36.667 -42.333 -69 -52s-77.166 -14.834 -134.499 -15.501zM211.998 -7.99707v704h118v-704h-118z" />
    <glyph glyph-name="percent" unicode="%" horiz-adv-x="877" 
d="M164 0l449 688h100l-449 -688h-100zM200 311c-34.667 0 -62.167 2.66699 -82.5 8s-35.333 14.833 -45 28.5s-15.834 33.167 -18.501 58.5s-4 57.666 -4 96.999c0 40 1.33301 72.5 4 97.5s8.83398 44.5 18.501 58.5s24.667 23.667 45 29s47.833 8 82.5 8
s62.167 -2.66699 82.5 -8s35.166 -15 44.499 -29s15.666 -33.5 18.999 -58.5s5 -57.5 5 -97.5c0 -39.333 -1.66699 -71.666 -5 -96.999s-9.66602 -44.833 -18.999 -58.5s-24.166 -23.167 -44.499 -28.5s-47.833 -8 -82.5 -8zM200 385c13.333 0 23.833 0.833008 31.5 2.5
s13.167 6 16.5 13s5.33301 18.667 6 35s1 38.833 1 67.5c0 29.333 -0.333008 52 -1 68s-2.66699 27.667 -6 35s-8.83301 11.666 -16.5 12.999s-18.167 2 -31.5 2s-23.833 -0.666992 -31.5 -2s-13.167 -5.66602 -16.5 -12.999s-5.33301 -19 -6 -35s-1 -38.667 -1 -68
c0 -28.667 0.333008 -51.167 1 -67.5s2.66699 -28 6 -35s8.83301 -11.333 16.5 -13s18.167 -2.5 31.5 -2.5zM677 -8c-34.667 0 -62.167 2.66699 -82.5 8s-35.333 14.833 -45 28.5s-16 33.167 -19 58.5s-4.5 57.666 -4.5 96.999c0 40 1.5 72.5 4.5 97.5s9.33301 44.5 19 58.5
s24.667 23.667 45 29s47.833 8 82.5 8s62 -2.66699 82 -8s35 -15 45 -29s16.5 -33.5 19.5 -58.5s4.5 -57.5 4.5 -97.5c0 -39.333 -1.5 -71.666 -4.5 -96.999s-9.5 -44.833 -19.5 -58.5s-25 -23.167 -45 -28.5s-47.333 -8 -82 -8zM677 66c13.333 0 23.833 0.833008 31.5 2.5
s13.167 6 16.5 13s5.33301 18.667 6 35s1 38.833 1 67.5c0 29.333 -0.333008 52 -1 68s-2.83398 27.667 -6.50098 35s-9.16699 11.666 -16.5 12.999s-17.666 2 -30.999 2s-23.666 -0.666992 -30.999 -2s-12.666 -5.66602 -15.999 -12.999s-5.5 -19 -6.5 -35
s-1.5 -38.667 -1.5 -68c0 -28.667 0.5 -51.167 1.5 -67.5s3.16699 -28 6.5 -35s8.66602 -11.333 15.999 -13s17.666 -2.5 30.999 -2.5z" />
    <glyph glyph-name="ampersand" unicode="&#x26;" horiz-adv-x="736" 
d="M361 -8c-54.667 0 -100.669 3.16699 -138.002 9.5s-67.666 15.333 -90.999 27s-41.166 25.5 -53.499 41.5s-20.666 33.667 -24.999 53s-6.5 39.666 -6.5 60.999c0 37.333 4.83301 66.833 14.5 88.5s23.834 38.334 42.501 50.001s41.334 20.5 68.001 26.5v4
c-40 9.33301 -69.833 26.166 -89.5 50.499s-29.5 61.5 -29.5 111.5c0 25.333 4.33301 49 13 71s24.167 41.167 46.5 57.5s53.5 29.166 93.5 38.499s91.333 14 154 14c24 0 50.667 -1 80 -3s58.333 -4.66699 87 -8s54.334 -7.33301 77.001 -12v-116
c-21.333 2.66699 -44.833 5 -70.5 7s-51 3.66699 -76 5s-47.833 2 -68.5 2c-37.333 0 -67.333 -1.16699 -90 -3.5s-39.834 -6.5 -51.501 -12.5s-19.334 -14.5 -23.001 -25.5s-5.5 -24.833 -5.5 -41.5c0 -14 1 -26.167 3 -36.5s6.16699 -18.666 12.5 -24.999
s15.666 -11 27.999 -14s29.166 -4.5 50.499 -4.5h57v-122h-57c-21.333 0 -38.5 -1.16699 -51.5 -3.5s-23 -6.66602 -30 -12.999s-11.833 -15 -14.5 -26s-4 -25.167 -4 -42.5c0 -24.667 4.5 -43 13.5 -55s24.333 -20 46 -24s51.167 -6 88.5 -6c14 0 27.5 0.166992 40.5 0.5
s26.167 1 39.5 2s26.666 2.16699 39.999 3.5l-35 -53v339h268v-122h-106v-272c-23.333 -4 -49.666 -7.66699 -78.999 -11s-58.5 -6 -87.5 -8s-55.833 -3 -80.5 -3z" />
    <glyph glyph-name="quotesingle" unicode="'" horiz-adv-x="273" 
d="M82 429l-17 202v57h143v-57l-17 -202h-109z" />
    <glyph glyph-name="parenleft" unicode="(" horiz-adv-x="355" 
d="M229 -150c-24.667 26.667 -46.167 50.999 -64.5 72.999s-33.833 44.167 -46.5 66.5s-23 47.166 -31 74.499s-13.833 59.833 -17.5 97.5s-5.5 82.834 -5.5 135.501s1.83301 97.834 5.5 135.501s9.5 70.5 17.5 98.5s18.333 53.333 31 76s28.167 44.667 46.5 66
s39.833 44.666 64.5 69.999h105c-16 -20.667 -30.333 -40.167 -43 -58.5s-23.834 -38 -33.501 -59s-17.834 -45.667 -24.501 -74s-11.667 -63.166 -15 -104.499s-5 -91.333 -5 -150c0 -59.333 1.66699 -109.666 5 -150.999s8.33301 -76.333 15 -105
s14.834 -53.334 24.501 -74.001s20.834 -40.167 33.501 -58.5s27 -37.833 43 -58.5h-105z" />
    <glyph glyph-name="parenright" unicode=")" horiz-adv-x="355" 
d="M20 -150c16.667 20.667 31.334 40.168 44.001 58.501s23.834 37.833 33.501 58.5s17.834 45.334 24.501 74.001s11.667 63.667 15 105s5 91.666 5 150.999c0 58.667 -1.66699 108.667 -5 150s-8.33301 76.166 -15 104.499s-14.834 53 -24.501 74
s-20.834 40.667 -33.501 59s-27.334 37.833 -44.001 58.5h106c24 -25.333 45.167 -48.666 63.5 -69.999s34 -43.333 47 -66s23.5 -48 31.5 -76s13.667 -60.833 17 -98.5s5 -82.834 5 -135.501s-1.66699 -97.834 -5 -135.501s-9 -70.167 -17 -97.5
s-18.5 -52.166 -31.5 -74.499s-28.667 -44.5 -47 -66.5l-63.5 -73h-106z" />
    <glyph glyph-name="asterisk" unicode="*" horiz-adv-x="450" 
d="M184 320l10 130l-109 -76l-42 74l120 55l-120 57l42 73l109 -75l-10 130h83l-12 -129l111 74l41 -73l-120 -57l120 -55l-41 -74l-110 76l11 -130h-83z" />
    <glyph glyph-name="plus" unicode="+" horiz-adv-x="540" 
d="M211 52v143h-141v115h141v142h117v-142h142v-115h-142v-143h-117z" />
    <glyph glyph-name="comma" unicode="," horiz-adv-x="299" 
d="M56 -147l-0.000976562 63.999c20 0 34.833 1.83301 44.5 5.5s16.334 10.334 20.001 20.001s5.5 23.5 5.5 41.5v16h-62v145h171v-108c0 -36.667 -2 -67 -6 -91s-12 -42.833 -24 -56.5s-30 -23.167 -54 -28.5s-55.667 -8 -95 -8z" />
    <glyph glyph-name="hyphen" unicode="-" horiz-adv-x="373" 
d="M50 220v129h273v-129h-273z" />
    <glyph glyph-name="period" unicode="." horiz-adv-x="299" 
d="M64 0v145h171v-145h-171z" />
    <glyph glyph-name="slash" unicode="/" horiz-adv-x="409" 
d="M-9 -55l290 798h136l-291 -798h-135z" />
    <glyph glyph-name="zero" unicode="0" horiz-adv-x="663" 
d="M331 -8c-51.333 0 -94 2.83301 -128 8.5s-61 15.834 -81 30.501s-34.833 35.167 -44.5 61.5s-15.834 60.166 -18.501 101.499s-4 91.333 -4 150s1.33301 108.667 4 150s8.83398 75.166 18.501 101.499s24.5 46.833 44.5 61.5s47 24.834 81 30.501s76.667 8.5 128 8.5
c52 0 94.833 -2.83301 128.5 -8.5s60.5 -15.834 80.5 -30.501s34.833 -35.167 44.5 -61.5s16 -60.166 19 -101.499s4.5 -91.333 4.5 -150s-1.5 -108.667 -4.5 -150s-9.33301 -75.166 -19 -101.499s-24.5 -46.833 -44.5 -61.5s-46.833 -24.834 -80.5 -30.501
s-76.5 -8.5 -128.5 -8.5zM331 126c20 0 36.332 0.833008 48.999 2.5s22.667 5.83398 30 12.501s12.666 17.834 15.999 33.501s5.5 37.167 6.5 64.5s1.5 62.333 1.5 105s-0.5 77.667 -1.5 105s-3.16699 48.833 -6.5 64.5s-8.66602 26.834 -15.999 33.501
s-17.166 10.834 -29.499 12.501s-28.833 2.5 -49.5 2.5c-19.333 0 -35.5 -0.833008 -48.5 -2.5s-23 -5.83398 -30 -12.501s-12.167 -17.834 -15.5 -33.501s-5.5 -37.167 -6.5 -64.5s-1.5 -62.333 -1.5 -105s0.5 -77.667 1.5 -105s3.16699 -48.833 6.5 -64.5
s8.5 -26.834 15.5 -33.501s16.833 -10.834 29.5 -12.501s29 -2.5 49 -2.5z" />
    <glyph glyph-name="one" unicode="1" horiz-adv-x="395" 
d="M146 0v513l-129 -54v137l184 92h119v-688h-174z" />
    <glyph glyph-name="two" unicode="2" horiz-adv-x="612" 
d="M53 0l0.000976562 95.001c0 38 1 70.667 3 98s6.5 50.666 13.5 69.999s18.167 35.833 33.5 49.5s36.333 26.167 63 37.5l152 61c19.333 8 33.666 15.167 42.999 21.5s15.333 14.166 18 23.499s4 22.333 4 39c0 20.667 -3.33301 35.834 -10 45.501s-18.667 15.667 -36 18
s-41.666 3.5 -72.999 3.5c-14.667 0 -32.834 -0.666992 -54.501 -2s-44.834 -3 -69.501 -5s-49 -4.33301 -73 -7v126c22 4 47 7.66699 75 11s56.833 6 86.5 8s57.167 3 82.5 3c33.333 0 64.833 -2.16699 94.5 -6.5s55.834 -12.833 78.501 -25.5s40.5 -31.667 53.5 -57
s19.5 -59.333 19.5 -102s-4.5 -77 -13.5 -103s-22.167 -46.667 -39.5 -62s-38.333 -28 -63 -38l-172 -67c-13.333 -5.33301 -23.5 -10.833 -30.5 -16.5s-11.833 -13 -14.5 -22s-4 -20.833 -4 -35.5v-26h337v-135h-504z" />
    <glyph glyph-name="three" unicode="3" horiz-adv-x="608" 
d="M272 -8c-22.667 0 -47.3359 0.833984 -74.0029 2.50098s-52.834 4.33398 -78.501 8.00098s-48.5 7.16699 -68.5 10.5v125l74 -6c25.333 -2 49.5 -3.5 72.5 -4.5s42.5 -1.5 58.5 -1.5c30 0 53.833 1.16699 71.5 3.5s30.334 8.83301 38.001 19.5s11.5 28 11.5 52
c0 22.667 -2.66699 39.834 -8 51.501s-14.666 19.5 -27.999 23.5s-32 6 -56 6h-115v132h115c21.333 0 38.166 1.83301 50.499 5.5s21.333 10.667 27 21s8.5 26.166 8.5 47.499c0 24 -3.33301 41.167 -10 51.5s-19 16.666 -37 18.999s-44 3.5 -78 3.5
c-19.333 0 -40.5 -0.666992 -63.5 -2s-45.667 -2.83301 -68 -4.5s-42.166 -3.83398 -59.499 -6.50098v126c19.333 4 41.833 7.66699 67.5 11s51.667 5.83301 78 7.5s50.5 2.5 72.5 2.5c52.667 0 96.5 -4 131.5 -12s62.833 -19.667 83.5 -35s35.5 -34.166 44.5 -56.499
s13.5 -48.166 13.5 -77.499c0 -50 -10 -87.333 -30 -112s-49.667 -41.334 -89 -50.001v-4c26.667 -6 49.334 -14.667 68.001 -26s32.834 -28 42.501 -50s14.5 -51.667 14.5 -89c0 -28.667 -3.83301 -54.834 -11.5 -78.501s-21.5 -44 -41.5 -61s-48.333 -30 -85 -39
s-84 -13.5 -142 -13.5z" />
    <glyph glyph-name="four" unicode="4" horiz-adv-x="650" 
d="M362 0v138h-328v119l236 431h188l-242 -416h151l50 166h117v-166h85v-134h-85v-138h-172z" />
    <glyph glyph-name="five" unicode="5" horiz-adv-x="625" 
d="M292 -8c-22 0 -46.335 0.832031 -73.002 2.49902s-53 4 -79 7s-49.667 6.83301 -71 11.5v124c23.333 -2 47.5 -3.83301 72.5 -5.5s48.833 -3 71.5 -4s42.334 -1.5 59.001 -1.5c26.667 0 48 1.16699 64 3.5s28.5 6.5 37.5 12.5s15.167 14.833 18.5 26.5s5 26.5 5 44.5
c0 19.333 -1.83301 34.833 -5.5 46.5s-10.167 20.334 -19.5 26.001s-22.333 9.5 -39 11.5s-38 3 -64 3c-17.333 0 -37.333 -0.5 -60 -1.5s-45.334 -2.33301 -68.001 -4s-44 -3.5 -64 -5.5v399h444v-135h-292v-129c11.333 1.33301 24.5 2.66602 39.5 3.99902
s30.167 2.33301 45.5 3s29.333 1 42 1c43.333 0 79 -4.66699 107 -14s50 -22.833 66 -40.5s27.167 -39.167 33.5 -64.5s9.5 -54.666 9.5 -87.999c0 -40.667 -4 -75.667 -12 -105s-22.167 -53.5 -42.5 -72.5s-48.666 -33 -84.999 -42s-83.166 -13.5 -140.499 -13.5z" />
    <glyph glyph-name="six" unicode="6" horiz-adv-x="664" 
d="M344 -8c-47.333 0 -87.6641 2.33398 -120.997 7.00098s-61.166 14 -83.499 28s-40.5 35.333 -54.5 64c-6.66699 15.333 -12.334 34.5 -17.001 57.5s-8 50.667 -10 83s-3 69.166 -3 110.499c0 34.667 0.833008 66.167 2.5 94.5s4.66699 54 9 77s10.166 43.167 17.499 60.5
c12 31.333 29.167 55.666 51.5 72.999s51.166 29.833 86.499 37.5s78.333 11.5 129 11.5c19.333 0 41.5 -1 66.5 -3s51.167 -4.5 78.5 -7.5s53 -6.83301 77 -11.5v-125c-24 2.66699 -48.167 5 -72.5 7s-46.5 3.5 -66.5 4.5s-36.667 1.5 -50 1.5
c-34.667 0 -62.334 -2.16699 -83.001 -6.5s-36.167 -12.666 -46.5 -24.999s-17.166 -30.166 -20.499 -53.499s-5 -54.333 -5 -93h6c5.33301 6 13.333 12.667 24 20s26.5 13.833 47.5 19.5s48.833 8.5 83.5 8.5c36.667 0 69 -2.66699 97 -8s51.333 -15.166 70 -29.499
s32.667 -34.833 42 -61.5s14 -61.334 14 -104.001s-3.66699 -79.167 -11 -109.5s-20.833 -54.833 -40.5 -73.5s-46.834 -32.334 -81.501 -41.001s-80 -13 -136 -13zM336.002 124.001c22.667 0 41.1689 0.828125 55.502 2.49512s25.5 5.33398 33.5 11.001
s13.667 14.334 17 26.001s5 27.167 5 46.5c0 20.667 -1.66699 37.167 -5 49.5s-8.83301 21.333 -16.5 27s-18.834 9.33398 -33.501 11.001s-33.334 2.5 -56.001 2.5c-24 0 -43 -1.33301 -57 -4s-24.5 -7.16699 -31.5 -13.5s-11.5 -14.333 -13.5 -24s-3 -21.5 -3 -35.5
c0 -24 1.83301 -42.667 5.5 -56s9.5 -23.166 17.5 -29.499s18.667 -10.166 32 -11.499s30 -2 50 -2z" />
    <glyph glyph-name="seven" unicode="7" horiz-adv-x="572" 
d="M101 0l253 553h-320v135h503v-123l-245 -565h-191z" />
    <glyph glyph-name="eight" unicode="8" horiz-adv-x="681" 
d="M340 -8c-58.667 0 -106.834 4.33301 -144.501 13s-66.667 21.334 -87 38.001s-34.5 36.834 -42.5 60.501s-12 50.5 -12 80.5c0 38 4.83301 67.833 14.5 89.5s23.834 38.167 42.501 49.5s41.334 20 68.001 26v4c-40 8.66699 -69.833 25.334 -89.5 50.001
s-29.5 62 -29.5 112c0 29.333 4.5 55.333 13.5 78s24 41.667 45 57s49.667 26.833 86 34.5s81.5 11.5 135.5 11.5s99.167 -3.83301 135.5 -11.5s65 -19.167 86 -34.5s36 -34.333 45 -57s13.5 -48.667 13.5 -78c0 -50 -9.83301 -87.333 -29.5 -112
s-49.5 -41.334 -89.5 -50.001v-4c27.333 -6 50.166 -14.667 68.499 -26s32.333 -27.833 42 -49.5s14.5 -51.5 14.5 -89.5c0 -30 -4 -56.833 -12 -80.5s-22.333 -43.834 -43 -60.501s-49.667 -29.334 -87 -38.001s-85.333 -13 -144 -13zM340 122
c30 0 53.0029 1.5 69.0029 4.5s27.167 10.333 33.5 22s9.5 29.834 9.5 54.501c0 18.667 -1.5 33.667 -4.5 45s-8.66699 19.833 -17 25.5s-19.833 9.5 -34.5 11.5s-33.334 3 -56.001 3s-41.334 -1 -56.001 -3s-26 -5.83301 -34 -11.5s-13.5 -14.167 -16.5 -25.5
s-4.5 -26.333 -4.5 -45c0 -24.667 3 -42.834 9 -54.501s17.167 -19 33.5 -22s39.166 -4.5 68.499 -4.5zM340.003 408c30.667 0 53.5 1.66699 68.5 5s25 10.666 30 21.999s7.5 28.333 7.5 51c0 24 -2.5 41.5 -7.5 52.5s-15 18.333 -30 22s-37.833 5.5 -68.5 5.5
c-30 0 -52.667 -1.83301 -68 -5.5s-25.333 -11 -30 -22s-7 -28.5 -7 -52.5c0 -22.667 2.33301 -39.667 7 -51s14.667 -18.666 30 -21.999s38 -5 68 -5z" />
    <glyph glyph-name="nine" unicode="9" horiz-adv-x="664" 
d="M313 -8c-19.333 0 -41.833 0.999023 -67.5 2.99902s-52 4.66699 -79 8s-52.167 7 -75.5 11v125c25.333 -2.66699 49.833 -5 73.5 -7s45.834 -3.5 66.501 -4.5s37 -1.5 49 -1.5c35.333 0 63.166 2.16699 83.499 6.5s35.666 12.666 45.999 24.999s17.333 30.166 21 53.499
s5.5 54.333 5.5 93h-6c-5.33301 -6 -13.5 -12.667 -24.5 -20s-26.833 -13.833 -47.5 -19.5s-48.334 -8.5 -83.001 -8.5c-37.333 0 -69.833 2.66699 -97.5 8s-50.834 15.166 -69.501 29.499s-32.834 34.833 -42.501 61.5s-14.5 61.334 -14.5 104.001
s3.83301 79.167 11.5 109.5s21.167 54.833 40.5 73.5s46.5 32.334 81.5 41.001s80.167 13 135.5 13c52.667 0 96.667 -2.83301 132 -8.5s63.833 -16.667 85.5 -33s37.834 -41.166 48.501 -74.499c8.66699 -27.333 14.667 -60 18 -98s5 -83.333 5 -136
c0 -39.333 -1.16699 -74.666 -3.5 -105.999s-6.16602 -59 -11.499 -83s-12.666 -45 -21.999 -63c-13.333 -25.333 -31.333 -45.5 -54 -60.5s-50.667 -25.667 -84 -32s-73.666 -9.5 -120.999 -9.5zM328 387.999c24 0 43.167 1.33789 57.5 4.00488s24.833 7.16699 31.5 13.5
s11 14.333 13 24s3 21.5 3 35.5c0 24 -1.83301 42.667 -5.5 56s-9.5 23.166 -17.5 29.499s-18.667 10.166 -32 11.499s-30 2 -50 2c-22 0 -40.333 -0.833008 -55 -2.5s-26 -5.33398 -34 -11.001s-13.5 -14.334 -16.5 -26.001s-4.5 -27.167 -4.5 -46.5
c0 -20.667 1.5 -37.167 4.5 -49.5s8.5 -21.333 16.5 -27s19.167 -9.33398 33.5 -11.001s32.833 -2.5 55.5 -2.5z" />
    <glyph glyph-name="colon" unicode=":" horiz-adv-x="299" 
d="M64 365v145h171v-145h-171zM64 0v145h171v-145h-171z" />
    <glyph glyph-name="semicolon" unicode=";" horiz-adv-x="299" 
d="M56 -147l-0.000976562 63.999c20 0 34.833 1.83301 44.5 5.5s16.334 10.334 20.001 20.001s5.5 23.5 5.5 41.5v16h-62v145h171v-108c0 -36.667 -2 -67 -6 -91s-12 -42.833 -24 -56.5s-30 -23.167 -54 -28.5s-55.667 -8 -95 -8zM63.999 364.999v145h171v-145h-171z" />
    <glyph glyph-name="less" unicode="&#x3c;" horiz-adv-x="541" 
d="M471 45l-400 149v117l400 150v-117l-264 -91l264 -91v-117z" />
    <glyph glyph-name="equal" unicode="=" horiz-adv-x="540" 
d="M70 298v116h400v-116h-400zM70 91v116h400v-116h-400z" />
    <glyph glyph-name="greater" unicode="&#x3e;" horiz-adv-x="541" 
d="M70 45v117l263 91l-263 91v117l400 -150v-117z" />
    <glyph glyph-name="question" unicode="?" horiz-adv-x="516" 
d="M137 232l0.00195312 67.999c0 26 2.66699 46.667 8 62s13.166 27 23.499 35s23.166 14.667 38.499 20l33 11c14 4.66699 24.5 9.16699 31.5 13.5s11.667 11 14 20s3.5 22.167 3.5 39.5c0 20 -3 34.333 -9 43s-15.833 13.834 -29.5 15.501s-32.834 2.5 -57.501 2.5
c-10 0 -21.833 -0.333008 -35.5 -1s-28 -1.5 -43 -2.5l-43 -3c-13.667 -1 -25.5 -2.16699 -35.5 -3.5v126c18.667 3.33301 40 6.5 64 9.5s48.5 5.16699 73.5 6.5s48.167 2 69.5 2c34 0 64.333 -2.66699 91 -8s49.334 -14.833 68.001 -28.5s32.834 -32.667 42.501 -57
s14.5 -55.833 14.5 -94.5c0 -27.333 -2.33301 -50.333 -7 -69s-11.334 -33.834 -20.001 -45.501s-19 -21.167 -31 -28.5s-25 -13.666 -39 -18.999l-33 -11c-11.333 -3.33301 -20.333 -6.5 -27 -9.5s-11.5 -6.66699 -14.5 -11s-5 -10.5 -6 -18.5s-1.5 -19 -1.5 -33v-31h-143z
M124.002 -0.000976562v145h171v-145h-171z" />
    <glyph glyph-name="at" unicode="@" horiz-adv-x="940" 
d="M470 -108c-76 0 -138.498 2.83008 -187.498 8.49707s-87.667 16.167 -116 31.5s-49.166 37.833 -62.499 67.5s-21.666 68.5 -24.999 116.5s-5 107.333 -5 178s1.66699 130 5 178s11.666 86.833 24.999 116.5s34.166 52.167 62.499 67.5s67 25.833 116 31.5
s111.5 8.5 187.5 8.5s138.333 -2.66699 187 -8s87.167 -15.666 115.5 -30.999s49.166 -37.833 62.499 -67.5s21.833 -68.5 25.5 -116.5s5.5 -107.667 5.5 -179c0 -54 -2.5 -96 -7.5 -126s-12.833 -51.5 -23.5 -64.5s-24.667 -21 -42 -24s-38.333 -4.5 -63 -4.5h-191l-5 53
h-7c-10.667 -18 -23 -31.167 -37 -39.5s-28.667 -13.833 -44 -16.5s-31.333 -4 -48 -4c-28.667 0 -52.5 4.5 -71.5 13.5s-33.167 23.333 -42.5 43s-14 44.834 -14 75.501c0 34.667 3.83301 61.5 11.5 80.5s21.5 32.333 41.5 40s48.333 11.5 85 11.5
c8.66699 0 20.167 -0.166992 34.5 -0.5s29.666 -0.666016 45.999 -0.999023s30.833 -0.833008 43.5 -1.5v17c0 16 -1.16699 28.5 -3.5 37.5s-6.83301 15.667 -13.5 20s-17.334 7 -32.001 8s-34 1.5 -58 1.5c-6.66699 0 -14.834 -0.166992 -24.501 -0.5
s-20 -0.666016 -31 -0.999023s-22.833 -0.833008 -35.5 -1.5s-25.667 -1.66699 -39 -3v97c28 4.66699 57 8.16699 87 10.5s59.333 3.5 88 3.5c47.333 0 84.5 -3.5 111.5 -10.5s47.167 -17.833 60.5 -32.5s21.833 -33.167 25.5 -55.5s5.5 -49.166 5.5 -80.499v-203h66
c12 0 21.667 1.16699 29 3.5s13.166 8.16602 17.499 17.499s7.33301 24.833 9 46.5s2.5 51.834 2.5 90.501c0 59.333 -0.833008 109 -2.5 149s-6.33398 72.5 -14.001 97.5s-20.167 44 -37.5 57s-41.666 22.167 -72.999 27.5c-21.333 4 -48.666 6.5 -81.999 7.5
s-73 1.5 -119 1.5c-41.333 0 -77.5 -0.333008 -108.5 -1s-56.833 -2.66699 -77.5 -6c-34.667 -4.66699 -61.667 -13.167 -81 -25.5s-33.166 -30.833 -41.499 -55.5s-13.5 -57.334 -15.5 -98.001s-3 -92 -3 -154c0 -69.333 1.33301 -125.666 4 -168.999
s9.83398 -76.833 21.501 -100.5s30.667 -40.334 57 -50.001s63.166 -15.834 110.499 -18.501c16.667 -0.666992 36.5 -1.16699 59.5 -1.5s48.167 -0.5 75.5 -0.5c16 0 34 0.166992 54 0.5l59.5 1c19.667 0.333008 37.5 0.833008 53.5 1.5s27.667 1 35 1v-63
c-10.667 -0.666992 -22.334 -1.16699 -35.001 -1.5s-26.667 -0.5 -42 -0.5s-33.166 -0.166992 -53.499 -0.5s-44.166 -0.5 -71.499 -0.5zM463.002 164.997c20 0 34.833 2.16699 44.5 6.5s16.167 12 19.5 23s5 25.5 5 43.5v24h-80c-14.667 0 -25.5 -1.16699 -32.5 -3.5
s-11.667 -7 -14 -14s-3.5 -17.5 -3.5 -31.5c0 -12.667 1.16699 -22.5 3.5 -29.5s8 -11.833 17 -14.5s22.5 -4 40.5 -4z" />
    <glyph glyph-name="A" unicode="A" 
d="M8 0l218 688h237l219 -688h-176l-41 135h-245l-40 -135h-172zM257 266h170l-82 272h-7z" />
    <glyph glyph-name="B" unicode="B" horiz-adv-x="670" 
d="M71 0l0.00292969 688.004h347c44 0 80.5 -6.33301 109.5 -19s50.667 -31.834 65 -57.501s21.5 -57.834 21.5 -96.501c0 -32 -4.33301 -59 -13 -81s-21.834 -39.5 -39.501 -52.5s-40.167 -22.5 -67.5 -28.5v-4c29.333 -6 53.166 -15.333 71.499 -28
s31.833 -30.167 40.5 -52.5s13 -50.833 13 -85.5c0 -28.667 -3.5 -54.334 -10.5 -77.001s-18.333 -41.834 -34 -57.501s-36.334 -27.667 -62.001 -36s-57.167 -12.5 -94.5 -12.5h-347zM244.003 130.004l112.999 0.00292969c24 0 42.333 2.16699 55 6.5
s21.334 12.166 26.001 23.499s7 27.333 7 48c0 21.333 -2.33301 37.666 -7 48.999s-13.5 19.166 -26.5 23.499s-31.167 6.5 -54.5 6.5h-113v-157zM244.002 408.007l109.998 -0.000976562c22.667 0 40.334 2.16699 53.001 6.5s21.5 11.833 26.5 22.5s7.5 25.667 7.5 45
c0 20.667 -2.16699 36.334 -6.5 47.001s-12.666 18 -24.999 22s-30.833 6 -55.5 6h-110v-149z" />
    <glyph glyph-name="C" unicode="C" horiz-adv-x="570" 
d="M347 -8c-52 0 -95.3301 3.49805 -129.997 10.498s-62.834 18.5 -84.501 34.5s-38 37.333 -49 64s-18.5 60 -22.5 100s-6 87.667 -6 143s2 103 6 143s11.5 73.333 22.5 100s27.333 48 49 64s49.834 27.5 84.501 34.5s78 10.5 130 10.5c20 0 40.667 -0.666992 62 -2
s42 -3.33301 62 -6s37 -6 51 -10v-125l-56.5 5.5c-17 1.66699 -31.833 2.66699 -44.5 3s-23.334 0.5 -32.001 0.5c-30.667 0 -55.834 -1.16699 -75.501 -3.5s-35.167 -7.5 -46.5 -15.5s-19.666 -19.833 -24.999 -35.5s-8.83301 -36.667 -10.5 -63s-2.5 -59.833 -2.5 -100.5
c0 -40 0.833008 -73.333 2.5 -100s5.16699 -48 10.5 -64s13.666 -27.833 24.999 -35.5s26.833 -12.667 46.5 -15s44.834 -3.5 75.501 -3.5c20.667 0 44 0.833008 70 2.5s48.333 3.83398 67 6.50098v-128c-14.667 -2.66699 -32.334 -5.16699 -53.001 -7.5
s-41.834 -4.16602 -63.501 -5.49902s-42.5 -2 -62.5 -2z" />
    <glyph glyph-name="D" unicode="D" horiz-adv-x="678" 
d="M71 0v687.996h241c61.333 0 111.333 -3.16699 150 -9.5s69 -17 91 -32s37.833 -35.667 47.5 -62s15.834 -59.166 18.501 -98.499s4 -86.666 4 -141.999s-1.33301 -102.666 -4 -141.999s-8.83398 -72.166 -18.501 -98.499s-25.5 -47 -47.5 -62s-52.333 -25.667 -91 -32
s-88.667 -9.5 -150 -9.5h-241zM245 133.996l63.002 0.00195312c27.333 0 49.666 0.833008 66.999 2.5s31.166 5.66699 41.499 12s17.666 17 21.999 32s7 35.667 8 62s1.5 60.166 1.5 101.499s-0.5 75.166 -1.5 101.499s-3.83301 47 -8.5 62s-12 25.833 -22 32.5
s-23.667 10.667 -41 12s-39.666 2 -66.999 2h-63v-420z" />
    <glyph glyph-name="E" unicode="E" horiz-adv-x="606" 
d="M71 0v688h482v-134h-308v-141h261v-132h-261v-147h308v-134h-482z" />
    <glyph glyph-name="F" unicode="F" horiz-adv-x="569" 
d="M71 0v688h462v-134h-288v-163h251v-134h-251v-257h-174z" />
    <glyph glyph-name="G" unicode="G" horiz-adv-x="667" 
d="M362 -8c-51.333 0 -94.668 3.33203 -130.001 9.99902s-64.666 17.834 -87.999 33.501s-41.5 37 -54.5 64s-22 60.5 -27 100.5s-7.5 88 -7.5 144s2.5 104 7.5 144s14.167 73.5 27.5 100.5s31.666 48.333 54.999 64s52.666 26.834 87.999 33.501s78.333 10 129 10
c22.667 0 48 -1 76 -3s55.833 -4.66699 83.5 -8s53.5 -7.33301 77.5 -12v-125c-22.667 3.33301 -45.167 5.83301 -67.5 7.5l-61.5 4.5c-18.667 1.33301 -34 2 -46 2c-36 0 -65.667 -0.666992 -89 -2s-42.333 -5.5 -57 -12.5s-25.667 -18.167 -33 -33.5
s-12.166 -36.833 -14.499 -64.5s-3.5 -62.834 -3.5 -105.501c0 -38 0.833008 -70 2.5 -96s5.33398 -47.333 11.001 -64s13.667 -29.5 24 -38.5s24 -15.167 41 -18.5s37.833 -5 62.5 -5c8 0 16.667 0.166992 26 0.5s18.333 0.833008 27 1.5s16 1 22 1v149h-98v125h257v-385
c-24 -4.66699 -50.333 -8.5 -79 -11.5s-57 -5.5 -85 -7.5s-53.333 -3 -76 -3z" />
    <glyph glyph-name="H" unicode="H" horiz-adv-x="713" 
d="M71 0v688h174v-270h223v270h174v-688h-174v273h-223v-273h-174z" />
    <glyph glyph-name="I" unicode="I" horiz-adv-x="317" 
d="M71 0v688h174v-688h-174z" />
    <glyph glyph-name="J" unicode="J" horiz-adv-x="406" 
d="M24 0l-0.00195312 125.999c34 0.666992 60.5 2.16699 79.5 4.5s32.833 7.83301 41.5 16.5s13.834 22.334 15.501 41.001s2.5 44 2.5 76v424h174v-379c0 -59.333 -1.33301 -108.333 -4 -147s-9.16699 -69 -19.5 -91s-26.666 -38 -48.999 -48s-53 -16.333 -92 -19
s-88.5 -4 -148.5 -4z" />
    <glyph glyph-name="K" unicode="K" horiz-adv-x="684" 
d="M71 0v688h174v-272h51l188 272h188l-235 -327l238 -361h-195l-184 284h-51v-284h-174z" />
    <glyph glyph-name="L" unicode="L" horiz-adv-x="536" 
d="M71 0v688h174v-548h268v-140h-442z" />
    <glyph glyph-name="M" unicode="M" horiz-adv-x="900" 
d="M71 0v688h239l137 -408h7l137 408h238v-688h-167v447h-7l-149 -447h-117l-148 447h-8v-447h-162z" />
    <glyph glyph-name="N" unicode="N" horiz-adv-x="717" 
d="M71 0v688h179l224 -369h5v369h167v-688h-163l-240 403h-5v-403h-167z" />
    <glyph glyph-name="O" unicode="O" horiz-adv-x="703" 
d="M351 -8c-58 0 -105.5 3.5 -142.5 10.5s-65.833 18.333 -86.5 34s-35.834 37 -45.501 64s-15.667 60.5 -18 100.5s-3.5 87.667 -3.5 143s1.16699 103 3.5 143s8.33301 73.5 18 100.5s24.834 48.333 45.501 64s49.5 27 86.5 34s84.5 10.5 142.5 10.5
c57.333 0 104.5 -3.5 141.5 -10.5s66.167 -18.333 87.5 -34s36.666 -37 45.999 -64s15.333 -60.5 18 -100.5s4 -87.667 4 -143s-1.33301 -103 -4 -143s-8.66699 -73.5 -18 -100.5s-24.666 -48.333 -45.999 -64s-50.5 -27 -87.5 -34s-84.167 -10.5 -141.5 -10.5zM351 126
c24 0 43.5 0.833008 58.5 2.5s26.833 6 35.5 13s15 18.167 19 33.5s6.5 36.666 7.5 63.999s1.5 62.333 1.5 105s-0.5 77.667 -1.5 105s-3.5 48.666 -7.5 63.999s-10.333 26.5 -19 33.5s-20.5 11.333 -35.5 13s-34.5 2.5 -58.5 2.5c-23.333 0 -42.666 -0.833008 -57.999 -2.5
s-27.333 -6 -36 -13s-15 -18.167 -19 -33.5s-6.5 -36.666 -7.5 -63.999s-1.5 -62.333 -1.5 -105s0.5 -77.667 1.5 -105s3.5 -48.666 7.5 -63.999s10.333 -26.5 19 -33.5s20.667 -11.333 36 -13s34.666 -2.5 57.999 -2.5z" />
    <glyph glyph-name="P" unicode="P" horiz-adv-x="643" 
d="M71 0v688.001h331c44 0 79.667 -5.16699 107 -15.5s48.333 -25.333 63 -45s24.667 -43.834 30 -72.501s8 -61.667 8 -99c0 -34 -2.5 -65.167 -7.5 -93.5s-14.667 -52.833 -29 -73.5s-35.5 -36.667 -63.5 -48s-65 -17 -111 -17h-154v-224h-174zM245 356.001
l86.999 0.000976562c24 0 42.833 1.33301 56.5 4s23.834 7.5 30.501 14.5s11 17 13 30s3 30.167 3 51.5s-0.833008 38.666 -2.5 51.999s-5.83398 23.5 -12.501 30.5s-16.667 11.667 -30 14s-31.666 3.5 -54.999 3.5h-90v-200z" />
    <glyph glyph-name="Q" unicode="Q" horiz-adv-x="703" 
d="M497 -115l-224 333h177l232 -328v-5h-185zM351 -8c-58 0 -105.5 3.5 -142.5 10.5s-65.833 18.333 -86.5 34s-35.834 37 -45.501 64s-15.667 60.5 -18 100.5s-3.5 87.667 -3.5 143s1.16699 103 3.5 143s8.33301 73.5 18 100.5s24.834 48.333 45.501 64s49.5 27 86.5 34
s84.5 10.5 142.5 10.5c57.333 0 104.5 -3.5 141.5 -10.5s66.167 -18.333 87.5 -34s36.666 -37 45.999 -64s15.333 -60.5 18 -100.5s4 -87.667 4 -143s-1.33301 -103 -4 -143s-8.66699 -73.5 -18 -100.5s-24.666 -48.333 -45.999 -64s-50.5 -27 -87.5 -34
s-84.167 -10.5 -141.5 -10.5zM351 126c24 0 43.5 0.833008 58.5 2.5s26.833 6 35.5 13s15 18.167 19 33.5s6.5 36.666 7.5 63.999s1.5 62.333 1.5 105s-0.5 77.667 -1.5 105s-3.5 48.666 -7.5 63.999s-10.333 26.5 -19 33.5s-20.5 11.333 -35.5 13s-34.5 2.5 -58.5 2.5
c-23.333 0 -42.666 -0.833008 -57.999 -2.5s-27.333 -6 -36 -13s-15 -18.167 -19 -33.5s-6.5 -36.666 -7.5 -63.999s-1.5 -62.333 -1.5 -105s0.5 -77.667 1.5 -105s3.5 -48.666 7.5 -63.999s10.333 -26.5 19 -33.5s20.667 -11.333 36 -13s34.666 -2.5 57.999 -2.5z" />
    <glyph glyph-name="R" unicode="R" horiz-adv-x="672" 
d="M71 0l-0.00195312 688h341c44.667 0 80.834 -4.83301 108.501 -14.5s48.667 -24 63 -43s24 -42.333 29 -70s7.5 -59.167 7.5 -94.5c0 -26 -2 -52.167 -6 -78.5s-12.5 -50.333 -25.5 -72s-32.833 -38.167 -59.5 -49.5l104 -266h-181l-97 275l44 -24
c-6 -3.33301 -12.167 -5.33301 -18.5 -6s-14.166 -1 -23.499 -1h-112v-244h-174zM244.998 373h99.998c22.667 0 40.834 1.16699 54.501 3.5s23.834 6.83301 30.501 13.5s11 16 13 28s3 27.333 3 46c0 19.333 -0.833008 35 -2.5 47s-5.66699 21.167 -12 27.5
s-16.333 10.833 -30 13.5s-32.5 4 -56.5 4h-100v-183z" />
    <glyph glyph-name="S" unicode="S" horiz-adv-x="616" 
d="M323 -8c-26.667 0 -55.5029 0.668945 -86.5029 2.00195s-61.333 3.33301 -91 6s-56.167 5.33398 -79.5 8.00098v129l74.5 -6c25 -2 48.833 -3.33301 71.5 -4s41.667 -1 57 -1c32 0 56.333 1.16699 73 3.5s29 5.83301 37 10.5c5.33301 4.66699 9.16602 9.66699 11.499 15
s3.83301 11.666 4.5 18.999s1 15.666 1 24.999c0 14 -0.833008 25.167 -2.5 33.5s-5 14.833 -10 19.5s-12.5 8.16699 -22.5 10.5s-23 4.5 -39 6.5l-141 18c-27.333 3.33301 -49.666 10.166 -66.999 20.499s-31 24.166 -41 41.499s-17 37.833 -21 61.5s-6 50.167 -6 79.5
c0 45.333 6.66699 81.5 20 108.5s31.833 47.667 55.5 62s51.334 23.833 83.001 28.5s66.167 7 103.5 7c26.667 0 54.334 -0.833008 83.001 -2.5s55.667 -4 81 -7s46.333 -6.5 63 -10.5v-126c-16.667 2.66699 -36.167 4.83398 -58.5 6.50098s-45.5 3 -69.5 4
s-46.667 1.5 -68 1.5c-26 0 -46.667 -0.833008 -62 -2.5s-27.333 -4.83398 -36 -9.50098c-9.33301 -5.33301 -15.166 -12.333 -17.499 -21s-3.5 -19.667 -3.5 -33c0 -16.667 1.33301 -29.5 4 -38.5s8.66699 -15.167 18 -18.5s23.666 -6.33301 42.999 -9l137 -16
c18.667 -2 35.834 -5.33301 51.501 -10s30 -12 43 -22s23.833 -24.333 32.5 -43c4.66699 -8.66699 8.33398 -19.167 11.001 -31.5s5 -26.5 7 -42.5s3 -34 3 -54c0 -39.333 -4 -72.5 -12 -99.5s-19.333 -48.333 -34 -64s-32.334 -27.667 -53.001 -36
s-43.5 -13.666 -68.5 -15.999s-51.5 -3.5 -79.5 -3.5z" />
    <glyph glyph-name="T" unicode="T" horiz-adv-x="587" 
d="M206 0v548h-188v140h551v-140h-189v-548h-174z" />
    <glyph glyph-name="U" unicode="U" 
d="M345 -8c-51.333 0 -93.999 3.16699 -127.999 9.5s-61 16.5 -81 30.5s-35 33.167 -45 57.5s-16.5 54.666 -19.5 90.999s-4.5 79.5 -4.5 129.5v378h174v-415c0 -32 0.833008 -57.833 2.5 -77.5s5.66699 -34.5 12 -44.5s16.666 -16.5 30.999 -19.5s33.833 -4.5 58.5 -4.5
s44 1.5 58 4.5s24.167 9.5 30.5 19.5s10.333 24.833 12 44.5s2.5 45.5 2.5 77.5v415h174v-378c0 -50 -1.5 -93.167 -4.5 -129.5s-9.33301 -66.666 -19 -90.999s-24.5 -43.5 -44.5 -57.5s-47 -24.167 -81 -30.5s-76.667 -9.5 -128 -9.5z" />
    <glyph glyph-name="V" unicode="V" horiz-adv-x="663" 
d="M216 0l-206 688h178l142 -504h7l141 504h174l-206 -688h-230z" />
    <glyph glyph-name="W" unicode="W" horiz-adv-x="988" 
d="M168 0l-153 688h173l99 -491h8l112 491h180l114 -491h8l91 491h173l-153 -688h-218l-105 434h-7l-104 -434h-218z" />
    <glyph glyph-name="X" unicode="X" horiz-adv-x="687" 
d="M13 0l222 345l-218 343h198l127 -209h9l129 209h190l-218 -339l221 -349h-197l-131 215h-10l-132 -215h-190z" />
    <glyph glyph-name="Y" unicode="Y" horiz-adv-x="637" 
d="M231 0v236l-229 452h179l137 -289h7l135 289h175l-230 -452v-236h-174z" />
    <glyph glyph-name="Z" unicode="Z" horiz-adv-x="614" 
d="M44 0v128l310 426h-299v134h515v-124l-315 -431h316v-133h-527z" />
    <glyph glyph-name="bracketleft" unicode="[" horiz-adv-x="381" 
d="M75 -150v893h261v-98l-119 -4v-689l119 -4v-98h-261z" />
    <glyph glyph-name="backslash" unicode="\" horiz-adv-x="409" 
d="M282 -55l-291 798h136l290 -798h-135z" />
    <glyph glyph-name="bracketright" unicode="]" horiz-adv-x="381" 
d="M44 -150v98l119 4v689l-119 4v98h262v-893h-262z" />
    <glyph glyph-name="asciicircum" unicode="^" horiz-adv-x="435" 
d="M18 444l141 305h116l141 -305h-114l-85 202l-85 -202h-114z" />
    <glyph glyph-name="underscore" unicode="_" horiz-adv-x="388" 
d="M0 -185v115h388v-115h-388z" />
    <glyph glyph-name="grave" unicode="`" horiz-adv-x="247" 
d="M133 576l-133 140v5h156l91 -140v-5h-114z" />
    <glyph glyph-name="a" unicode="a" horiz-adv-x="566" 
d="M186 -8c-32 0 -58.9961 5 -80.9961 15s-38.5 26.333 -49.5 49s-16.5 52.334 -16.5 89.001c0 38.667 4.5 69.5 13.5 92.5s25.167 39.5 48.5 49.5s56.333 15 99 15c6 0 14.5 -0.166992 25.5 -0.5s23.5 -0.666016 37.5 -0.999023l42 -1
c14 -0.333008 26.667 -0.833008 38 -1.5v19c0 19.333 -1.5 34.333 -4.5 45s-8.66699 18.5 -17 23.5s-20.833 8 -37.5 9s-38.667 1.5 -66 1.5c-15.333 0 -32.166 -0.333008 -50.499 -1s-36.333 -1.5 -54 -2.5s-32.5 -2.16699 -44.5 -3.5v113
c27.333 4.66699 58.166 8.5 92.499 11.5s70.5 4.5 108.5 4.5c42.667 0 78.167 -2.66699 106.5 -8s51.166 -13.5 68.499 -24.5s30.166 -24.833 38.499 -41.5s13.833 -36.334 16.5 -59.001s4 -48.334 4 -77.001v-308h-154l-4 60h-8c-12.667 -20 -27.334 -35 -44.001 -45
s-34.334 -16.333 -53.001 -19s-37 -4 -55 -4zM262.004 106c12 0 22.502 0.830078 31.502 2.49707s16.667 4.66699 23 9s11.5 9.83301 15.5 16.5c3.33301 7.33301 6 16.333 8 27s3 23.334 3 38.001v19h-93c-16.667 0 -29.334 -1.16699 -38.001 -3.5
s-14.5 -7.66602 -17.5 -15.999s-4.5 -21.166 -4.5 -38.499c0 -14.667 1.66699 -26 5 -34s10.166 -13.333 20.499 -16s25.833 -4 46.5 -4z" />
    <glyph glyph-name="b" unicode="b" horiz-adv-x="585" 
d="M372 -8c-18.667 0 -37.3311 1.83398 -55.998 5.50098s-35.5 10.334 -50.5 20.001s-27.833 24.167 -38.5 43.5h-9l-4 -61h-152v743h160v-287h8c11.333 17.333 24.166 30.333 38.499 39s30.5 14.667 48.5 18s36.667 5 56 5c30 0 55.5 -4.33301 76.5 -13
s38.167 -22.834 51.5 -42.501s23.166 -46.5 29.499 -80.5s9.5 -76.667 9.5 -128s-3.16699 -93.833 -9.5 -127.5s-16.333 -60.334 -30 -80.001s-31 -33.667 -52 -42s-46.5 -12.5 -76.5 -12.5zM300.003 124.001c18 0 32.333 1.16992 43 3.50293s18.5 7.66602 23.5 15.999
s8.33301 21.333 10 39s2.5 41.834 2.5 72.501s-0.833008 54.667 -2.5 72s-5 30.166 -10 38.499s-12.833 13.833 -23.5 16.5s-25 4 -43 4s-32.167 -1.83301 -42.5 -5.5s-17.833 -10.834 -22.5 -21.501c-5.33301 -11.333 -8.83301 -25.333 -10.5 -42
s-2.5 -37.334 -2.5 -62.001c0 -24 0.833008 -44.667 2.5 -62s5.16699 -31.333 10.5 -42c4.66699 -10 12.167 -17 22.5 -21s24.5 -6 42.5 -6z" />
    <glyph glyph-name="c" unicode="c" horiz-adv-x="463" 
d="M267 -8c-42.667 0 -77.668 3.83398 -105.001 11.501s-49 18.667 -65 33s-27.667 32.166 -35 53.499s-12 45.833 -14 73.5s-3 58.167 -3 91.5c0 32.667 1 62.667 3 90s7 51.833 15 73.5s19.833 39.834 35.5 54.501s37 25.834 64 33.501s61.5 11.5 103.5 11.5
c26.667 0 53.5 -1.33301 80.5 -4s51.167 -6.66699 72.5 -12v-113c-13.333 2 -30.5 3.66699 -51.5 5s-40.5 2 -58.5 2c-23.333 0 -41.666 -1.83301 -54.999 -5.5s-23.333 -10.334 -30 -20.001s-11.167 -23.834 -13.5 -42.501s-3.5 -43 -3.5 -73s1.16699 -54.5 3.5 -73.5
s6.83301 -33.333 13.5 -43s17 -16.167 31 -19.5s32.333 -5 55 -5c16 0 34.167 0.666992 54.5 2s39.833 3 58.5 5v-113c-22 -4.66699 -47 -8.5 -75 -11.5s-55 -4.5 -81 -4.5z" />
    <glyph glyph-name="d" unicode="d" horiz-adv-x="585" 
d="M212 -8c-29.333 0 -54.6719 4 -76.0049 12s-38.666 21.833 -51.999 41.5s-23.166 46.5 -29.499 80.5s-9.5 76.667 -9.5 128c0 50.667 3 93.167 9 127.5s15.667 61.333 29 81s30.5 33.834 51.5 42.501s46.5 13 76.5 13c20 0 38.833 -1.66699 56.5 -5
s33.834 -9.33301 48.501 -18s27.334 -21.667 38.001 -39h8v287h161v-743h-153l-4 61h-8c-10 -19.333 -22.833 -33.833 -38.5 -43.5s-32.667 -16.334 -51 -20.001s-37.166 -5.5 -56.499 -5.5zM283.994 124c20.667 0 36.168 2.49805 46.501 7.49805s17.833 14.167 22.5 27.5
c4 12 6.5 25.833 7.5 41.5s1.5 33.834 1.5 54.501s-0.5 38.667 -1.5 54s-3.5 28.333 -7.5 39c-4 14.667 -11.333 24.667 -22 30s-26.334 8 -47.001 8c-18 0 -32.333 -1.33301 -43 -4s-18.5 -8.16699 -23.5 -16.5s-8.16699 -21.166 -9.5 -38.499s-2 -41.333 -2 -72
s0.666992 -54.834 2 -72.501s4.5 -30.667 9.5 -39s12.833 -13.666 23.5 -15.999s25 -3.5 43 -3.5z" />
    <glyph glyph-name="e" unicode="e" horiz-adv-x="557" 
d="M300 -8c-48 0 -87.665 3.00391 -118.998 9.00391s-56.166 15.5 -74.499 28.5s-32 29.833 -41 50.5s-14.667 45.334 -17 74.001s-3.5 62 -3.5 100c0 46 2.16699 85.667 6.5 119s14.166 60.666 29.499 81.999s39.166 37.166 71.499 47.499s76.166 15.5 131.499 15.5
c44.667 0 81 -3.16699 109 -9.5s50.167 -16 66.5 -29s28 -29.833 35 -50.5s11.5 -45.5 13.5 -74.5s3 -62.5 3 -100.5v-39h-307c0 -22.667 1 -40.834 3 -54.501s7.33301 -23.834 16 -30.501s22 -11.167 40 -13.5s43 -3.5 75 -3.5c12.667 0 27.667 0.333008 45 1
s35.5 1.66699 54.5 3s36.833 2.66602 53.5 3.99902v-112c-14.667 -3.33301 -32.5 -6.33301 -53.5 -9s-43.5 -4.66699 -67.5 -6s-47.333 -2 -70 -2zM360.002 282.004l-0.00195312 15.999c0 24 -1.16699 43 -3.5 57s-6.33301 24.5 -12 31.5s-13.5 11.5 -23.5 13.5
s-22.667 3 -38 3c-17.333 0 -31.166 -1.16699 -41.499 -3.5s-18.166 -7.16602 -23.499 -14.499s-9 -18 -11 -32s-3 -32.333 -3 -55h173z" />
    <glyph glyph-name="f" unicode="f" horiz-adv-x="422" 
d="M114 0l-0.000976562 387.997h-94v122h94v35c0 38.667 2.33301 70.167 7 94.5s13 43.5 25 57.5s28.833 24.167 50.5 30.5s49 10.333 82 12s72.5 2.5 118.5 2.5v-110c-27.333 0 -49.166 -0.666992 -65.499 -2s-28.5 -4.16602 -36.5 -8.49902s-13.167 -10.666 -15.5 -18.999
s-3.5 -20.166 -3.5 -35.499v-57h121v-122h-121v-388h-162z" />
    <glyph glyph-name="g" unicode="g" horiz-adv-x="585" 
d="M266 -206c-21.333 0 -43.5 0.50293 -66.5 1.50293s-44.5 2.5 -64.5 4.5s-36.667 4.33301 -50 7v111c14 -0.666992 29 -1.16699 45 -1.5s32.167 -0.5 48.5 -0.5h46.5c32.667 0 58.167 1.16699 76.5 3.5s32 7.33301 41 15s14.5 19 16.5 34s3 35.167 3 60.5v36h-8
c-10 -17.333 -22.167 -30.5 -36.5 -39.5s-30.166 -15.167 -47.499 -18.5s-36 -5 -56 -5c-30.667 0 -56.667 4.16699 -78 12.5s-38.833 22 -52.5 41s-23.5 45.167 -29.5 78.5s-9 75 -9 125c0 50.667 3.16699 92.667 9.5 126s16.166 59.666 29.499 78.999
s30.666 33.166 51.999 41.499s47 12.5 77 12.5c18.667 0 37.167 -1.83301 55.5 -5.5s35.333 -10.5 51 -20.5s28.5 -24.667 38.5 -44h8l4 62h153v-452c0 -44.667 -2.33301 -83.667 -7 -117s-15.167 -60.833 -31.5 -82.5s-41.666 -37.834 -75.999 -48.501
s-81.833 -16 -142.5 -16zM284 133.003c19.333 0 34.166 2.16504 44.499 6.49805s17.833 12.166 22.5 23.499c4.66699 10.667 7.66699 23.834 9 39.501s2 34.5 2 56.5c0 21.333 -0.5 40 -1.5 56s-4.16699 29 -9.5 39c-4.66699 12.667 -12.167 21.167 -22.5 25.5
s-25.166 6.5 -44.499 6.5c-18 0 -32.333 -1.16699 -43 -3.5s-18.5 -7.5 -23.5 -15.5s-8.16699 -20.667 -9.5 -38s-2 -40.666 -2 -69.999s0.666992 -52.333 2 -69s4.5 -29.167 9.5 -37.5s12.833 -13.666 23.5 -15.999s25 -3.5 43 -3.5z" />
    <glyph glyph-name="h" unicode="h" horiz-adv-x="591" 
d="M62 0v743.003h160v-292h9c10 16.667 22.167 29.834 36.5 39.501s30.5 16.5 48.5 20.5s37.667 6 59 6c34 0 61.167 -4.16699 81.5 -12.5s35.833 -20.833 46.5 -37.5s17.834 -37.334 21.501 -62.001s5.5 -53.334 5.5 -86.001v-319h-161v270
c0 27.333 -0.666992 48.833 -2 64.5s-4.33301 27.167 -9 34.5s-11.834 11.833 -21.501 13.5s-22.5 2.5 -38.5 2.5c-16.667 0 -30.167 -1.83301 -40.5 -5.5s-18 -9.83398 -23 -18.501s-8.33301 -20.834 -10 -36.501s-2.5 -35.167 -2.5 -58.5v-266h-160z" />
    <glyph glyph-name="i" unicode="i" horiz-adv-x="286" 
d="M60 614v129h165v-129h-165zM62 0v510h162v-510h-162z" />
    <glyph glyph-name="j" unicode="j" horiz-adv-x="286" 
d="M60 614v129h165v-129h-165zM-21 -200l0.000976562 111.998c26 0 44.833 1.83301 56.5 5.5s19 9.33398 22 17.001s4.5 17.834 4.5 30.501v545h162v-510c0 -46 -3.33301 -82.333 -10 -109s-18.834 -46.5 -36.501 -59.5s-42.667 -21.5 -75 -25.5s-73.5 -6 -123.5 -6z" />
    <glyph glyph-name="k" unicode="k" horiz-adv-x="573" 
d="M62 0v743h160v-428h31l133 195h171l-173 -244l176 -266h-178l-129 193h-31v-193h-160z" />
    <glyph glyph-name="l" unicode="l" horiz-adv-x="286" 
d="M62 0v743h162v-743h-162z" />
    <glyph glyph-name="m" unicode="m" horiz-adv-x="870" 
d="M62 0l-0.00390625 510.005h152l4 -62h9c9.33301 17.333 21.166 31.166 35.499 41.499s30.5 17.666 48.5 21.999s37.333 6.5 58 6.5c40 0 70.333 -5.5 91 -16.5s35.334 -28.833 44.001 -53.5h9c10 17.333 22.333 31.166 37 41.499s31.167 17.666 49.5 21.999
s37.833 6.5 58.5 6.5c43.333 0 75.5 -7.66699 96.5 -23s35 -37.666 42 -66.999s10.5 -65.666 10.5 -108.999v-319h-160v270c0 27.333 -0.833008 48.833 -2.5 64.5s-4.5 27.167 -8.5 34.5s-10.333 11.833 -19 13.5s-20 2.5 -34 2.5c-15.333 0 -27.666 -1.83301 -36.999 -5.5
s-16.333 -9.83398 -21 -18.501s-7.5 -20.667 -8.5 -36s-1.5 -35 -1.5 -59v-266h-161v270c0 27.333 -0.666992 48.833 -2 64.5s-4.16602 27.167 -8.49902 34.5s-10.666 11.833 -18.999 13.5s-19.5 2.5 -33.5 2.5c-15.333 0 -27.666 -1.83301 -36.999 -5.5
s-16.333 -9.83398 -21 -18.501s-7.66699 -20.834 -9 -36.501s-2 -35.167 -2 -58.5v-266h-160z" />
    <glyph glyph-name="n" unicode="n" horiz-adv-x="591" 
d="M62 0l-0.000976562 510.007h152l4 -62h9c10 17.333 22.333 31.166 37 41.499s31.334 17.666 50.001 21.999s39 6.5 61 6.5c34 0 61.167 -4.33301 81.5 -13s35.833 -21.334 46.5 -38.001s17.834 -37.334 21.501 -62.001s5.5 -53.334 5.5 -86.001v-319h-161v270
c0 27.333 -0.666992 48.833 -2 64.5s-4.33301 27.167 -9 34.5s-11.834 11.833 -21.501 13.5s-22.5 2.5 -38.5 2.5c-16.667 0 -30.167 -1.83301 -40.5 -5.5s-18 -9.83398 -23 -18.501s-8.33301 -20.834 -10 -36.501s-2.5 -35.167 -2.5 -58.5v-266h-160z" />
    <glyph glyph-name="o" unicode="o" horiz-adv-x="573" 
d="M286 -8c-45.333 0 -83 2.66699 -113 8s-53.667 14 -71 26s-30 28 -38 48s-13.167 45 -15.5 75s-3.5 65.667 -3.5 107s1.16699 76.833 3.5 106.5s7.5 54.5 15.5 74.5s20.667 36 38 48s41 20.5 71 25.5s67.667 7.5 113 7.5c46 0 84 -2.5 114 -7.5s53.667 -13.5 71 -25.5
s30 -28 38 -48s13.167 -44.833 15.5 -74.5s3.5 -65.167 3.5 -106.5s-1.16699 -77 -3.5 -107s-7.5 -55 -15.5 -75s-20.667 -36 -38 -48s-41 -20.667 -71 -26s-68 -8 -114 -8zM286 114c20 0 35.667 1.33301 47 4s19.333 8.66699 24 18s7.5 23.666 8.5 42.999s1.5 45 1.5 77
s-0.5 57.333 -1.5 76s-3.83301 32.667 -8.5 42s-12.667 15.333 -24 18s-27 4 -47 4s-35.5 -1.33301 -46.5 -4s-18.833 -8.66699 -23.5 -18s-7.5 -23.333 -8.5 -42s-1.5 -44 -1.5 -76s0.5 -57.667 1.5 -77s3.83301 -33.666 8.5 -42.999s12.5 -15.333 23.5 -18
s26.5 -4 46.5 -4z" />
    <glyph glyph-name="p" unicode="p" horiz-adv-x="585" 
d="M62 -199l-0.00195312 709h152l4 -62h9c10.667 19.333 23.5 34 38.5 44s31.833 16.833 50.5 20.5s37.334 5.5 56.001 5.5c30 0 55.5 -4 76.5 -12s38.333 -21.833 52 -41.5s23.667 -46.5 30 -80.5s9.5 -76.667 9.5 -128c0 -50.667 -3.16699 -93 -9.5 -127
s-16.166 -61 -29.499 -81s-30.5 -34.333 -51.5 -43s-46.5 -13 -76.5 -13c-19.333 0 -38 1.66699 -56 5s-34.167 9.5 -48.5 18.5s-26.833 21.833 -37.5 38.5h-9v-253h-160zM299.998 124c18 0 32.332 1.33398 42.999 4.00098s18.5 8.16699 23.5 16.5s8.33301 21.166 10 38.499
s2.5 41.333 2.5 72s-0.833008 54.834 -2.5 72.501s-5 30.667 -10 39s-12.833 13.666 -23.5 15.999s-25 3.5 -43 3.5c-19.333 0 -34.166 -2.5 -44.499 -7.5s-18.166 -13.5 -23.499 -25.5c-4 -10.667 -6.66699 -24.167 -8 -40.5s-2 -35.5 -2 -57.5
c0 -22.667 0.666992 -42 2 -58s3.66602 -28.667 6.99902 -38c5.33301 -13.333 13.333 -22.5 24 -27.5s25.667 -7.5 45 -7.5z" />
    <glyph glyph-name="q" unicode="q" horiz-adv-x="585" 
d="M362 -199l0.00585938 253h-8c-10.667 -16.667 -23.334 -29.5 -38.001 -38.5s-30.834 -15.167 -48.501 -18.5s-36.5 -5 -56.5 -5c-30 0 -55.5 4.16699 -76.5 12.5s-38.167 22.5 -51.5 42.5s-23 46.833 -29 80.5s-9 76.167 -9 127.5s3.16699 94 9.5 128
s16.166 60.833 29.499 80.5s30.666 33.667 51.999 42s46.666 12.5 75.999 12.5c20 0 39.167 -1.83301 57.5 -5.5s35.166 -10.5 50.499 -20.5s28 -24.667 38 -44h8l4 62h153v-709h-161zM284.006 124c20 0 35.3311 2.49902 45.998 7.49902s18.334 13.833 23.001 26.5
c4 9.33301 6.5 22 7.5 38s1.5 35.667 1.5 59c0 24.667 -0.666992 45.5 -2 62.5s-4.66602 30.833 -9.99902 41.5c-5.33301 10 -13 17 -23 21s-24.333 6 -43 6c-18 0 -32.333 -1.16699 -43 -3.5s-18.5 -7.66602 -23.5 -15.999s-8.16699 -21.333 -9.5 -39
s-2 -41.834 -2 -72.501s0.666992 -54.667 2 -72s4.5 -30.166 9.5 -38.499s12.833 -13.833 23.5 -16.5s25 -4 43 -4z" />
    <glyph glyph-name="r" unicode="r" horiz-adv-x="410" 
d="M62 0l0.000976562 510.001h152l4 -87h9c9.33301 24.667 21.166 44 35.499 58s31.833 23.667 52.5 29s44.667 8 72 8v-147c-42 0 -75 -5.33301 -99 -16s-41 -28.834 -51 -54.501s-15 -61.5 -15 -107.5v-193h-160z" />
    <glyph glyph-name="s" unicode="s" horiz-adv-x="500" 
d="M260 -8c-21.333 0 -44.5039 0.666992 -69.5039 2s-49.333 3 -73 5s-44.834 4.33301 -63.501 7v113c10.667 -0.666992 22.834 -1.66699 36.501 -3s27.834 -2.33301 42.501 -3s28.834 -1.16699 42.501 -1.5s26.167 -0.5 37.5 -0.5c31.333 0 53.833 1 67.5 3
s22.334 6.16699 26.001 12.5s5.5 14.833 5.5 25.5s-1.16699 18.334 -3.5 23.001s-7 8 -14 10s-18.833 4 -35.5 6l-119 15c-28.667 4 -50.334 12.5 -65.001 25.5s-24.5 30.667 -29.5 53s-7.5 48.5 -7.5 78.5c0 35.333 5.33301 63.166 16 83.499s25.5 35.666 44.5 45.999
s41.667 17.166 68 20.499s54.5 5 84.5 5c21.333 0 43.333 -0.666992 66 -2s44.334 -3.16602 65.001 -5.49902s37.667 -4.83301 51 -7.5v-112l-52.5 4c-18.333 1.33301 -35.833 2.33301 -52.5 3s-30.667 1 -42 1c-26.667 0 -47.167 -0.666992 -61.5 -2
s-24 -4.66602 -29 -9.99902s-7.5 -14 -7.5 -26c0 -9.33301 0.833008 -16.5 2.5 -21.5s5.83398 -8.5 12.501 -10.5s17 -4 31 -6l120 -15c22.667 -2.66699 42 -8 58 -16s28.167 -22.333 36.5 -43s12.5 -51.667 12.5 -93c0 -37.333 -4.83301 -66.833 -14.5 -88.5
s-23.5 -38 -41.5 -49s-39.167 -18.167 -63.5 -21.5s-51.5 -5 -81.5 -5z" />
    <glyph glyph-name="t" unicode="t" horiz-adv-x="407" 
d="M113 0v388h-93v122h93v148h162v-148h111v-122h-111v-388h-162z" />
    <glyph glyph-name="u" unicode="u" horiz-adv-x="591" 
d="M217 -8c-34 0 -61.332 4.32617 -81.999 12.9932s-36.334 21.334 -47.001 38.001s-17.667 37.334 -21 62.001s-5 53.334 -5 86.001v319h160v-270c0 -27.333 0.833008 -48.833 2.5 -64.5s4.83398 -27.167 9.50098 -34.5s11.667 -11.833 21 -13.5s22 -2.5 38 -2.5
c17.333 0 31.166 1.83301 41.499 5.5s17.833 9.83398 22.5 18.501s7.83398 20.834 9.50098 36.501s2.5 35.167 2.5 58.5v266h161v-510h-153l-4 62h-9c-9.33301 -17.333 -21.333 -31.166 -36 -41.499s-31.334 -17.666 -50.001 -21.999s-39 -6.5 -61 -6.5z" />
    <glyph glyph-name="v" unicode="v" horiz-adv-x="550" 
d="M167 0l-154 510h164l95 -367h10l92 367h162l-153 -510h-216z" />
    <glyph glyph-name="w" unicode="w" horiz-adv-x="843" 
d="M148 0l-130 510h160l73 -349h9l89 349h148l90 -349h10l71 349h156l-130 -510h-197l-71 267h-10l-70 -267h-198z" />
    <glyph glyph-name="x" unicode="x" horiz-adv-x="568" 
d="M12 0l171 259l-165 251h177l90 -145h7l89 145h167l-164 -250l171 -260h-176l-97 154h-8l-94 -154h-168z" />
    <glyph glyph-name="y" unicode="y" horiz-adv-x="591" 
d="M277 -206c-20.667 0 -41.999 0.500977 -63.999 1.50098s-42.833 2.5 -62.5 4.5s-36.834 4 -51.501 6v111c20.667 0 39.167 -0.166992 55.5 -0.5s31.333 -0.5 45 -0.5h38.5c31.333 0 56 1.33301 74 4s31 7.66699 39 15s13 18.5 15 33.5s3 34.5 3 58.5v41h-8
c-9.33301 -16 -21 -28.833 -35 -38.5s-30.167 -16.667 -48.5 -21s-38.5 -6.5 -60.5 -6.5c-34 0 -61.333 4.16699 -82 12.5s-36.334 21 -47.001 38s-17.667 37.667 -21 62s-5 52.833 -5 85.5v310h160v-261c0 -27.333 0.833008 -48.833 2.5 -64.5
s4.83398 -27.167 9.50098 -34.5s11.667 -12 21 -14s22 -3 38 -3c17.333 0 31.166 1.83301 41.499 5.5s17.833 10 22.5 19s7.83398 21.333 9.50098 37s2.5 35.167 2.5 58.5v257h161v-453c0 -44.667 -2.33301 -83.5 -7 -116.5s-15 -60.333 -31 -82
s-41.167 -37.834 -75.5 -48.501s-80.833 -16 -139.5 -16z" />
    <glyph glyph-name="z" unicode="z" horiz-adv-x="526" 
d="M43 0v114l235 274h-223v122h426v-114l-234 -274h236v-122h-440z" />
    <glyph glyph-name="braceleft" unicode="{" horiz-adv-x="365" 
d="M239 -150c-16 7.33301 -31.833 17.3311 -47.5 29.998s-29.667 27.334 -42 44.001s-22.166 34.834 -29.499 54.501s-11 40.167 -11 61.5v112c0 17.333 -2.16699 34 -6.5 50s-12.666 29.5 -24.999 40.5s-30.5 17.5 -54.5 19.5v68c24 2 42.167 8.5 54.5 19.5
s20.666 24.667 24.999 41s6.5 33.166 6.5 50.499v112c0 21.333 3.66699 41.666 11 60.999s17.166 37.5 29.499 54.5s26.333 31.833 42 44.5s31.5 22.667 47.5 30h106c-11.333 -10 -22.5 -21.667 -33.5 -35s-21 -27.666 -30 -42.999s-16.167 -31.333 -21.5 -48s-8 -33 -8 -49
v-122c0 -38 -9.16699 -69.833 -27.5 -95.5s-48.833 -42.5 -91.5 -50.5v-7c42.667 -8 73.167 -24.833 91.5 -50.5s27.5 -57.5 27.5 -95.5v-122c0 -16 2.66699 -32.333 8 -49s12.5 -32.667 21.5 -48s19 -29.666 30 -42.999s22.167 -25 33.5 -35h-106z" />
    <glyph glyph-name="bar" unicode="|" horiz-adv-x="297" 
d="M79 -161v904h138v-904h-138z" />
    <glyph glyph-name="braceright" unicode="}" horiz-adv-x="365" 
d="M19 -150c11.333 10 22.5 21.6689 33.5 35.002s21 27.666 30 42.999s16.167 31.333 21.5 48s8 33 8 49v122c0 38 9.16699 69.833 27.5 95.5s48.833 42.5 91.5 50.5v7c-42.667 8 -73.167 24.833 -91.5 50.5s-27.5 57.5 -27.5 95.5v122c0 16 -2.66699 32.333 -8 49
s-12.5 32.667 -21.5 48s-19 29.666 -30 42.999s-22.167 25 -33.5 35h106c16.667 -7.33301 32.667 -17.333 48 -30s29.166 -27.5 41.499 -44.5s22.166 -35.167 29.499 -54.5s11 -39.666 11 -60.999v-112c0 -17.333 2.16699 -34.166 6.5 -50.499s12.5 -30 24.5 -41
s30.333 -17.5 55 -19.5v-68c-24.667 -2 -43 -8.5 -55 -19.5s-20.167 -24.5 -24.5 -40.5s-6.5 -32.667 -6.5 -50v-112c0 -21.333 -3.66699 -41.833 -11 -61.5s-17.166 -37.834 -29.499 -54.501s-26.166 -31.334 -41.499 -44.001s-31.333 -22.667 -48 -30h-106z" />
    <glyph glyph-name="asciitilde" unicode="~" horiz-adv-x="497" 
d="M52 227c0 30 1.5 55.5 4.5 76.5s11.167 37.167 24.5 48.5s34.666 17 63.999 17c20 0 40.167 -2.16699 60.5 -6.5l57.5 -12.5l41.5 -9.5c13 -3 24.167 -4.5 33.5 -4.5c13.333 0 21 3.16699 23 9.5s3 17.833 3 34.5h79c0 -30 -1.5 -55.5 -4.5 -76.5
s-10.833 -37.167 -23.5 -48.5s-34 -17 -64 -17c-20 0 -40.167 2.16699 -60.5 6.5l-57.5 12.5c-14 3.33301 -27.667 6.33301 -41 9s-24.666 4 -33.999 4c-12.667 0 -20 -3.16699 -22 -9.5s-3 -17.5 -3 -33.5h-81z" />
    <glyph glyph-name="uni00A0" unicode="&#xa0;" horiz-adv-x="253" 
 />
    <glyph glyph-name="exclamdown" unicode="&#xa1;" horiz-adv-x="314" 
d="M64 -178v43.999c0 9.33301 0.666992 24.166 2 44.499s3 44.333 5 72s4.5 57.834 7.5 90.501l9.5 101.5c3.33301 35 6.33301 69.167 9 102.5h120l10 -102.5c3.33301 -35 6.33301 -68.833 9 -101.5l7.5 -90.5c2.33301 -27.667 4 -51.667 5 -72s1.5 -35.166 1.5 -44.499v-44
h-186zM72 364.999v145h171v-145h-171z" />
    <glyph glyph-name="cent" unicode="&#xa2;" horiz-adv-x="468" 
d="M262 67c-44 0 -79.8311 5.50098 -107.498 16.501s-49 27.833 -64 50.5s-25.5 51.167 -31.5 85.5s-9 75.166 -9 122.499c0 33.333 1.66699 64 5 92s9.16602 53.333 17.499 76s20.166 42 35.499 58s34.833 28.333 58.5 37s52.5 13 86.5 13c19.333 0 37.5 -0.333008 54.5 -1
s34.5 -2.16699 52.5 -4.5s37.333 -6.16602 58 -11.499v-118c-12.667 2 -29 3.83301 -49 5.5s-38.667 2.5 -56 2.5c-22 0 -39.5 -1.83301 -52.5 -5.5s-22.833 -10.834 -29.5 -21.501s-11.167 -25.834 -13.5 -45.501s-3.5 -45.167 -3.5 -76.5c0 -32 1.16699 -57.833 3.5 -77.5
s7 -34.667 14 -45s17 -17.166 30 -20.499s30.5 -5 52.5 -5c16.667 0 35.167 0.666992 55.5 2s37.833 3.33301 52.5 6v-118c-12 -3.33301 -25.167 -6.33301 -39.5 -9s-31 -4.66699 -50 -6s-42.5 -2 -70.5 -2zM213.002 -7.99902v704h118v-704h-118z" />
    <glyph glyph-name="sterling" unicode="&#xa3;" horiz-adv-x="604" 
d="M44 0l0.00195312 134h74v156h-74v127h75v10c0 49.333 4 91.166 12 125.499s21.833 62 41.5 83s47.167 36.333 82.5 46s80.333 14.5 135 14.5c28 0 57.167 -1.66699 87.5 -5s54.833 -7.33301 73.5 -12v-126c-14 2 -28.5 3.66699 -43.5 5s-29.167 2.33301 -42.5 3
s-24 1 -32 1c-30.667 0 -55.334 -1.66699 -74.001 -5s-32.834 -9.66602 -42.501 -18.999s-16.167 -23 -19.5 -41s-5 -41.333 -5 -70v-10h184v-127h-184v-156h271v-134h-519z" />
    <glyph glyph-name="currency" unicode="&#xa4;" horiz-adv-x="680" 
d="M127 -1l-81 82.001l73 74c-8.66699 20.667 -14.334 46.667 -17.001 78s-4 68.666 -4 111.999c0 42.667 1.16699 79.5 3.5 110.5s7.83301 57.167 16.5 78.5l-73 73l82 83l85 -85c16 4.66699 34.667 7.66699 56 9s45.333 2 72 2c27.333 0 51.5 -0.833008 72.5 -2.5
s39.833 -4.5 56.5 -8.5l85 85l82 -82l-74 -74c8.66699 -21.333 14.167 -47.333 16.5 -78s3.5 -67.667 3.5 -111s-1.16699 -80.5 -3.5 -111.5s-8.16602 -57.167 -17.499 -78.5l75 -74l-83 -83l-85 85c-16.667 -3.33301 -35.5 -6 -56.5 -8s-44.833 -3 -71.5 -3
s-50.667 1 -72 3s-40.333 4.66699 -57 8zM340 194.001c20 0 35.5 1.5 46.5 4.5s19 9.33301 24 19s8 24.834 9 45.501s1.5 48 1.5 82c0 34.667 -0.5 62 -1.5 82s-4 34.833 -9 44.5s-13 16 -24 19s-26.5 4.5 -46.5 4.5s-35.667 -1.5 -47 -4.5s-19.166 -9.33301 -23.499 -19
s-7.16602 -24.5 -8.49902 -44.5s-2 -47.333 -2 -82c0 -34 0.666992 -61.333 2 -82s4.16602 -35.834 8.49902 -45.501s12.166 -16 23.499 -19s27 -4.5 47 -4.5z" />
    <glyph glyph-name="yen" unicode="&#xa5;" horiz-adv-x="630" 
d="M227 0v210h-179v84h162l-191 394h175l119 -289h7l120 289h170l-191 -394h161v-84h-179v-210h-174zM48 367v84h532v-84h-532z" />
    <glyph glyph-name="brokenbar" unicode="&#xa6;" horiz-adv-x="297" 
d="M79 390v353h138v-353h-138zM79 -161v353h138v-353h-138z" />
    <glyph glyph-name="section" unicode="&#xa7;" horiz-adv-x="691" 
d="M329 -171c-28.667 0 -55.999 0.832031 -81.999 2.49902s-48.833 3.66699 -68.5 6s-34.834 4.83301 -45.501 7.5v121c10.667 -0.666992 24.5 -1.66699 41.5 -3s36 -2.33301 57 -3s42.167 -1 63.5 -1c29.333 0 51.666 0.833008 66.999 2.5s25.666 5.33398 30.999 11.001
s8 14.5 8 26.5c0 10.667 -1.16699 18.5 -3.5 23.5s-6.83301 9.16699 -13.5 12.5s-17.334 7.33301 -32.001 12l-175 51c-22.667 7.33301 -42.667 14.666 -60 21.999s-31.5 16.833 -42.5 28.5s-19.333 27.5 -25 47.5s-8.5 45.667 -8.5 77c0 24.667 1.33301 46.834 4 66.501
s7.66699 36.667 15 51s17.5 26.333 30.5 36s29.833 16.5 50.5 20.5c-4.66699 11.333 -7.5 24 -8.5 38s-1.5 29 -1.5 45c0 35.333 5.66699 63.833 17 85.5s27.333 38.334 48 50.001s45 19.667 73 24s59 6.5 93 6.5c28.667 0 55.834 -0.833008 81.501 -2.5
s48.334 -3.66699 68.001 -6s35.167 -4.83301 46.5 -7.5v-121c-17.333 1.33301 -41 2.66602 -71 3.99902s-60.667 2 -92 2c-29.333 0 -51.666 -0.833008 -66.999 -2.5s-25.5 -5.16699 -30.5 -10.5s-7.5 -14 -7.5 -26c0 -10.667 1 -18.667 3 -24s6.66699 -9.66602 14 -12.999
s19 -7.33301 35 -12l175 -53c22 -6.66699 41.167 -13.667 57.5 -21s30 -16.833 41 -28.5s19.333 -27.334 25 -47.001s8.5 -45.167 8.5 -76.5c0 -24.667 -1.5 -46.667 -4.5 -66s-8 -36.333 -15 -51s-17.167 -26.834 -30.5 -36.501s-30.333 -16.5 -51 -20.5
c4.66699 -11.333 7.83398 -24 9.50098 -38s2.5 -28.667 2.5 -44c0 -35.333 -5.83301 -64 -17.5 -86s-27.834 -38.667 -48.501 -50s-45 -19.166 -73 -23.499s-58.667 -6.5 -92 -6.5zM193.001 295.999c0 -16 1.33496 -28.3311 4.00195 -36.998s7.5 -15.334 14.5 -20.001
s17.5 -9 31.5 -13l184 -55c9.33301 -2 17.5 -4 24.5 -6s12.5 -3 16.5 -3c10 0 17.5 5 22.5 15s7.5 27 7.5 51c0 16 -1.33301 28.333 -4 37s-7.33398 15.167 -14.001 19.5s-16 8.16602 -28 11.499l-186 55c-10 2.66699 -18.5 5.16699 -25.5 7.5s-12.833 3.5 -17.5 3.5
c-10.667 0 -18.334 -5 -23.001 -15s-7 -27 -7 -51z" />
    <glyph glyph-name="dieresis" unicode="&#xa8;" horiz-adv-x="344" 
d="M0 595v108h131v-108h-131zM213 595v108h131v-108h-131z" />
    <glyph glyph-name="copyright" unicode="&#xa9;" horiz-adv-x="747" 
d="M373 -8c-56 0 -102.333 2.66699 -139 8s-65.667 14.833 -87 28.5s-36.833 33.667 -46.5 60s-15.834 60.333 -18.501 102s-4 92.834 -4 153.501s1.33301 111.834 4 153.501s8.83398 75.667 18.501 102s25.167 46.333 46.5 60s50.333 23.167 87 28.5s83 8 139 8
c57.333 0 104.333 -2.66699 141 -8s65.5 -14.833 86.5 -28.5s36.5 -33.667 46.5 -60s16.333 -60.333 19 -102s4 -92.834 4 -153.501s-1.33301 -111.834 -4 -153.501s-9 -75.667 -19 -102s-25.5 -46.333 -46.5 -60s-49.833 -23.167 -86.5 -28.5s-83.667 -8 -141 -8zM395 154
c-34 0 -61.502 3.16699 -82.502 9.5s-36.667 16.833 -47 31.5s-17.333 34.167 -21 58.5s-5.5 54.166 -5.5 89.499s1.83301 65 5.5 89s10.667 43.333 21 58s26 25.334 47 32.001s48.5 10 82.5 10c16.667 0 33.834 -0.833008 51.501 -2.5s32.167 -4.16699 43.5 -7.5v-69
c-12 1.33301 -25 2.33301 -39 3s-25 1 -33 1c-20 0 -35.5 -1 -46.5 -3s-19 -6.66699 -24 -14s-8.16699 -18.666 -9.5 -33.999s-2 -36.333 -2 -63s0.666992 -47.834 2 -63.501s4.5 -27 9.5 -34s13 -11.667 24 -14s26.5 -3.5 46.5 -3.5c12.667 0 25.834 0.5 39.501 1.5
s25.167 2.16699 34.5 3.5v-72c-12.667 -2 -28 -3.66699 -46 -5s-35 -2 -51 -2zM372.998 52c46 0 83.5 1.16699 112.5 3.5s51.667 8.16602 68 17.499s28.166 24.5 35.499 45.5s11.833 49.667 13.5 86s2.5 82.833 2.5 139.5s-0.833008 103.167 -2.5 139.5
s-6.16699 64.833 -13.5 85.5s-19.166 35.667 -35.499 45s-39 15.166 -68 17.499s-66.5 3.5 -112.5 3.5c-45.333 0 -82.5 -1.16699 -111.5 -3.5s-51.667 -8.16602 -68 -17.499s-28.333 -24.333 -36 -45s-12.334 -49.167 -14.001 -85.5s-2.5 -82.833 -2.5 -139.5
s0.833008 -103.167 2.5 -139.5s6.33398 -65 14.001 -86s19.667 -36.167 36 -45.5s39 -15.166 68 -17.499s66.167 -3.5 111.5 -3.5z" />
    <glyph glyph-name="ordfeminine" unicode="&#xaa;" horiz-adv-x="418" 
d="M140 313c-24 0 -43.6689 3.83301 -59.002 11.5s-26.833 19.834 -34.5 36.501s-11.5 38 -11.5 64c0 28 3.16699 50.167 9.5 66.5s17.833 28.166 34.5 35.499s40.334 11 71.001 11c7.33301 0 16.833 -0.166992 28.5 -0.5s24.334 -0.833008 38.001 -1.5
s26.167 -1.33398 37.5 -2.00098v15c0 18 -2 30.833 -6 38.5s-12.5 12.5 -25.5 14.5s-33.5 3 -61.5 3c-7.33301 0 -16 -0.166992 -26 -0.5s-21.667 -0.833008 -35 -1.5s-28 -1.66699 -44 -3v83c21.333 4 44.833 7.16699 70.5 9.5s50.5 3.5 74.5 3.5c39.333 0 70.5 -3 93.5 -9
s40 -15.5 51 -28.5s18.167 -29.167 21.5 -48.5s5 -41.666 5 -66.999v-226h-114l-4 43h-6c-9.33301 -14 -20 -24.333 -32 -31s-24.5 -11 -37.5 -13s-25.833 -3 -38.5 -3zM195.998 395c8.66699 0 16.167 0.498047 22.5 1.49805s11.833 3 16.5 6s8.66699 6.83301 12 11.5
c2.66699 4.66699 4.5 10.834 5.5 18.501s1.5 17.167 1.5 28.5v17h-66c-18 0 -29.5 -2.66699 -34.5 -8s-7.5 -16.666 -7.5 -33.999c0 -16.667 2.66699 -27.667 8 -33s19.333 -8 42 -8z" />
    <glyph glyph-name="guillemotleft" unicode="&#xab;" horiz-adv-x="503" 
d="M155 99l-132 205l132 206h103l-105 -206l105 -205h-103zM348 99l-132 205l132 206h103l-105 -206l105 -205h-103z" />
    <glyph glyph-name="logicalnot" unicode="&#xac;" horiz-adv-x="539" 
d="M353 53v142h-283v117h399v-259h-116z" />
    <glyph glyph-name="uni00AD" unicode="&#xad;" horiz-adv-x="373" 
d="M50 220v129h273v-129h-273z" />
    <glyph glyph-name="registered" unicode="&#xae;" horiz-adv-x="747" 
d="M373 -8c-56 0 -102.333 2.66699 -139 8s-65.667 14.833 -87 28.5s-36.833 33.667 -46.5 60s-15.834 60.333 -18.501 102s-4 92.834 -4 153.501s1.33301 111.834 4 153.501s8.83398 75.667 18.501 102s25.167 46.333 46.5 60s50.333 23.167 87 28.5s83 8 139 8
c57.333 0 104.333 -2.66699 141 -8s65.5 -14.833 86.5 -28.5s36.5 -33.667 46.5 -60s16.333 -60.333 19 -102s4 -92.834 4 -153.501s-1.33301 -111.834 -4 -153.501s-9 -75.667 -19 -102s-25.5 -46.333 -46.5 -60s-49.833 -23.167 -86.5 -28.5s-83.667 -8 -141 -8zM373 52
c46 0 83.5 1.16699 112.5 3.5s51.667 8.16602 68 17.499s28.166 24.5 35.499 45.5s11.833 49.667 13.5 86s2.5 82.833 2.5 139.5s-0.833008 103.167 -2.5 139.5s-6.16699 64.833 -13.5 85.5s-19.166 35.667 -35.499 45s-39 15.166 -68 17.499s-66.5 3.5 -112.5 3.5
c-45.333 0 -82.5 -1.16699 -111.5 -3.5s-51.667 -8.16602 -68 -17.499s-28.333 -24.333 -36 -45s-12.334 -49.167 -14.001 -85.5s-2.5 -82.833 -2.5 -139.5s0.833008 -103.167 2.5 -139.5s6.33398 -65 14.001 -86s19.667 -36.167 36 -45.5s39 -15.166 68 -17.499
s66.167 -3.5 111.5 -3.5zM229 158v370h177c35.333 0 61.333 -4.66699 78 -14s27.5 -23 32.5 -41s7.5 -39.333 7.5 -64c0 -22.667 -2.83301 -44 -8.5 -64s-19.167 -34.333 -40.5 -43l56 -144h-98l-46 131h-65v-131h-93zM322 360l51.001 -0.00292969c18 0 31 1.33301 39 4
s13 7.33398 15 14.001s3 16.667 3 30c0 12.667 -1 22.334 -3 29.001s-6.83301 11.334 -14.5 14.001s-19.834 4 -36.501 4h-54v-95z" />
    <glyph glyph-name="macron" unicode="&#xaf;" horiz-adv-x="330" 
d="M0 595v93h330v-93h-330z" />
    <glyph glyph-name="degree" unicode="&#xb0;" horiz-adv-x="396" 
d="M198 397c-34 0 -61 2.33301 -81 7s-34.667 12.834 -44 24.501s-15.333 27 -18 46s-4 42.833 -4 71.5s1.33301 52.5 4 71.5s8.66699 34.333 18 46s24 20 44 25s47 7.5 81 7.5c34.667 0 61.834 -2.5 81.501 -7.5s34.167 -13.333 43.5 -25s15.333 -27 18 -46
s4 -42.833 4 -71.5s-1.33301 -52.5 -4 -71.5s-8.66699 -34.333 -18 -46s-23.833 -19.834 -43.5 -24.501s-46.834 -7 -81.501 -7zM198 466c17.333 0 29.5 1.83496 36.5 5.50195s11.167 11.334 12.5 23.001s2 28.834 2 51.501c0 23.333 -0.666992 40.666 -2 51.999
s-5.5 19 -12.5 23s-19.167 6 -36.5 6c-16.667 0 -28.667 -2 -36 -6s-11.833 -11.833 -13.5 -23.5s-2.5 -28.834 -2.5 -51.501s0.833008 -39.834 2.5 -51.501s6.16699 -19.334 13.5 -23.001s19.333 -5.5 36 -5.5z" />
    <glyph glyph-name="plusminus" unicode="&#xb1;" horiz-adv-x="540" 
d="M211 187v143h-141v115h141v142h117v-142h142v-115h-142v-143h-117zM70 0v115h400v-115h-400z" />
    <glyph glyph-name="uni00B2" unicode="&#xb2;" horiz-adv-x="352" 
d="M32 420l0.00195312 66c0 22 1.16699 41 3.5 57s8 29.833 17 41.5s23.833 21.834 44.5 30.501l84 33c11.333 4.66699 19.166 8.5 23.499 11.5s7.16602 7 8.49902 12s2 11.833 2 20.5c0 11.333 -1.66699 19.5 -5 24.5s-9.5 8.16699 -18.5 9.5s-21.833 2 -38.5 2
c-12 0 -28.5 -0.666992 -49.5 -2s-42.167 -3.33301 -63.5 -6v72c18.667 3.33301 40.834 6.16602 66.501 8.49902s49.5 3.5 71.5 3.5c25.333 0 48.666 -2.16699 69.999 -6.5s38.333 -14 51 -29s19 -38.5 19 -70.5c0 -22.667 -2.33301 -41.167 -7 -55.5s-12.167 -26 -22.5 -35
s-24.5 -17.167 -42.5 -24.5l-94 -36c-6 -2 -10.5 -4.33301 -13.5 -7s-5 -5.66699 -6 -9s-1.5 -8 -1.5 -14v-20h187v-77h-286z" />
    <glyph glyph-name="uni00B3" unicode="&#xb3;" horiz-adv-x="349" 
d="M157 416c-18.667 0 -39.835 0.995117 -63.502 2.99512s-44.5 4.66699 -62.5 8v71c20 -2 40.833 -3.66699 62.5 -5s39.167 -2 52.5 -2c24.667 0 41.834 2.16699 51.501 6.5s14.5 15.5 14.5 33.5c0 19.333 -3.5 31.5 -10.5 36.5s-20.167 7.5 -39.5 7.5h-65v74h66
c10.667 0 19.5 1 26.5 3s12 5.83301 15 11.5s4.5 14.167 4.5 25.5c0 12 -1.83301 20.667 -5.5 26s-10.5 8.83301 -20.5 10.5s-24 2.5 -42 2.5c-16 0 -34.167 -0.666992 -54.5 -2s-38.166 -3 -53.499 -5v72c17.333 3.33301 37.833 6 61.5 8s44.5 3 62.5 3
c39.333 0 70.333 -3.66699 93 -11s38.667 -18.166 48 -32.499s14 -33.166 14 -56.499c0 -27.333 -5.66699 -47.666 -17 -60.999s-28.333 -22.666 -51 -27.999v-3c23.333 -4.66699 41 -13.167 53 -25.5s18 -34.166 18 -65.499c0 -22 -4.16699 -40.833 -12.5 -56.5
s-23.833 -27.667 -46.5 -36s-55.667 -12.5 -99 -12.5z" />
    <glyph glyph-name="acute" unicode="&#xb4;" horiz-adv-x="247" 
d="M0 576v5l92 140h155v-5l-133 -140h-114z" />
    <glyph glyph-name="uni00B5" unicode="&#xb5;" horiz-adv-x="591" 
d="M62 -189l-0.00195312 698.997h160v-270c0 -27.333 0.833008 -48.833 2.5 -64.5s4.83398 -27.167 9.50098 -34.5s11.667 -11.833 21 -13.5s22 -2.5 38 -2.5c17.333 0 31.166 1.83301 41.499 5.5s17.833 9.83398 22.5 18.501s7.83398 20.834 9.50098 36.501
s2.5 35.167 2.5 58.5v266h161v-510h-153l-4 62h-9c-8 -14 -18 -26 -30 -36s-26.833 -17.667 -44.5 -23s-39.167 -8 -64.5 -8c-16.667 0 -33.167 3.33301 -49.5 10s-31.666 16.834 -45.999 30.501s-27.5 30.167 -39.5 49.5l149 -50h-17v-224h-160z" />
    <glyph glyph-name="paragraph" unicode="&#xb6;" horiz-adv-x="637" 
d="M292 -144v366c-46.667 0 -85 1.66699 -115 5s-53.833 9.5 -71.5 18.5s-30.5 22 -38.5 39s-13.167 39.333 -15.5 67s-3.5 61.834 -3.5 102.501s1.16699 74.834 3.5 102.501s7.5 50.167 15.5 67.5s20.833 30.666 38.5 39.999s41.5 15.666 71.5 18.999s68.333 5 115 5h104
v-832h-104zM462 -144v832h103v-832h-103z" />
    <glyph glyph-name="periodcentered" unicode="&#xb7;" horiz-adv-x="299" 
d="M64 227v145h171v-145h-171z" />
    <glyph glyph-name="cedilla" unicode="&#xb8;" horiz-adv-x="184" 
d="M0 -190v5l80 203h104v-5l-38 -203h-146z" />
    <glyph glyph-name="uni00B9" unicode="&#xb9;" horiz-adv-x="230" 
d="M83 420v281l-72 -31v78l103 51h68v-379h-99z" />
    <glyph glyph-name="ordmasculine" unicode="&#xba;" horiz-adv-x="436" 
d="M218 313c-39.333 0 -70.833 3 -94.5 9s-41.167 16 -52.5 30s-19 33.5 -23 58.5s-6 56.167 -6 93.5s2 68.5 6 93.5s11.667 44.667 23 59s28.833 24.5 52.5 30.5s55.167 9 94.5 9s70.666 -3 93.999 -9s40.833 -16.167 52.5 -30.5s19.334 -34 23.001 -59
s5.5 -56.167 5.5 -93.5s-1.83301 -68.5 -5.5 -93.5s-11.334 -44.5 -23.001 -58.5s-29.167 -24 -52.5 -30s-54.666 -9 -93.999 -9zM218 403c14 0 25 1 33 3s13.667 6.33301 17 13s5.33301 16.667 6 30s1 31.666 1 54.999s-0.333008 41.666 -1 54.999s-2.66699 23.5 -6 30.5
s-9 11.5 -17 13.5s-19 3 -33 3c-14.667 0 -25.834 -1 -33.501 -3s-13.167 -6.5 -16.5 -13.5s-5.33301 -17.167 -6 -30.5s-1 -31.666 -1 -54.999s0.333008 -41.666 1 -54.999s2.66699 -23.333 6 -30s8.83301 -11 16.5 -13s18.834 -3 33.501 -3z" />
    <glyph glyph-name="guillemotright" unicode="&#xbb;" horiz-adv-x="502" 
d="M52 99l104 205l-104 206h102l132 -206l-132 -205h-102zM244 99l105 205l-105 206h103l132 -206l-132 -205h-103z" />
    <glyph glyph-name="onequarter" unicode="&#xbc;" horiz-adv-x="701" 
d="M83 308v281l-72 -31v78l103 51h68v-379h-99zM36 0l449 688h101l-449 -688h-101zM537 0v75h-184v67l125 237h110l-130 -228h83l30 89h66v-89h47v-76h-47v-75h-100z" />
    <glyph glyph-name="onehalf" unicode="&#xbd;" horiz-adv-x="744" 
d="M83 308v281l-72 -31v78l103 51h68v-379h-99zM36 0l449 688h101l-449 -688h-101zM424 0l0.00195312 66c0 22 1.16699 41 3.5 57s8 29.833 17 41.5s23.833 21.834 44.5 30.501l84 33c11.333 4.66699 19.166 8.5 23.499 11.5s7.16602 7 8.49902 12s2 11.833 2 20.5
c0 11.333 -1.66699 19.5 -5 24.5s-9.5 8.16699 -18.5 9.5s-21.833 2 -38.5 2c-12 0 -28.5 -0.666992 -49.5 -2s-42.167 -3.33301 -63.5 -6v72c18.667 3.33301 40.834 6.16602 66.501 8.49902s49.5 3.5 71.5 3.5c25.333 0 48.666 -2.16699 69.999 -6.5s38.333 -14 51 -29
s19 -38.5 19 -70.5c0 -22.667 -2.33301 -41.167 -7 -55.5s-12.167 -26 -22.5 -35s-24.5 -17.167 -42.5 -24.5l-94 -36c-6 -2 -10.5 -4.33301 -13.5 -7s-5 -5.66699 -6 -9s-1.5 -8 -1.5 -14v-20h187v-77h-286z" />
    <glyph glyph-name="threequarters" unicode="&#xbe;" horiz-adv-x="820" 
d="M157 304c-18.667 0 -39.835 0.995117 -63.502 2.99512s-44.5 4.66699 -62.5 8v71c20 -2 40.833 -3.66699 62.5 -5s39.167 -2 52.5 -2c24.667 0 41.834 2.16699 51.501 6.5s14.5 15.5 14.5 33.5c0 19.333 -3.5 31.5 -10.5 36.5s-20.167 7.5 -39.5 7.5h-65v74h66
c10.667 0 19.5 1 26.5 3s12 5.83301 15 11.5s4.5 14.167 4.5 25.5c0 12 -1.83301 20.667 -5.5 26s-10.5 8.83301 -20.5 10.5s-24 2.5 -42 2.5c-16 0 -34.167 -0.666992 -54.5 -2s-38.166 -3 -53.499 -5v72c17.333 3.33301 37.833 6 61.5 8s44.5 3 62.5 3
c39.333 0 70.333 -3.66699 93 -11s38.667 -18.166 48 -32.499s14 -33.166 14 -56.499c0 -27.333 -5.66699 -47.666 -17 -60.999s-28.333 -22.666 -51 -27.999v-3c23.333 -4.66699 41 -13.167 53 -25.5s18 -34.166 18 -65.499c0 -22 -4.16699 -40.833 -12.5 -56.5
s-23.833 -27.667 -46.5 -36s-55.667 -12.5 -99 -12.5zM154.999 -0.00488281l449 688h101l-449 -688h-101zM655.999 -0.00488281v75h-184v67l125 237h110l-130 -228h83l30 89h66v-89h47v-76h-47v-75h-100z" />
    <glyph glyph-name="questiondown" unicode="&#xbf;" horiz-adv-x="458" 
d="M269 -186c-38 0 -70.8359 3.16992 -98.5029 9.50293s-50 16.833 -67 31.5s-29.667 34 -38 58s-12.5 53.667 -12.5 89c0 23.333 1.66699 43.833 5 61.5s8.5 32.667 15.5 45s15.833 22.666 26.5 30.999s23.667 15.166 39 20.499l42 14c12 4 21.333 7.5 28 10.5
s11.834 6.5 15.501 10.5s5.83398 10.167 6.50098 18.5s1 19.5 1 33.5v31h143v-68c0 -26 -2.5 -46.667 -7.5 -62s-12.667 -26.833 -23 -34.5s-23.166 -14.5 -38.499 -20.5l-29 -10c-15.333 -4.66699 -26.833 -9.5 -34.5 -14.5s-12.667 -11.667 -15 -20s-3.5 -21.5 -3.5 -39.5
c0 -19.333 3 -33.5 9 -42.5s16 -14.333 30 -16s32.667 -2.5 56 -2.5c10.667 0 22.667 0.166992 36 0.5s27 1 41 2s28 2.16699 42 3.5s27 2.66602 39 3.99902v-126c-18.667 -3.33301 -40.167 -6.5 -64.5 -9.5s-48.833 -5.16699 -73.5 -6.5s-48 -2 -70 -2zM217.997 365.003
v145h171v-145h-171z" />
    <glyph glyph-name="Agrave" unicode="&#xc0;" 
d="M8 0l218 688h237l219 -688h-176l-41 135h-245l-40 -135h-172zM257 266h170l-82 272h-7zM292 754l-133 140v5h156l91 -139v-6h-114z" />
    <glyph glyph-name="Aacute" unicode="&#xc1;" 
d="M8 0l218 688h237l219 -688h-176l-41 135h-245l-40 -135h-172zM257 266h170l-82 272h-7zM261 754v5l92 140h155v-5l-133 -140h-114z" />
    <glyph glyph-name="Acircumflex" unicode="&#xc2;" 
d="M8 0l218 688h237l219 -688h-176l-41 135h-245l-40 -135h-172zM257 266h170l-82 272h-7zM176 754v8l94 137h149l94 -137v-8h-104l-65 81l-65 -81h-103z" />
    <glyph glyph-name="Atilde" unicode="&#xc3;" 
d="M8 0l218 688h237l219 -688h-176l-41 135h-245l-40 -135h-172zM257 266h170l-82 272h-7zM155 750c0 30.667 1.5 56.333 4.5 77s11 36.667 24 48s34.5 17 64.5 17c19.333 0 38.666 -2 57.999 -6s37.333 -8.33301 54 -13l37.5 -9c11.667 -2.66699 22.5 -4 32.5 -4
c12.667 0 20 3 22 9s3 17.333 3 34h80c0 -29.333 -1.5 -54.666 -4.5 -75.999s-11 -37.5 -24 -48.5s-34.5 -16.5 -64.5 -16.5c-20 0 -39.167 2.16699 -57.5 6.5s-36.166 8.16602 -53.499 11.499c-14 4 -27 7.33301 -39 10s-22.333 4 -31 4
c-12.667 0 -20.167 -3.16699 -22.5 -9.5s-3.5 -17.833 -3.5 -34.5h-80z" />
    <glyph glyph-name="Adieresis" unicode="&#xc4;" 
d="M8 0l218 688h237l219 -688h-176l-41 135h-245l-40 -135h-172zM257 266h170l-82 272h-7zM173 773v108h131v-108h-131zM386 773v108h131v-108h-131z" />
    <glyph glyph-name="Aring" unicode="&#xc5;" 
d="M8 0l218 688h237l219 -688h-176l-41 135h-245l-40 -135h-172zM257 266h170l-82 272h-7zM332 620c-33.333 0 -59.833 2.16699 -79.5 6.5s-34.167 11.166 -43.5 20.499s-15.333 21.5 -18 36.5s-4 33.167 -4 54.5c0 20.667 1.33301 38.667 4 54s8.66699 27.666 18 36.999
s23.833 16.333 43.5 21s46.5 7 80.5 7c33.333 0 60 -2.33301 80 -7s34.833 -11.667 44.5 -21s15.834 -21.666 18.501 -36.999s4 -33.333 4 -54c0 -21.333 -1.33301 -39.5 -4 -54.5s-8.83398 -27.167 -18.501 -36.5s-24.5 -16.166 -44.5 -20.499s-47 -6.5 -81 -6.5zM332 685
c21.333 0 36.333 1.5 45 4.5s13.834 8.33301 15.501 16s2.5 18.5 2.5 32.5s-0.833008 24.833 -2.5 32.5s-6.83398 13.167 -15.501 16.5s-23.667 5 -45 5c-20 0 -34.167 -1.66699 -42.5 -5s-13.333 -8.83301 -15 -16.5s-2.5 -18.5 -2.5 -32.5s0.833008 -24.833 2.5 -32.5
s6.66699 -13 15 -16s22.5 -4.5 42.5 -4.5z" />
    <glyph glyph-name="AE" unicode="&#xc6;" horiz-adv-x="969" 
d="M-18 0l314 688h621v-134h-369l27 -141h295v-132h-273l28 -147h292v-134h-435l-25 137h-246l-58 -137h-171zM265 267h173l-47 281h-7z" />
    <glyph glyph-name="Ccedilla" unicode="&#xc7;" horiz-adv-x="570" 
d="M347 -8c-52 0 -95.3301 3.49805 -129.997 10.498s-62.834 18.5 -84.501 34.5s-38 37.333 -49 64s-18.5 60 -22.5 100s-6 87.667 -6 143s2 103 6 143s11.5 73.333 22.5 100s27.333 48 49 64s49.834 27.5 84.501 34.5s78 10.5 130 10.5c20 0 40.667 -0.666992 62 -2
s42 -3.33301 62 -6s37 -6 51 -10v-125l-56.5 5.5c-17 1.66699 -31.833 2.66699 -44.5 3s-23.334 0.5 -32.001 0.5c-30.667 0 -55.834 -1.16699 -75.501 -3.5s-35.167 -7.5 -46.5 -15.5s-19.666 -19.833 -24.999 -35.5s-8.83301 -36.667 -10.5 -63s-2.5 -59.833 -2.5 -100.5
c0 -40 0.833008 -73.333 2.5 -100s5.16699 -48 10.5 -64s13.666 -27.833 24.999 -35.5s26.833 -12.667 46.5 -15s44.834 -3.5 75.501 -3.5c20.667 0 44 0.833008 70 2.5s48.333 3.83398 67 6.50098v-128c-14.667 -2.66699 -32.334 -5.16699 -53.001 -7.5
s-41.834 -4.16602 -63.501 -5.49902s-42.5 -2 -62.5 -2zM204.003 -190.002v5l80 203h104v-5l-38 -203h-146z" />
    <glyph glyph-name="Egrave" unicode="&#xc8;" horiz-adv-x="606" 
d="M71 0v688h482v-134h-308v-141h261v-132h-261v-147h308v-134h-482zM266 754l-133 140v5h156l91 -139v-6h-114z" />
    <glyph glyph-name="Eacute" unicode="&#xc9;" horiz-adv-x="606" 
d="M71 0v688h482v-134h-308v-141h261v-132h-261v-147h308v-134h-482zM234 754v5l92 140h155v-5l-133 -140h-114z" />
    <glyph glyph-name="Ecircumflex" unicode="&#xca;" horiz-adv-x="606" 
d="M71 0v688h482v-134h-308v-141h261v-132h-261v-147h308v-134h-482zM150 754v8l94 137h149l94 -137v-8h-104l-65 81l-65 -81h-103z" />
    <glyph glyph-name="Edieresis" unicode="&#xcb;" horiz-adv-x="606" 
d="M71 0v688h482v-134h-308v-141h261v-132h-261v-147h308v-134h-482zM146 773v108h131v-108h-131zM359 773v108h131v-108h-131z" />
    <glyph glyph-name="Igrave" unicode="&#xcc;" horiz-adv-x="317" 
d="M71 0v688h174v-688h-174zM105 754l-133 140v5h156l91 -139v-6h-114z" />
    <glyph glyph-name="Iacute" unicode="&#xcd;" horiz-adv-x="317" 
d="M71 0v688h174v-688h-174zM74 754v5l92 140h155v-5l-133 -140h-114z" />
    <glyph glyph-name="Icircumflex" unicode="&#xce;" horiz-adv-x="317" 
d="M71 0v688h174v-688h-174zM-10 754v8l94 137h149l94 -137v-8h-104l-65 81l-65 -81h-103z" />
    <glyph glyph-name="Idieresis" unicode="&#xcf;" horiz-adv-x="317" 
d="M71 0v688h174v-688h-174zM-14 773v108h131v-108h-131zM199 773v108h131v-108h-131z" />
    <glyph glyph-name="Eth" unicode="&#xd0;" horiz-adv-x="678" 
d="M71 0v290.996h-64v115h64v282h241c61.333 0 111.333 -3.16699 150 -9.5s69 -17 91 -32s37.833 -35.667 47.5 -62s15.834 -59.166 18.501 -98.499s4 -86.666 4 -141.999s-1.33301 -102.666 -4 -141.999s-8.83398 -72.166 -18.501 -98.499s-25.5 -47 -47.5 -62
s-52.333 -25.667 -91 -32s-88.667 -9.5 -150 -9.5h-241zM245 133.996l63.0039 0.00195312c27.333 0 49.666 0.833008 66.999 2.5s31.166 5.66699 41.499 12s17.666 17 21.999 32s7 35.667 8 62s1.5 60.166 1.5 101.499s-0.5 75.166 -1.5 101.499s-3.83301 47 -8.5 62
s-12 25.833 -22 32.5s-23.833 10.667 -41.5 12s-39.834 2 -66.501 2h-63v-148h80v-115h-80v-157z" />
    <glyph glyph-name="Ntilde" unicode="&#xd1;" horiz-adv-x="717" 
d="M71 0v688h179l224 -369h5v369h167v-688h-163l-240 403h-5v-403h-167zM177 750c0 30.667 1.5 56.333 4.5 77s11 36.667 24 48s34.5 17 64.5 17c19.333 0 38.666 -2 57.999 -6s37.333 -8.33301 54 -13l37.5 -9c11.667 -2.66699 22.5 -4 32.5 -4c12.667 0 20 3 22 9
s3 17.333 3 34h80c0 -29.333 -1.5 -54.666 -4.5 -75.999s-11 -37.5 -24 -48.5s-34.5 -16.5 -64.5 -16.5c-20 0 -39.167 2.16699 -57.5 6.5s-36.166 8.16602 -53.499 11.499c-14 4 -27 7.33301 -39 10s-22.333 4 -31 4c-12.667 0 -20.167 -3.16699 -22.5 -9.5
s-3.5 -17.833 -3.5 -34.5h-80z" />
    <glyph glyph-name="Ograve" unicode="&#xd2;" horiz-adv-x="703" 
d="M351 -8c-58 0 -105.5 3.5 -142.5 10.5s-65.833 18.333 -86.5 34s-35.834 37 -45.501 64s-15.667 60.5 -18 100.5s-3.5 87.667 -3.5 143s1.16699 103 3.5 143s8.33301 73.5 18 100.5s24.834 48.333 45.501 64s49.5 27 86.5 34s84.5 10.5 142.5 10.5
c57.333 0 104.5 -3.5 141.5 -10.5s66.167 -18.333 87.5 -34s36.666 -37 45.999 -64s15.333 -60.5 18 -100.5s4 -87.667 4 -143s-1.33301 -103 -4 -143s-8.66699 -73.5 -18 -100.5s-24.666 -48.333 -45.999 -64s-50.5 -27 -87.5 -34s-84.167 -10.5 -141.5 -10.5zM351 126
c24 0 43.5 0.833008 58.5 2.5s26.833 6 35.5 13s15 18.167 19 33.5s6.5 36.666 7.5 63.999s1.5 62.333 1.5 105s-0.5 77.667 -1.5 105s-3.5 48.666 -7.5 63.999s-10.333 26.5 -19 33.5s-20.5 11.333 -35.5 13s-34.5 2.5 -58.5 2.5c-23.333 0 -42.666 -0.833008 -57.999 -2.5
s-27.333 -6 -36 -13s-15 -18.167 -19 -33.5s-6.5 -36.666 -7.5 -63.999s-1.5 -62.333 -1.5 -105s0.5 -77.667 1.5 -105s3.5 -48.666 7.5 -63.999s10.333 -26.5 19 -33.5s20.667 -11.333 36 -13s34.666 -2.5 57.999 -2.5zM299 754l-133 140v5h156l91 -139v-6h-114z" />
    <glyph glyph-name="Oacute" unicode="&#xd3;" horiz-adv-x="703" 
d="M351 -8c-58 0 -105.5 3.5 -142.5 10.5s-65.833 18.333 -86.5 34s-35.834 37 -45.501 64s-15.667 60.5 -18 100.5s-3.5 87.667 -3.5 143s1.16699 103 3.5 143s8.33301 73.5 18 100.5s24.834 48.333 45.501 64s49.5 27 86.5 34s84.5 10.5 142.5 10.5
c57.333 0 104.5 -3.5 141.5 -10.5s66.167 -18.333 87.5 -34s36.666 -37 45.999 -64s15.333 -60.5 18 -100.5s4 -87.667 4 -143s-1.33301 -103 -4 -143s-8.66699 -73.5 -18 -100.5s-24.666 -48.333 -45.999 -64s-50.5 -27 -87.5 -34s-84.167 -10.5 -141.5 -10.5zM351 126
c24 0 43.5 0.833008 58.5 2.5s26.833 6 35.5 13s15 18.167 19 33.5s6.5 36.666 7.5 63.999s1.5 62.333 1.5 105s-0.5 77.667 -1.5 105s-3.5 48.666 -7.5 63.999s-10.333 26.5 -19 33.5s-20.5 11.333 -35.5 13s-34.5 2.5 -58.5 2.5c-23.333 0 -42.666 -0.833008 -57.999 -2.5
s-27.333 -6 -36 -13s-15 -18.167 -19 -33.5s-6.5 -36.666 -7.5 -63.999s-1.5 -62.333 -1.5 -105s0.5 -77.667 1.5 -105s3.5 -48.666 7.5 -63.999s10.333 -26.5 19 -33.5s20.667 -11.333 36 -13s34.666 -2.5 57.999 -2.5zM267 754v5l92 140h155v-5l-133 -140h-114z" />
    <glyph glyph-name="Ocircumflex" unicode="&#xd4;" horiz-adv-x="703" 
d="M351 -8c-58 0 -105.5 3.5 -142.5 10.5s-65.833 18.333 -86.5 34s-35.834 37 -45.501 64s-15.667 60.5 -18 100.5s-3.5 87.667 -3.5 143s1.16699 103 3.5 143s8.33301 73.5 18 100.5s24.834 48.333 45.501 64s49.5 27 86.5 34s84.5 10.5 142.5 10.5
c57.333 0 104.5 -3.5 141.5 -10.5s66.167 -18.333 87.5 -34s36.666 -37 45.999 -64s15.333 -60.5 18 -100.5s4 -87.667 4 -143s-1.33301 -103 -4 -143s-8.66699 -73.5 -18 -100.5s-24.666 -48.333 -45.999 -64s-50.5 -27 -87.5 -34s-84.167 -10.5 -141.5 -10.5zM351 126
c24 0 43.5 0.833008 58.5 2.5s26.833 6 35.5 13s15 18.167 19 33.5s6.5 36.666 7.5 63.999s1.5 62.333 1.5 105s-0.5 77.667 -1.5 105s-3.5 48.666 -7.5 63.999s-10.333 26.5 -19 33.5s-20.5 11.333 -35.5 13s-34.5 2.5 -58.5 2.5c-23.333 0 -42.666 -0.833008 -57.999 -2.5
s-27.333 -6 -36 -13s-15 -18.167 -19 -33.5s-6.5 -36.666 -7.5 -63.999s-1.5 -62.333 -1.5 -105s0.5 -77.667 1.5 -105s3.5 -48.666 7.5 -63.999s10.333 -26.5 19 -33.5s20.667 -11.333 36 -13s34.666 -2.5 57.999 -2.5zM183 754v8l94 137h149l94 -137v-8h-104l-65 81
l-65 -81h-103z" />
    <glyph glyph-name="Otilde" unicode="&#xd5;" horiz-adv-x="703" 
d="M351 -8c-58 0 -105.5 3.5 -142.5 10.5s-65.833 18.333 -86.5 34s-35.834 37 -45.501 64s-15.667 60.5 -18 100.5s-3.5 87.667 -3.5 143s1.16699 103 3.5 143s8.33301 73.5 18 100.5s24.834 48.333 45.501 64s49.5 27 86.5 34s84.5 10.5 142.5 10.5
c57.333 0 104.5 -3.5 141.5 -10.5s66.167 -18.333 87.5 -34s36.666 -37 45.999 -64s15.333 -60.5 18 -100.5s4 -87.667 4 -143s-1.33301 -103 -4 -143s-8.66699 -73.5 -18 -100.5s-24.666 -48.333 -45.999 -64s-50.5 -27 -87.5 -34s-84.167 -10.5 -141.5 -10.5zM351 126
c24 0 43.5 0.833008 58.5 2.5s26.833 6 35.5 13s15 18.167 19 33.5s6.5 36.666 7.5 63.999s1.5 62.333 1.5 105s-0.5 77.667 -1.5 105s-3.5 48.666 -7.5 63.999s-10.333 26.5 -19 33.5s-20.5 11.333 -35.5 13s-34.5 2.5 -58.5 2.5c-23.333 0 -42.666 -0.833008 -57.999 -2.5
s-27.333 -6 -36 -13s-15 -18.167 -19 -33.5s-6.5 -36.666 -7.5 -63.999s-1.5 -62.333 -1.5 -105s0.5 -77.667 1.5 -105s3.5 -48.666 7.5 -63.999s10.333 -26.5 19 -33.5s20.667 -11.333 36 -13s34.666 -2.5 57.999 -2.5zM162 750c0 30.667 1.5 56.333 4.5 77
s11 36.667 24 48s34.5 17 64.5 17c19.333 0 38.666 -2 57.999 -6s37.333 -8.33301 54 -13l37.5 -9c11.667 -2.66699 22.5 -4 32.5 -4c12.667 0 20 3 22 9s3 17.333 3 34h80c0 -29.333 -1.5 -54.666 -4.5 -75.999s-11 -37.5 -24 -48.5s-34.5 -16.5 -64.5 -16.5
c-20 0 -39.167 2.16699 -57.5 6.5s-36.166 8.16602 -53.499 11.499c-14 4 -27 7.33301 -39 10s-22.333 4 -31 4c-12.667 0 -20.167 -3.16699 -22.5 -9.5s-3.5 -17.833 -3.5 -34.5h-80z" />
    <glyph glyph-name="Odieresis" unicode="&#xd6;" horiz-adv-x="703" 
d="M351 -8c-58 0 -105.5 3.5 -142.5 10.5s-65.833 18.333 -86.5 34s-35.834 37 -45.501 64s-15.667 60.5 -18 100.5s-3.5 87.667 -3.5 143s1.16699 103 3.5 143s8.33301 73.5 18 100.5s24.834 48.333 45.501 64s49.5 27 86.5 34s84.5 10.5 142.5 10.5
c57.333 0 104.5 -3.5 141.5 -10.5s66.167 -18.333 87.5 -34s36.666 -37 45.999 -64s15.333 -60.5 18 -100.5s4 -87.667 4 -143s-1.33301 -103 -4 -143s-8.66699 -73.5 -18 -100.5s-24.666 -48.333 -45.999 -64s-50.5 -27 -87.5 -34s-84.167 -10.5 -141.5 -10.5zM351 126
c24 0 43.5 0.833008 58.5 2.5s26.833 6 35.5 13s15 18.167 19 33.5s6.5 36.666 7.5 63.999s1.5 62.333 1.5 105s-0.5 77.667 -1.5 105s-3.5 48.666 -7.5 63.999s-10.333 26.5 -19 33.5s-20.5 11.333 -35.5 13s-34.5 2.5 -58.5 2.5c-23.333 0 -42.666 -0.833008 -57.999 -2.5
s-27.333 -6 -36 -13s-15 -18.167 -19 -33.5s-6.5 -36.666 -7.5 -63.999s-1.5 -62.333 -1.5 -105s0.5 -77.667 1.5 -105s3.5 -48.666 7.5 -63.999s10.333 -26.5 19 -33.5s20.667 -11.333 36 -13s34.666 -2.5 57.999 -2.5zM180 773v108h131v-108h-131zM393 773v108h131v-108
h-131z" />
    <glyph glyph-name="multiply" unicode="&#xd7;" horiz-adv-x="513" 
d="M151 64l-82 83l105 105l-106 106l83 83l106 -106l106 106l82 -82l-106 -106l106 -106l-83 -83l-106 107z" />
    <glyph glyph-name="Oslash" unicode="&#xd8;" horiz-adv-x="703" 
d="M55 -55l457 798h136l-458 -798h-135zM351 -8c-58 0 -105.5 3.5 -142.5 10.5s-65.833 18.333 -86.5 34s-35.834 37 -45.501 64s-15.667 60.5 -18 100.5s-3.5 87.667 -3.5 143s1.16699 103 3.5 143s8.33301 73.5 18 100.5s24.834 48.333 45.501 64s49.5 27 86.5 34
s84.5 10.5 142.5 10.5c57.333 0 104.5 -3.5 141.5 -10.5s66.167 -18.333 87.5 -34s36.666 -37 45.999 -64s15.333 -60.5 18 -100.5s4 -87.667 4 -143s-1.33301 -103 -4 -143s-8.66699 -73.5 -18 -100.5s-24.666 -48.333 -45.999 -64s-50.5 -27 -87.5 -34
s-84.167 -10.5 -141.5 -10.5zM351 126c24 0 43.5 0.833008 58.5 2.5s26.833 6 35.5 13s15 18.167 19 33.5s6.5 36.666 7.5 63.999s1.5 62.333 1.5 105s-0.5 77.667 -1.5 105s-3.5 48.666 -7.5 63.999s-10.333 26.5 -19 33.5s-20.5 11.333 -35.5 13s-34.5 2.5 -58.5 2.5
c-23.333 0 -42.666 -0.833008 -57.999 -2.5s-27.333 -6 -36 -13s-15 -18.167 -19 -33.5s-6.5 -36.666 -7.5 -63.999s-1.5 -62.333 -1.5 -105s0.5 -77.667 1.5 -105s3.5 -48.666 7.5 -63.999s10.333 -26.5 19 -33.5s20.667 -11.333 36 -13s34.666 -2.5 57.999 -2.5z" />
    <glyph glyph-name="Ugrave" unicode="&#xd9;" 
d="M345 -8c-51.333 0 -93.999 3.16699 -127.999 9.5s-61 16.5 -81 30.5s-35 33.167 -45 57.5s-16.5 54.666 -19.5 90.999s-4.5 79.5 -4.5 129.5v378h174v-415c0 -32 0.833008 -57.833 2.5 -77.5s5.66699 -34.5 12 -44.5s16.666 -16.5 30.999 -19.5s33.833 -4.5 58.5 -4.5
s44 1.5 58 4.5s24.167 9.5 30.5 19.5s10.333 24.833 12 44.5s2.5 45.5 2.5 77.5v415h174v-378c0 -50 -1.5 -93.167 -4.5 -129.5s-9.33301 -66.666 -19 -90.999s-24.5 -43.5 -44.5 -57.5s-47 -24.167 -81 -30.5s-76.667 -9.5 -128 -9.5zM292.001 754l-133 140v5h156l91 -139
v-6h-114z" />
    <glyph glyph-name="Uacute" unicode="&#xda;" 
d="M345 -8c-51.333 0 -93.999 3.16699 -127.999 9.5s-61 16.5 -81 30.5s-35 33.167 -45 57.5s-16.5 54.666 -19.5 90.999s-4.5 79.5 -4.5 129.5v378h174v-415c0 -32 0.833008 -57.833 2.5 -77.5s5.66699 -34.5 12 -44.5s16.666 -16.5 30.999 -19.5s33.833 -4.5 58.5 -4.5
s44 1.5 58 4.5s24.167 9.5 30.5 19.5s10.333 24.833 12 44.5s2.5 45.5 2.5 77.5v415h174v-378c0 -50 -1.5 -93.167 -4.5 -129.5s-9.33301 -66.666 -19 -90.999s-24.5 -43.5 -44.5 -57.5s-47 -24.167 -81 -30.5s-76.667 -9.5 -128 -9.5zM261.001 754v5l92 140h155v-5
l-133 -140h-114z" />
    <glyph glyph-name="Ucircumflex" unicode="&#xdb;" 
d="M345 -8c-51.333 0 -93.999 3.16699 -127.999 9.5s-61 16.5 -81 30.5s-35 33.167 -45 57.5s-16.5 54.666 -19.5 90.999s-4.5 79.5 -4.5 129.5v378h174v-415c0 -32 0.833008 -57.833 2.5 -77.5s5.66699 -34.5 12 -44.5s16.666 -16.5 30.999 -19.5s33.833 -4.5 58.5 -4.5
s44 1.5 58 4.5s24.167 9.5 30.5 19.5s10.333 24.833 12 44.5s2.5 45.5 2.5 77.5v415h174v-378c0 -50 -1.5 -93.167 -4.5 -129.5s-9.33301 -66.666 -19 -90.999s-24.5 -43.5 -44.5 -57.5s-47 -24.167 -81 -30.5s-76.667 -9.5 -128 -9.5zM177.001 754v8l94 137h149l94 -137v-8
h-104l-65 81l-65 -81h-103z" />
    <glyph glyph-name="Udieresis" unicode="&#xdc;" 
d="M345 -8c-51.333 0 -93.999 3.16699 -127.999 9.5s-61 16.5 -81 30.5s-35 33.167 -45 57.5s-16.5 54.666 -19.5 90.999s-4.5 79.5 -4.5 129.5v378h174v-415c0 -32 0.833008 -57.833 2.5 -77.5s5.66699 -34.5 12 -44.5s16.666 -16.5 30.999 -19.5s33.833 -4.5 58.5 -4.5
s44 1.5 58 4.5s24.167 9.5 30.5 19.5s10.333 24.833 12 44.5s2.5 45.5 2.5 77.5v415h174v-378c0 -50 -1.5 -93.167 -4.5 -129.5s-9.33301 -66.666 -19 -90.999s-24.5 -43.5 -44.5 -57.5s-47 -24.167 -81 -30.5s-76.667 -9.5 -128 -9.5zM173.001 773v108h131v-108h-131z
M386.001 773v108h131v-108h-131z" />
    <glyph glyph-name="Yacute" unicode="&#xdd;" horiz-adv-x="637" 
d="M231 0v236l-229 452h179l137 -289h7l135 289h175l-230 -452v-236h-174zM234 754v5l92 140h155v-5l-133 -140h-114z" />
    <glyph glyph-name="Thorn" unicode="&#xde;" horiz-adv-x="643" 
d="M72 0v688h173v-104h157c44 0 79.667 -5.16699 107 -15.5s48.333 -25.5 63 -45.5s24.667 -44.333 30 -73s8 -61.667 8 -99c0 -34 -2.5 -65.167 -7.5 -93.5s-14.667 -52.833 -29 -73.5s-35.5 -36.5 -63.5 -47.5s-65 -16.5 -111 -16.5h-154v-120h-173zM245 252h86.999
c24 0 42.833 1.16699 56.5 3.5s23.834 7 30.501 14s11 17 13 30s3 30.167 3 51.5c0 22 -0.833008 39.5 -2.5 52.5s-5.83398 23 -12.501 30s-16.667 11.833 -30 14.5s-31.666 4 -54.999 4h-90v-200z" />
    <glyph glyph-name="germandbls" unicode="&#xdf;" horiz-adv-x="605" 
d="M62 0l-0.000976562 555.001c0 44.667 7.33301 81.334 22 110.001s39.834 50 75.501 64s84.834 21 147.501 21c48.667 0 88.834 -3.83301 120.501 -11.5s56.5 -19 74.5 -34s30.5 -33.5 37.5 -55.5s10.5 -46.667 10.5 -74c0 -42.667 -9.33301 -75.167 -28 -97.5
s-48 -36.5 -88 -42.5v-4c41.333 -8 72.5 -25.833 93.5 -53.5s31.5 -73.834 31.5 -138.501c0 -43.333 -3 -80.166 -9 -110.499s-17.167 -55 -33.5 -74s-39.833 -32.833 -70.5 -41.5s-70.334 -13 -119.001 -13h-44v121h24c20 0 36 1 48 3s21.167 6.66699 27.5 14
s10.333 19.5 12 36.5s2.5 40.833 2.5 71.5c0 37.333 -2.5 64.5 -7.5 81.5s-13.833 28 -26.5 33s-31.334 7.5 -56.001 7.5h-16v121h16c22.667 0 39.667 1.66699 51 5s19 9.66602 23 18.999s6 23 6 41c0 22 -2.16699 38.333 -6.5 49s-12.333 17.667 -24 21s-28.5 5 -50.5 5
c-20 0 -36.167 -1.83301 -48.5 -5.5s-21.333 -11.834 -27 -24.501s-8.5 -33 -8.5 -61v-538h-160z" />
    <glyph glyph-name="agrave" unicode="&#xe0;" horiz-adv-x="566" 
d="M186 -8c-32 0 -58.9961 5 -80.9961 15s-38.5 26.333 -49.5 49s-16.5 52.334 -16.5 89.001c0 38.667 4.5 69.5 13.5 92.5s25.167 39.5 48.5 49.5s56.333 15 99 15c6 0 14.5 -0.166992 25.5 -0.5s23.5 -0.666016 37.5 -0.999023l42 -1
c14 -0.333008 26.667 -0.833008 38 -1.5v19c0 19.333 -1.5 34.333 -4.5 45s-8.66699 18.5 -17 23.5s-20.833 8 -37.5 9s-38.667 1.5 -66 1.5c-15.333 0 -32.166 -0.333008 -50.499 -1s-36.333 -1.5 -54 -2.5s-32.5 -2.16699 -44.5 -3.5v113
c27.333 4.66699 58.166 8.5 92.499 11.5s70.5 4.5 108.5 4.5c42.667 0 78.167 -2.66699 106.5 -8s51.166 -13.5 68.499 -24.5s30.166 -24.833 38.499 -41.5s13.833 -36.334 16.5 -59.001s4 -48.334 4 -77.001v-308h-154l-4 60h-8c-12.667 -20 -27.334 -35 -44.001 -45
s-34.334 -16.333 -53.001 -19s-37 -4 -55 -4zM262.004 106c12 0 22.502 0.830078 31.502 2.49707s16.667 4.66699 23 9s11.5 9.83301 15.5 16.5c3.33301 7.33301 6 16.333 8 27s3 23.334 3 38.001v19h-93c-16.667 0 -29.334 -1.16699 -38.001 -3.5
s-14.5 -7.66602 -17.5 -15.999s-4.5 -21.166 -4.5 -38.499c0 -14.667 1.66699 -26 5 -34s10.166 -13.333 20.499 -16s25.833 -4 46.5 -4zM246.006 575.997l-133 140v5h156l91 -139v-6h-114z" />
    <glyph glyph-name="aacute" unicode="&#xe1;" horiz-adv-x="566" 
d="M186 -8c-32 0 -58.9961 5 -80.9961 15s-38.5 26.333 -49.5 49s-16.5 52.334 -16.5 89.001c0 38.667 4.5 69.5 13.5 92.5s25.167 39.5 48.5 49.5s56.333 15 99 15c6 0 14.5 -0.166992 25.5 -0.5s23.5 -0.666016 37.5 -0.999023l42 -1
c14 -0.333008 26.667 -0.833008 38 -1.5v19c0 19.333 -1.5 34.333 -4.5 45s-8.66699 18.5 -17 23.5s-20.833 8 -37.5 9s-38.667 1.5 -66 1.5c-15.333 0 -32.166 -0.333008 -50.499 -1s-36.333 -1.5 -54 -2.5s-32.5 -2.16699 -44.5 -3.5v113
c27.333 4.66699 58.166 8.5 92.499 11.5s70.5 4.5 108.5 4.5c42.667 0 78.167 -2.66699 106.5 -8s51.166 -13.5 68.499 -24.5s30.166 -24.833 38.499 -41.5s13.833 -36.334 16.5 -59.001s4 -48.334 4 -77.001v-308h-154l-4 60h-8c-12.667 -20 -27.334 -35 -44.001 -45
s-34.334 -16.333 -53.001 -19s-37 -4 -55 -4zM262.004 106c12 0 22.502 0.830078 31.502 2.49707s16.667 4.66699 23 9s11.5 9.83301 15.5 16.5c3.33301 7.33301 6 16.333 8 27s3 23.334 3 38.001v19h-93c-16.667 0 -29.334 -1.16699 -38.001 -3.5
s-14.5 -7.66602 -17.5 -15.999s-4.5 -21.166 -4.5 -38.499c0 -14.667 1.66699 -26 5 -34s10.166 -13.333 20.499 -16s25.833 -4 46.5 -4zM179.006 575.997v5l92 140h155v-5l-133 -140h-114z" />
    <glyph glyph-name="acircumflex" unicode="&#xe2;" horiz-adv-x="566" 
d="M186 -8c-32 0 -58.9961 5 -80.9961 15s-38.5 26.333 -49.5 49s-16.5 52.334 -16.5 89.001c0 38.667 4.5 69.5 13.5 92.5s25.167 39.5 48.5 49.5s56.333 15 99 15c6 0 14.5 -0.166992 25.5 -0.5s23.5 -0.666016 37.5 -0.999023l42 -1
c14 -0.333008 26.667 -0.833008 38 -1.5v19c0 19.333 -1.5 34.333 -4.5 45s-8.66699 18.5 -17 23.5s-20.833 8 -37.5 9s-38.667 1.5 -66 1.5c-15.333 0 -32.166 -0.333008 -50.499 -1s-36.333 -1.5 -54 -2.5s-32.5 -2.16699 -44.5 -3.5v113
c27.333 4.66699 58.166 8.5 92.499 11.5s70.5 4.5 108.5 4.5c42.667 0 78.167 -2.66699 106.5 -8s51.166 -13.5 68.499 -24.5s30.166 -24.833 38.499 -41.5s13.833 -36.334 16.5 -59.001s4 -48.334 4 -77.001v-308h-154l-4 60h-8c-12.667 -20 -27.334 -35 -44.001 -45
s-34.334 -16.333 -53.001 -19s-37 -4 -55 -4zM262.004 106c12 0 22.502 0.830078 31.502 2.49707s16.667 4.66699 23 9s11.5 9.83301 15.5 16.5c3.33301 7.33301 6 16.333 8 27s3 23.334 3 38.001v19h-93c-16.667 0 -29.334 -1.16699 -38.001 -3.5
s-14.5 -7.66602 -17.5 -15.999s-4.5 -21.166 -4.5 -38.499c0 -14.667 1.66699 -26 5 -34s10.166 -13.333 20.499 -16s25.833 -4 46.5 -4zM116.006 575.997v8l94 137h149l94 -137v-8h-104l-65 81l-65 -81h-103z" />
    <glyph glyph-name="atilde" unicode="&#xe3;" horiz-adv-x="566" 
d="M186 -8c-32 0 -58.9961 5 -80.9961 15s-38.5 26.333 -49.5 49s-16.5 52.334 -16.5 89.001c0 38.667 4.5 69.5 13.5 92.5s25.167 39.5 48.5 49.5s56.333 15 99 15c6 0 14.5 -0.166992 25.5 -0.5s23.5 -0.666016 37.5 -0.999023l42 -1
c14 -0.333008 26.667 -0.833008 38 -1.5v19c0 19.333 -1.5 34.333 -4.5 45s-8.66699 18.5 -17 23.5s-20.833 8 -37.5 9s-38.667 1.5 -66 1.5c-15.333 0 -32.166 -0.333008 -50.499 -1s-36.333 -1.5 -54 -2.5s-32.5 -2.16699 -44.5 -3.5v113
c27.333 4.66699 58.166 8.5 92.499 11.5s70.5 4.5 108.5 4.5c42.667 0 78.167 -2.66699 106.5 -8s51.166 -13.5 68.499 -24.5s30.166 -24.833 38.499 -41.5s13.833 -36.334 16.5 -59.001s4 -48.334 4 -77.001v-308h-154l-4 60h-8c-12.667 -20 -27.334 -35 -44.001 -45
s-34.334 -16.333 -53.001 -19s-37 -4 -55 -4zM262.004 106c12 0 22.502 0.830078 31.502 2.49707s16.667 4.66699 23 9s11.5 9.83301 15.5 16.5c3.33301 7.33301 6 16.333 8 27s3 23.334 3 38.001v19h-93c-16.667 0 -29.334 -1.16699 -38.001 -3.5
s-14.5 -7.66602 -17.5 -15.999s-4.5 -21.166 -4.5 -38.499c0 -14.667 1.66699 -26 5 -34s10.166 -13.333 20.499 -16s25.833 -4 46.5 -4zM94.0059 571.997c0 30.667 1.5 56.333 4.5 77s11 36.667 24 48s34.5 17 64.5 17c19.333 0 38.666 -2 57.999 -6
s37.333 -8.33301 54 -13l37.5 -9c11.667 -2.66699 22.5 -4 32.5 -4c12.667 0 20 3 22 9s3 17.333 3 34h80c0 -29.333 -1.5 -54.666 -4.5 -75.999s-11 -37.5 -24 -48.5s-34.5 -16.5 -64.5 -16.5c-20 0 -39.167 2.16699 -57.5 6.5s-36.166 8.16602 -53.499 11.499
c-14 4 -27 7.33301 -39 10s-22.333 4 -31 4c-12.667 0 -20.167 -3.16699 -22.5 -9.5s-3.5 -17.833 -3.5 -34.5h-80z" />
    <glyph glyph-name="adieresis" unicode="&#xe4;" horiz-adv-x="566" 
d="M186 -8c-32 0 -58.9961 5 -80.9961 15s-38.5 26.333 -49.5 49s-16.5 52.334 -16.5 89.001c0 38.667 4.5 69.5 13.5 92.5s25.167 39.5 48.5 49.5s56.333 15 99 15c6 0 14.5 -0.166992 25.5 -0.5s23.5 -0.666016 37.5 -0.999023l42 -1
c14 -0.333008 26.667 -0.833008 38 -1.5v19c0 19.333 -1.5 34.333 -4.5 45s-8.66699 18.5 -17 23.5s-20.833 8 -37.5 9s-38.667 1.5 -66 1.5c-15.333 0 -32.166 -0.333008 -50.499 -1s-36.333 -1.5 -54 -2.5s-32.5 -2.16699 -44.5 -3.5v113
c27.333 4.66699 58.166 8.5 92.499 11.5s70.5 4.5 108.5 4.5c42.667 0 78.167 -2.66699 106.5 -8s51.166 -13.5 68.499 -24.5s30.166 -24.833 38.499 -41.5s13.833 -36.334 16.5 -59.001s4 -48.334 4 -77.001v-308h-154l-4 60h-8c-12.667 -20 -27.334 -35 -44.001 -45
s-34.334 -16.333 -53.001 -19s-37 -4 -55 -4zM262.004 106c12 0 22.502 0.830078 31.502 2.49707s16.667 4.66699 23 9s11.5 9.83301 15.5 16.5c3.33301 7.33301 6 16.333 8 27s3 23.334 3 38.001v19h-93c-16.667 0 -29.334 -1.16699 -38.001 -3.5
s-14.5 -7.66602 -17.5 -15.999s-4.5 -21.166 -4.5 -38.499c0 -14.667 1.66699 -26 5 -34s10.166 -13.333 20.499 -16s25.833 -4 46.5 -4zM113.006 594.997v108h131v-108h-131zM326.006 594.997v108h131v-108h-131z" />
    <glyph glyph-name="aring" unicode="&#xe5;" horiz-adv-x="566" 
d="M186 -8c-32 0 -58.9961 5 -80.9961 15s-38.5 26.333 -49.5 49s-16.5 52.334 -16.5 89.001c0 38.667 4.5 69.5 13.5 92.5s25.167 39.5 48.5 49.5s56.333 15 99 15c6 0 14.5 -0.166992 25.5 -0.5s23.5 -0.666016 37.5 -0.999023l42 -1
c14 -0.333008 26.667 -0.833008 38 -1.5v19c0 19.333 -1.5 34.333 -4.5 45s-8.66699 18.5 -17 23.5s-20.833 8 -37.5 9s-38.667 1.5 -66 1.5c-15.333 0 -32.166 -0.333008 -50.499 -1s-36.333 -1.5 -54 -2.5s-32.5 -2.16699 -44.5 -3.5v113
c27.333 4.66699 58.166 8.5 92.499 11.5s70.5 4.5 108.5 4.5c42.667 0 78.167 -2.66699 106.5 -8s51.166 -13.5 68.499 -24.5s30.166 -24.833 38.499 -41.5s13.833 -36.334 16.5 -59.001s4 -48.334 4 -77.001v-308h-154l-4 60h-8c-12.667 -20 -27.334 -35 -44.001 -45
s-34.334 -16.333 -53.001 -19s-37 -4 -55 -4zM262.004 106c12 0 22.502 0.830078 31.502 2.49707s16.667 4.66699 23 9s11.5 9.83301 15.5 16.5c3.33301 7.33301 6 16.333 8 27s3 23.334 3 38.001v19h-93c-16.667 0 -29.334 -1.16699 -38.001 -3.5
s-14.5 -7.66602 -17.5 -15.999s-4.5 -21.166 -4.5 -38.499c0 -14.667 1.66699 -26 5 -34s10.166 -13.333 20.499 -16s25.833 -4 46.5 -4zM283.006 561.997c-33.333 0 -59.833 2.16699 -79.5 6.5s-34.167 11.166 -43.5 20.499s-15.333 21.5 -18 36.5s-4 33.167 -4 54.5
c0 20.667 1.33301 38.667 4 54s8.66699 27.666 18 36.999s23.833 16.333 43.5 21s46.5 7 80.5 7c33.333 0 60 -2.33301 80 -7s34.833 -11.667 44.5 -21s15.834 -21.666 18.501 -36.999s4 -33.333 4 -54c0 -21.333 -1.33301 -39.5 -4 -54.5s-8.83398 -27.167 -18.501 -36.5
s-24.5 -16.166 -44.5 -20.499s-47 -6.5 -81 -6.5zM283.006 626.997c21.333 0 36.333 1.5 45 4.5s13.834 8.33301 15.501 16s2.5 18.5 2.5 32.5s-0.833008 24.833 -2.5 32.5s-6.83398 13.167 -15.501 16.5s-23.667 5 -45 5c-20 0 -34.167 -1.66699 -42.5 -5
s-13.333 -8.83301 -15 -16.5s-2.5 -18.5 -2.5 -32.5s0.833008 -24.833 2.5 -32.5s6.66699 -13 15 -16s22.5 -4.5 42.5 -4.5z" />
    <glyph glyph-name="ae" unicode="&#xe6;" horiz-adv-x="860" 
d="M219 -8c-34 0 -62.332 2.83594 -84.999 8.50293s-41.167 14.5 -55.5 26.5s-24.5 27.667 -30.5 47s-9 43 -9 71c0 38.667 4.5 69.5 13.5 92.5s25.167 39.5 48.5 49.5s56.333 15 99 15c8 0 20.333 -0.166992 37 -0.5s34.667 -0.833008 54 -1.5
s36.666 -1.33398 51.999 -2.00098v19c0 19.333 -1.5 34.333 -4.5 45s-8.66699 18.5 -17 23.5s-20.833 8 -37.5 9s-38.667 1.5 -66 1.5c-14 0 -30.333 -0.333008 -49 -1s-37 -1.5 -55 -2.5s-33 -2.16699 -45 -3.5v113c22 4 49.5 7.66699 82.5 11s69.5 5 109.5 5
c39.333 0 72.666 -3.33301 99.999 -10s50 -17.334 68 -32.001c18 14.667 40.667 25.334 68 32.001s59.666 10 96.999 10c42.667 0 77.5 -3.16699 104.5 -9.5s48.333 -16 64 -29s26.834 -29.833 33.501 -50.5s11 -45.5 13 -74.5s3 -62.5 3 -100.5v-38h-307
c0 -22.667 1 -40.834 3 -54.501s7.33301 -24 16 -31s22 -11.667 40 -14s43 -3.5 75 -3.5c12.667 0 27.667 0.333008 45 1s35.5 1.66699 54.5 3s36.833 2.66602 53.5 3.99902v-112c-14.667 -3.33301 -32.5 -6.33301 -53.5 -9s-43.5 -4.66699 -67.5 -6s-47.333 -2 -70 -2
c-34.667 0 -64.5 1.83301 -89.5 5.5s-46.167 9.16699 -63.5 16.5s-31.666 17 -42.999 29c-16.667 -16 -35.5 -27.5 -56.5 -34.5s-42.5 -11.5 -64.5 -13.5s-43.667 -3 -65 -3zM262.001 106.003c14 0 25.8359 1.16602 35.5029 3.49902s17.667 6.33301 24 12
s11.166 12.834 14.499 21.501c2.66699 8 4.5 16.5 5.5 25.5s1.5 19.167 1.5 30.5v18h-93c-16.667 0 -29.334 -1.16699 -38.001 -3.5s-14.5 -7.5 -17.5 -15.5s-4.5 -20.667 -4.5 -38c0 -14.667 1.66699 -26 5 -34s10.166 -13.333 20.499 -16s25.833 -4 46.5 -4z
M661.004 251.002c0 34.667 -0.501953 62.166 -1.50195 82.499s-4 35.5 -9 45.5s-12.667 16.5 -23 19.5s-24.833 4.5 -43.5 4.5c-17.333 0 -31.166 -1.16699 -41.499 -3.5s-18.166 -7.16602 -23.499 -14.499s-9 -18 -11 -32s-3 -32.333 -3 -55h200z" />
    <glyph glyph-name="ccedilla" unicode="&#xe7;" horiz-adv-x="463" 
d="M267 -8c-42.667 0 -77.668 3.83398 -105.001 11.501s-49 18.667 -65 33s-27.667 32.166 -35 53.499s-12 45.833 -14 73.5s-3 58.167 -3 91.5c0 32.667 1 62.667 3 90s7 51.833 15 73.5s19.833 39.834 35.5 54.501s37 25.834 64 33.501s61.5 11.5 103.5 11.5
c26.667 0 53.5 -1.33301 80.5 -4s51.167 -6.66699 72.5 -12v-113c-13.333 2 -30.5 3.66699 -51.5 5s-40.5 2 -58.5 2c-23.333 0 -41.666 -1.83301 -54.999 -5.5s-23.333 -10.334 -30 -20.001s-11.167 -23.834 -13.5 -42.501s-3.5 -43 -3.5 -73s1.16699 -54.5 3.5 -73.5
s6.83301 -33.333 13.5 -43s17 -16.167 31 -19.5s32.333 -5 55 -5c16 0 34.167 0.666992 54.5 2s39.833 3 58.5 5v-113c-22 -4.66699 -47 -8.5 -75 -11.5s-55 -4.5 -81 -4.5zM146.999 -189.999v5l80 203h104v-5l-38 -203h-146z" />
    <glyph glyph-name="egrave" unicode="&#xe8;" horiz-adv-x="557" 
d="M300 -8c-48 0 -87.665 3.00391 -118.998 9.00391s-56.166 15.5 -74.499 28.5s-32 29.833 -41 50.5s-14.667 45.334 -17 74.001s-3.5 62 -3.5 100c0 46 2.16699 85.667 6.5 119s14.166 60.666 29.499 81.999s39.166 37.166 71.499 47.499s76.166 15.5 131.499 15.5
c44.667 0 81 -3.16699 109 -9.5s50.167 -16 66.5 -29s28 -29.833 35 -50.5s11.5 -45.5 13.5 -74.5s3 -62.5 3 -100.5v-39h-307c0 -22.667 1 -40.834 3 -54.501s7.33301 -23.834 16 -30.501s22 -11.167 40 -13.5s43 -3.5 75 -3.5c12.667 0 27.667 0.333008 45 1
s35.5 1.66699 54.5 3s36.833 2.66602 53.5 3.99902v-112c-14.667 -3.33301 -32.5 -6.33301 -53.5 -9s-43.5 -4.66699 -67.5 -6s-47.333 -2 -70 -2zM360.002 282.004l-0.00195312 15.999c0 24 -1.16699 43 -3.5 57s-6.33301 24.5 -12 31.5s-13.5 11.5 -23.5 13.5
s-22.667 3 -38 3c-17.333 0 -31.166 -1.16699 -41.499 -3.5s-18.166 -7.16602 -23.499 -14.499s-9 -18 -11 -32s-3 -32.333 -3 -55h173zM245 576.003l-133 140v5h156l91 -139v-6h-114z" />
    <glyph glyph-name="eacute" unicode="&#xe9;" horiz-adv-x="557" 
d="M300 -8c-48 0 -87.665 3.00391 -118.998 9.00391s-56.166 15.5 -74.499 28.5s-32 29.833 -41 50.5s-14.667 45.334 -17 74.001s-3.5 62 -3.5 100c0 46 2.16699 85.667 6.5 119s14.166 60.666 29.499 81.999s39.166 37.166 71.499 47.499s76.166 15.5 131.499 15.5
c44.667 0 81 -3.16699 109 -9.5s50.167 -16 66.5 -29s28 -29.833 35 -50.5s11.5 -45.5 13.5 -74.5s3 -62.5 3 -100.5v-39h-307c0 -22.667 1 -40.834 3 -54.501s7.33301 -23.834 16 -30.501s22 -11.167 40 -13.5s43 -3.5 75 -3.5c12.667 0 27.667 0.333008 45 1
s35.5 1.66699 54.5 3s36.833 2.66602 53.5 3.99902v-112c-14.667 -3.33301 -32.5 -6.33301 -53.5 -9s-43.5 -4.66699 -67.5 -6s-47.333 -2 -70 -2zM360.002 282.004l-0.00195312 15.999c0 24 -1.16699 43 -3.5 57s-6.33301 24.5 -12 31.5s-13.5 11.5 -23.5 13.5
s-22.667 3 -38 3c-17.333 0 -31.166 -1.16699 -41.499 -3.5s-18.166 -7.16602 -23.499 -14.499s-9 -18 -11 -32s-3 -32.333 -3 -55h173zM178 576.003v5l92 140h155v-5l-133 -140h-114z" />
    <glyph glyph-name="ecircumflex" unicode="&#xea;" horiz-adv-x="557" 
d="M300 -8c-48 0 -87.665 3.00391 -118.998 9.00391s-56.166 15.5 -74.499 28.5s-32 29.833 -41 50.5s-14.667 45.334 -17 74.001s-3.5 62 -3.5 100c0 46 2.16699 85.667 6.5 119s14.166 60.666 29.499 81.999s39.166 37.166 71.499 47.499s76.166 15.5 131.499 15.5
c44.667 0 81 -3.16699 109 -9.5s50.167 -16 66.5 -29s28 -29.833 35 -50.5s11.5 -45.5 13.5 -74.5s3 -62.5 3 -100.5v-39h-307c0 -22.667 1 -40.834 3 -54.501s7.33301 -23.834 16 -30.501s22 -11.167 40 -13.5s43 -3.5 75 -3.5c12.667 0 27.667 0.333008 45 1
s35.5 1.66699 54.5 3s36.833 2.66602 53.5 3.99902v-112c-14.667 -3.33301 -32.5 -6.33301 -53.5 -9s-43.5 -4.66699 -67.5 -6s-47.333 -2 -70 -2zM360.002 282.004l-0.00195312 15.999c0 24 -1.16699 43 -3.5 57s-6.33301 24.5 -12 31.5s-13.5 11.5 -23.5 13.5
s-22.667 3 -38 3c-17.333 0 -31.166 -1.16699 -41.499 -3.5s-18.166 -7.16602 -23.499 -14.499s-9 -18 -11 -32s-3 -32.333 -3 -55h173zM115 576.003v8l94 137h149l94 -137v-8h-104l-65 81l-65 -81h-103z" />
    <glyph glyph-name="edieresis" unicode="&#xeb;" horiz-adv-x="557" 
d="M300 -8c-48 0 -87.665 3.00391 -118.998 9.00391s-56.166 15.5 -74.499 28.5s-32 29.833 -41 50.5s-14.667 45.334 -17 74.001s-3.5 62 -3.5 100c0 46 2.16699 85.667 6.5 119s14.166 60.666 29.499 81.999s39.166 37.166 71.499 47.499s76.166 15.5 131.499 15.5
c44.667 0 81 -3.16699 109 -9.5s50.167 -16 66.5 -29s28 -29.833 35 -50.5s11.5 -45.5 13.5 -74.5s3 -62.5 3 -100.5v-39h-307c0 -22.667 1 -40.834 3 -54.501s7.33301 -23.834 16 -30.501s22 -11.167 40 -13.5s43 -3.5 75 -3.5c12.667 0 27.667 0.333008 45 1
s35.5 1.66699 54.5 3s36.833 2.66602 53.5 3.99902v-112c-14.667 -3.33301 -32.5 -6.33301 -53.5 -9s-43.5 -4.66699 -67.5 -6s-47.333 -2 -70 -2zM360.002 282.004l-0.00195312 15.999c0 24 -1.16699 43 -3.5 57s-6.33301 24.5 -12 31.5s-13.5 11.5 -23.5 13.5
s-22.667 3 -38 3c-17.333 0 -31.166 -1.16699 -41.499 -3.5s-18.166 -7.16602 -23.499 -14.499s-9 -18 -11 -32s-3 -32.333 -3 -55h173zM112 595.003v108h131v-108h-131zM325 595.003v108h131v-108h-131z" />
    <glyph glyph-name="igrave" unicode="&#xec;" horiz-adv-x="286" 
d="M62 0v510h162v-510h-162zM103 576l-133 140v5h156l91 -139v-6h-114z" />
    <glyph glyph-name="iacute" unicode="&#xed;" horiz-adv-x="286" 
d="M62 0v510h162v-510h-162zM37 576v5l92 140h155v-5l-133 -140h-114z" />
    <glyph glyph-name="icircumflex" unicode="&#xee;" horiz-adv-x="286" 
d="M62 0v510h162v-510h-162zM-26 576v8l94 137h149l94 -137v-8h-104l-65 81l-65 -81h-103z" />
    <glyph glyph-name="idieresis" unicode="&#xef;" horiz-adv-x="286" 
d="M62 0v510h162v-510h-162zM-30 595v108h131v-108h-131zM183 595v108h131v-108h-131z" />
    <glyph glyph-name="eth" unicode="&#xf0;" horiz-adv-x="575" 
d="M286 -8c-45.333 0 -82.9961 2.6709 -112.996 8.00391s-53.667 14.166 -71 26.499s-30 28.666 -38 48.999s-13.167 45.166 -15.5 74.499s-3.5 64 -3.5 104c0 46.667 1.83301 86.5 5.5 119.5s11.667 60.167 24 81.5s31.166 37 56.499 47s59.666 15 102.999 15
c20.667 0 38.667 -1.16699 54 -3.5s29.666 -5.5 42.999 -9.5l4 4c-4.66699 14.667 -10.167 28.667 -16.5 42s-13.166 26 -20.499 38l-124 -17v91l66 9c-12 12.667 -24 24.667 -36 36l-35 32v4h173l26 -25l24 -25l123 18v-91l-62 -10
c13.333 -23.333 25.166 -48.833 35.499 -76.5s18.5 -59.167 24.5 -94.5c3.33301 -16.667 6.16602 -34.334 8.49902 -53.001s4 -38.334 5 -59.001s1.5 -42.667 1.5 -66c0 -42 -1.16699 -78.167 -3.5 -108.5s-7.5 -55.833 -15.5 -76.5s-20.667 -37.167 -38 -49.5
s-41 -21.166 -71 -26.499s-68 -8 -114 -8zM286.004 113.004c20.667 0 36.5 1.33398 47.5 4.00098s18.833 8.66699 23.5 18s7.66699 23.5 9 42.5s2 44.5 2 76.5c0 31.333 -0.666992 56.166 -2 74.499s-4.33301 32.5 -9 42.5s-12.5 16.667 -23.5 20s-26.833 5 -47.5 5
c-20 0 -35.5 -1.33301 -46.5 -4s-18.833 -8.66699 -23.5 -18s-7.5 -23.5 -8.5 -42.5s-1.5 -44.833 -1.5 -77.5c0 -32 0.5 -57.5 1.5 -76.5s3.83301 -33.167 8.5 -42.5s12.5 -15.333 23.5 -18s26.5 -4 46.5 -4z" />
    <glyph glyph-name="ntilde" unicode="&#xf1;" horiz-adv-x="591" 
d="M62 0l-0.000976562 510.007h152l4 -62h9c10 17.333 22.333 31.166 37 41.499s31.334 17.666 50.001 21.999s39 6.5 61 6.5c34 0 61.167 -4.33301 81.5 -13s35.833 -21.334 46.5 -38.001s17.834 -37.334 21.501 -62.001s5.5 -53.334 5.5 -86.001v-319h-161v270
c0 27.333 -0.666992 48.833 -2 64.5s-4.33301 27.167 -9 34.5s-11.834 11.833 -21.501 13.5s-22.5 2.5 -38.5 2.5c-16.667 0 -30.167 -1.83301 -40.5 -5.5s-18 -9.83398 -23 -18.501s-8.33301 -20.834 -10 -36.501s-2.5 -35.167 -2.5 -58.5v-266h-160zM104.999 572.007
c0 30.667 1.5 56.333 4.5 77s11 36.667 24 48s34.5 17 64.5 17c19.333 0 38.666 -2 57.999 -6s37.333 -8.33301 54 -13l37.5 -9c11.667 -2.66699 22.5 -4 32.5 -4c12.667 0 20 3 22 9s3 17.333 3 34h80c0 -29.333 -1.5 -54.666 -4.5 -75.999s-11 -37.5 -24 -48.5
s-34.5 -16.5 -64.5 -16.5c-20 0 -39.167 2.16699 -57.5 6.5s-36.166 8.16602 -53.499 11.499c-14 4 -27 7.33301 -39 10s-22.333 4 -31 4c-12.667 0 -20.167 -3.16699 -22.5 -9.5s-3.5 -17.833 -3.5 -34.5h-80z" />
    <glyph glyph-name="ograve" unicode="&#xf2;" horiz-adv-x="573" 
d="M286 -8c-45.333 0 -83 2.66699 -113 8s-53.667 14 -71 26s-30 28 -38 48s-13.167 45 -15.5 75s-3.5 65.667 -3.5 107s1.16699 76.833 3.5 106.5s7.5 54.5 15.5 74.5s20.667 36 38 48s41 20.5 71 25.5s67.667 7.5 113 7.5c46 0 84 -2.5 114 -7.5s53.667 -13.5 71 -25.5
s30 -28 38 -48s13.167 -44.833 15.5 -74.5s3.5 -65.167 3.5 -106.5s-1.16699 -77 -3.5 -107s-7.5 -55 -15.5 -75s-20.667 -36 -38 -48s-41 -20.667 -71 -26s-68 -8 -114 -8zM286 114c20 0 35.667 1.33301 47 4s19.333 8.66699 24 18s7.5 23.666 8.5 42.999s1.5 45 1.5 77
s-0.5 57.333 -1.5 76s-3.83301 32.667 -8.5 42s-12.667 15.333 -24 18s-27 4 -47 4s-35.5 -1.33301 -46.5 -4s-18.833 -8.66699 -23.5 -18s-7.5 -23.333 -8.5 -42s-1.5 -44 -1.5 -76s0.5 -57.667 1.5 -77s3.83301 -33.666 8.5 -42.999s12.5 -15.333 23.5 -18
s26.5 -4 46.5 -4zM247 576l-133 140v5h156l91 -139v-6h-114z" />
    <glyph glyph-name="oacute" unicode="&#xf3;" horiz-adv-x="573" 
d="M286 -8c-45.333 0 -83 2.66699 -113 8s-53.667 14 -71 26s-30 28 -38 48s-13.167 45 -15.5 75s-3.5 65.667 -3.5 107s1.16699 76.833 3.5 106.5s7.5 54.5 15.5 74.5s20.667 36 38 48s41 20.5 71 25.5s67.667 7.5 113 7.5c46 0 84 -2.5 114 -7.5s53.667 -13.5 71 -25.5
s30 -28 38 -48s13.167 -44.833 15.5 -74.5s3.5 -65.167 3.5 -106.5s-1.16699 -77 -3.5 -107s-7.5 -55 -15.5 -75s-20.667 -36 -38 -48s-41 -20.667 -71 -26s-68 -8 -114 -8zM286 114c20 0 35.667 1.33301 47 4s19.333 8.66699 24 18s7.5 23.666 8.5 42.999s1.5 45 1.5 77
s-0.5 57.333 -1.5 76s-3.83301 32.667 -8.5 42s-12.667 15.333 -24 18s-27 4 -47 4s-35.5 -1.33301 -46.5 -4s-18.833 -8.66699 -23.5 -18s-7.5 -23.333 -8.5 -42s-1.5 -44 -1.5 -76s0.5 -57.667 1.5 -77s3.83301 -33.666 8.5 -42.999s12.5 -15.333 23.5 -18
s26.5 -4 46.5 -4zM180 576v5l92 140h155v-5l-133 -140h-114z" />
    <glyph glyph-name="ocircumflex" unicode="&#xf4;" horiz-adv-x="573" 
d="M286 -8c-45.333 0 -83 2.66699 -113 8s-53.667 14 -71 26s-30 28 -38 48s-13.167 45 -15.5 75s-3.5 65.667 -3.5 107s1.16699 76.833 3.5 106.5s7.5 54.5 15.5 74.5s20.667 36 38 48s41 20.5 71 25.5s67.667 7.5 113 7.5c46 0 84 -2.5 114 -7.5s53.667 -13.5 71 -25.5
s30 -28 38 -48s13.167 -44.833 15.5 -74.5s3.5 -65.167 3.5 -106.5s-1.16699 -77 -3.5 -107s-7.5 -55 -15.5 -75s-20.667 -36 -38 -48s-41 -20.667 -71 -26s-68 -8 -114 -8zM286 114c20 0 35.667 1.33301 47 4s19.333 8.66699 24 18s7.5 23.666 8.5 42.999s1.5 45 1.5 77
s-0.5 57.333 -1.5 76s-3.83301 32.667 -8.5 42s-12.667 15.333 -24 18s-27 4 -47 4s-35.5 -1.33301 -46.5 -4s-18.833 -8.66699 -23.5 -18s-7.5 -23.333 -8.5 -42s-1.5 -44 -1.5 -76s0.5 -57.667 1.5 -77s3.83301 -33.666 8.5 -42.999s12.5 -15.333 23.5 -18
s26.5 -4 46.5 -4zM118 576v8l94 137h149l94 -137v-8h-104l-65 81l-65 -81h-103z" />
    <glyph glyph-name="otilde" unicode="&#xf5;" horiz-adv-x="573" 
d="M286 -8c-45.333 0 -83 2.66699 -113 8s-53.667 14 -71 26s-30 28 -38 48s-13.167 45 -15.5 75s-3.5 65.667 -3.5 107s1.16699 76.833 3.5 106.5s7.5 54.5 15.5 74.5s20.667 36 38 48s41 20.5 71 25.5s67.667 7.5 113 7.5c46 0 84 -2.5 114 -7.5s53.667 -13.5 71 -25.5
s30 -28 38 -48s13.167 -44.833 15.5 -74.5s3.5 -65.167 3.5 -106.5s-1.16699 -77 -3.5 -107s-7.5 -55 -15.5 -75s-20.667 -36 -38 -48s-41 -20.667 -71 -26s-68 -8 -114 -8zM286 114c20 0 35.667 1.33301 47 4s19.333 8.66699 24 18s7.5 23.666 8.5 42.999s1.5 45 1.5 77
s-0.5 57.333 -1.5 76s-3.83301 32.667 -8.5 42s-12.667 15.333 -24 18s-27 4 -47 4s-35.5 -1.33301 -46.5 -4s-18.833 -8.66699 -23.5 -18s-7.5 -23.333 -8.5 -42s-1.5 -44 -1.5 -76s0.5 -57.667 1.5 -77s3.83301 -33.666 8.5 -42.999s12.5 -15.333 23.5 -18
s26.5 -4 46.5 -4zM96 572c0 30.667 1.5 56.333 4.5 77s11 36.667 24 48s34.5 17 64.5 17c19.333 0 38.666 -2 57.999 -6s37.333 -8.33301 54 -13l37.5 -9c11.667 -2.66699 22.5 -4 32.5 -4c12.667 0 20 3 22 9s3 17.333 3 34h80c0 -29.333 -1.5 -54.666 -4.5 -75.999
s-11 -37.5 -24 -48.5s-34.5 -16.5 -64.5 -16.5c-20 0 -39.167 2.16699 -57.5 6.5s-36.166 8.16602 -53.499 11.499c-14 4 -27 7.33301 -39 10s-22.333 4 -31 4c-12.667 0 -20.167 -3.16699 -22.5 -9.5s-3.5 -17.833 -3.5 -34.5h-80z" />
    <glyph glyph-name="odieresis" unicode="&#xf6;" horiz-adv-x="573" 
d="M286 -8c-45.333 0 -83 2.66699 -113 8s-53.667 14 -71 26s-30 28 -38 48s-13.167 45 -15.5 75s-3.5 65.667 -3.5 107s1.16699 76.833 3.5 106.5s7.5 54.5 15.5 74.5s20.667 36 38 48s41 20.5 71 25.5s67.667 7.5 113 7.5c46 0 84 -2.5 114 -7.5s53.667 -13.5 71 -25.5
s30 -28 38 -48s13.167 -44.833 15.5 -74.5s3.5 -65.167 3.5 -106.5s-1.16699 -77 -3.5 -107s-7.5 -55 -15.5 -75s-20.667 -36 -38 -48s-41 -20.667 -71 -26s-68 -8 -114 -8zM286 114c20 0 35.667 1.33301 47 4s19.333 8.66699 24 18s7.5 23.666 8.5 42.999s1.5 45 1.5 77
s-0.5 57.333 -1.5 76s-3.83301 32.667 -8.5 42s-12.667 15.333 -24 18s-27 4 -47 4s-35.5 -1.33301 -46.5 -4s-18.833 -8.66699 -23.5 -18s-7.5 -23.333 -8.5 -42s-1.5 -44 -1.5 -76s0.5 -57.667 1.5 -77s3.83301 -33.666 8.5 -42.999s12.5 -15.333 23.5 -18
s26.5 -4 46.5 -4zM115 595v108h131v-108h-131zM328 595v108h131v-108h-131z" />
    <glyph glyph-name="divide" unicode="&#xf7;" horiz-adv-x="540" 
d="M70 195v115h400v-115h-400zM211 15v101h117v-101h-117zM211 389v101h117v-101h-117z" />
    <glyph glyph-name="oslash" unicode="&#xf8;" horiz-adv-x="573" 
d="M45 -55l355 620h128l-356 -620h-127zM286 -8c-45.333 0 -83 2.66699 -113 8s-53.667 14 -71 26s-30 28 -38 48s-13.167 45 -15.5 75s-3.5 65.667 -3.5 107s1.16699 76.833 3.5 106.5s7.5 54.5 15.5 74.5s20.667 36 38 48s41 20.5 71 25.5s67.667 7.5 113 7.5
c46 0 84 -2.5 114 -7.5s53.667 -13.5 71 -25.5s30 -28 38 -48s13.167 -44.833 15.5 -74.5s3.5 -65.167 3.5 -106.5s-1.16699 -77 -3.5 -107s-7.5 -55 -15.5 -75s-20.667 -36 -38 -48s-41 -20.667 -71 -26s-68 -8 -114 -8zM286 114c20 0 35.667 1.33301 47 4
s19.333 8.66699 24 18s7.5 23.666 8.5 42.999s1.5 45 1.5 77s-0.5 57.333 -1.5 76s-3.83301 32.667 -8.5 42s-12.667 15.333 -24 18s-27 4 -47 4s-35.5 -1.33301 -46.5 -4s-18.833 -8.66699 -23.5 -18s-7.5 -23.333 -8.5 -42s-1.5 -44 -1.5 -76s0.5 -57.667 1.5 -77
s3.83301 -33.666 8.5 -42.999s12.5 -15.333 23.5 -18s26.5 -4 46.5 -4z" />
    <glyph glyph-name="ugrave" unicode="&#xf9;" horiz-adv-x="591" 
d="M217 -8c-34 0 -61.332 4.32617 -81.999 12.9932s-36.334 21.334 -47.001 38.001s-17.667 37.334 -21 62.001s-5 53.334 -5 86.001v319h160v-270c0 -27.333 0.833008 -48.833 2.5 -64.5s4.83398 -27.167 9.50098 -34.5s11.667 -11.833 21 -13.5s22 -2.5 38 -2.5
c17.333 0 31.166 1.83301 41.499 5.5s17.833 9.83398 22.5 18.501s7.83398 20.834 9.50098 36.501s2.5 35.167 2.5 58.5v266h161v-510h-153l-4 62h-9c-9.33301 -17.333 -21.333 -31.166 -36 -41.499s-31.334 -17.666 -50.001 -21.999s-39 -6.5 -61 -6.5zM256.001 575.993
l-133 140v5h156l91 -139v-6h-114z" />
    <glyph glyph-name="uacute" unicode="&#xfa;" horiz-adv-x="591" 
d="M217 -8c-34 0 -61.332 4.32617 -81.999 12.9932s-36.334 21.334 -47.001 38.001s-17.667 37.334 -21 62.001s-5 53.334 -5 86.001v319h160v-270c0 -27.333 0.833008 -48.833 2.5 -64.5s4.83398 -27.167 9.50098 -34.5s11.667 -11.833 21 -13.5s22 -2.5 38 -2.5
c17.333 0 31.166 1.83301 41.499 5.5s17.833 9.83398 22.5 18.501s7.83398 20.834 9.50098 36.501s2.5 35.167 2.5 58.5v266h161v-510h-153l-4 62h-9c-9.33301 -17.333 -21.333 -31.166 -36 -41.499s-31.334 -17.666 -50.001 -21.999s-39 -6.5 -61 -6.5zM190.001 575.993v5
l92 140h155v-5l-133 -140h-114z" />
    <glyph glyph-name="ucircumflex" unicode="&#xfb;" horiz-adv-x="591" 
d="M217 -8c-34 0 -61.332 4.32617 -81.999 12.9932s-36.334 21.334 -47.001 38.001s-17.667 37.334 -21 62.001s-5 53.334 -5 86.001v319h160v-270c0 -27.333 0.833008 -48.833 2.5 -64.5s4.83398 -27.167 9.50098 -34.5s11.667 -11.833 21 -13.5s22 -2.5 38 -2.5
c17.333 0 31.166 1.83301 41.499 5.5s17.833 9.83398 22.5 18.501s7.83398 20.834 9.50098 36.501s2.5 35.167 2.5 58.5v266h161v-510h-153l-4 62h-9c-9.33301 -17.333 -21.333 -31.166 -36 -41.499s-31.334 -17.666 -50.001 -21.999s-39 -6.5 -61 -6.5zM127.001 575.993v8
l94 137h149l94 -137v-8h-104l-65 81l-65 -81h-103z" />
    <glyph glyph-name="udieresis" unicode="&#xfc;" horiz-adv-x="591" 
d="M217 -8c-34 0 -61.332 4.32617 -81.999 12.9932s-36.334 21.334 -47.001 38.001s-17.667 37.334 -21 62.001s-5 53.334 -5 86.001v319h160v-270c0 -27.333 0.833008 -48.833 2.5 -64.5s4.83398 -27.167 9.50098 -34.5s11.667 -11.833 21 -13.5s22 -2.5 38 -2.5
c17.333 0 31.166 1.83301 41.499 5.5s17.833 9.83398 22.5 18.501s7.83398 20.834 9.50098 36.501s2.5 35.167 2.5 58.5v266h161v-510h-153l-4 62h-9c-9.33301 -17.333 -21.333 -31.166 -36 -41.499s-31.334 -17.666 -50.001 -21.999s-39 -6.5 -61 -6.5zM124.001 594.993
v108h131v-108h-131zM337.001 594.993v108h131v-108h-131z" />
    <glyph glyph-name="yacute" unicode="&#xfd;" horiz-adv-x="591" 
d="M277 -206c-20.667 0 -41.999 0.500977 -63.999 1.50098s-42.833 2.5 -62.5 4.5s-36.834 4 -51.501 6v111c20.667 0 39.167 -0.166992 55.5 -0.5s31.333 -0.5 45 -0.5h38.5c31.333 0 56 1.33301 74 4s31 7.66699 39 15s13 18.5 15 33.5s3 34.5 3 58.5v41h-8
c-9.33301 -16 -21 -28.833 -35 -38.5s-30.167 -16.667 -48.5 -21s-38.5 -6.5 -60.5 -6.5c-34 0 -61.333 4.16699 -82 12.5s-36.334 21 -47.001 38s-17.667 37.667 -21 62s-5 52.833 -5 85.5v310h160v-261c0 -27.333 0.833008 -48.833 2.5 -64.5
s4.83398 -27.167 9.50098 -34.5s11.667 -12 21 -14s22 -3 38 -3c17.333 0 31.166 1.83301 41.499 5.5s17.833 10 22.5 19s7.83398 21.333 9.50098 37s2.5 35.167 2.5 58.5v257h161v-453c0 -44.667 -2.33301 -83.5 -7 -116.5s-15 -60.333 -31 -82
s-41.167 -37.834 -75.5 -48.501s-80.833 -16 -139.5 -16zM190.001 576.001v5l92 140h155v-5l-133 -140h-114z" />
    <glyph glyph-name="thorn" unicode="&#xfe;" horiz-adv-x="585" 
d="M62 -189l-0.000976562 932h160v-293h9c10.667 19.333 23.167 33.833 37.5 43.5s30.5 16.167 48.5 19.5s36.333 5 55 5c30 0 55.5 -4 76.5 -12s38.333 -21.833 52 -41.5s23.667 -46.5 30 -80.5s9.5 -76.667 9.5 -128c0 -50.667 -3.16699 -93 -9.5 -127
s-16.166 -61 -29.499 -81s-30.5 -34.333 -51.5 -43s-46.5 -13 -76.5 -13s-57.167 4 -81.5 12s-44.5 24.667 -60.5 50h-9v-243h-160zM299.999 124c18 0 32.335 1.33398 43.002 4.00098s18.5 8.16699 23.5 16.5s8.33301 21.166 10 38.499s2.5 41.333 2.5 72
s-0.833008 54.834 -2.5 72.501s-5 30.667 -10 39s-12.833 13.666 -23.5 15.999s-25 3.5 -43 3.5c-18.667 0 -33.334 -2.33301 -44.001 -7s-18.334 -13.334 -23.001 -26.001c-4.66699 -10.667 -7.66699 -24.167 -9 -40.5s-2 -35.5 -2 -57.5s0.666992 -40.667 2 -56
s3.66602 -27.666 6.99902 -36.999c4.66699 -14.667 12.334 -24.667 23.001 -30s26 -8 46 -8z" />
    <glyph glyph-name="ydieresis" unicode="&#xff;" horiz-adv-x="591" 
d="M277 -206c-20.667 0 -41.999 0.500977 -63.999 1.50098s-42.833 2.5 -62.5 4.5s-36.834 4 -51.501 6v111c20.667 0 39.167 -0.166992 55.5 -0.5s31.333 -0.5 45 -0.5h38.5c31.333 0 56 1.33301 74 4s31 7.66699 39 15s13 18.5 15 33.5s3 34.5 3 58.5v41h-8
c-9.33301 -16 -21 -28.833 -35 -38.5s-30.167 -16.667 -48.5 -21s-38.5 -6.5 -60.5 -6.5c-34 0 -61.333 4.16699 -82 12.5s-36.334 21 -47.001 38s-17.667 37.667 -21 62s-5 52.833 -5 85.5v310h160v-261c0 -27.333 0.833008 -48.833 2.5 -64.5
s4.83398 -27.167 9.50098 -34.5s11.667 -12 21 -14s22 -3 38 -3c17.333 0 31.166 1.83301 41.499 5.5s17.833 10 22.5 19s7.83398 21.333 9.50098 37s2.5 35.167 2.5 58.5v257h161v-453c0 -44.667 -2.33301 -83.5 -7 -116.5s-15 -60.333 -31 -82
s-41.167 -37.834 -75.5 -48.501s-80.833 -16 -139.5 -16zM124.001 595.001v108h131v-108h-131zM337.001 595.001v108h131v-108h-131z" />
    <glyph glyph-name="Amacron" unicode="&#x100;" 
d="M8 0l218 688h237l219 -688h-176l-41 135h-245l-40 -135h-172zM257 266h170l-82 272h-7zM180 773v93h330v-93h-330z" />
    <glyph glyph-name="amacron" unicode="&#x101;" horiz-adv-x="566" 
d="M186 -8c-32 0 -58.9961 5 -80.9961 15s-38.5 26.333 -49.5 49s-16.5 52.334 -16.5 89.001c0 38.667 4.5 69.5 13.5 92.5s25.167 39.5 48.5 49.5s56.333 15 99 15c6 0 14.5 -0.166992 25.5 -0.5s23.5 -0.666016 37.5 -0.999023l42 -1
c14 -0.333008 26.667 -0.833008 38 -1.5v19c0 19.333 -1.5 34.333 -4.5 45s-8.66699 18.5 -17 23.5s-20.833 8 -37.5 9s-38.667 1.5 -66 1.5c-15.333 0 -32.166 -0.333008 -50.499 -1s-36.333 -1.5 -54 -2.5s-32.5 -2.16699 -44.5 -3.5v113
c27.333 4.66699 58.166 8.5 92.499 11.5s70.5 4.5 108.5 4.5c42.667 0 78.167 -2.66699 106.5 -8s51.166 -13.5 68.499 -24.5s30.166 -24.833 38.499 -41.5s13.833 -36.334 16.5 -59.001s4 -48.334 4 -77.001v-308h-154l-4 60h-8c-12.667 -20 -27.334 -35 -44.001 -45
s-34.334 -16.333 -53.001 -19s-37 -4 -55 -4zM262.004 106c12 0 22.502 0.830078 31.502 2.49707s16.667 4.66699 23 9s11.5 9.83301 15.5 16.5c3.33301 7.33301 6 16.333 8 27s3 23.334 3 38.001v19h-93c-16.667 0 -29.334 -1.16699 -38.001 -3.5
s-14.5 -7.66602 -17.5 -15.999s-4.5 -21.166 -4.5 -38.499c0 -14.667 1.66699 -26 5 -34s10.166 -13.333 20.499 -16s25.833 -4 46.5 -4zM120.006 594.997v93h330v-93h-330z" />
    <glyph glyph-name="Abreve" unicode="&#x102;" 
d="M8 0l218 688h237l219 -688h-176l-41 135h-245l-40 -135h-172zM257 266h170l-82 272h-7zM344 747c-33.333 0 -60.1709 3.66699 -80.5039 11s-35.666 17.666 -45.999 30.999s-17.166 29.166 -20.499 47.499s-5 38.5 -5 60.5h88c0 -13.333 0.833008 -24.666 2.5 -33.999
s7 -16.666 16 -21.999s23.833 -8 44.5 -8c21.333 0 36.5 2.66699 45.5 8s14.5 12.666 16.5 21.999s3 20.666 3 33.999h89c0 -22 -1.83301 -42.167 -5.5 -60.5s-10.667 -34.166 -21 -47.499s-25.666 -23.666 -45.999 -30.999s-47.166 -11 -80.499 -11z" />
    <glyph glyph-name="abreve" unicode="&#x103;" horiz-adv-x="566" 
d="M186 -8c-32 0 -58.9961 5 -80.9961 15s-38.5 26.333 -49.5 49s-16.5 52.334 -16.5 89.001c0 38.667 4.5 69.5 13.5 92.5s25.167 39.5 48.5 49.5s56.333 15 99 15c6 0 14.5 -0.166992 25.5 -0.5s23.5 -0.666016 37.5 -0.999023l42 -1
c14 -0.333008 26.667 -0.833008 38 -1.5v19c0 19.333 -1.5 34.333 -4.5 45s-8.66699 18.5 -17 23.5s-20.833 8 -37.5 9s-38.667 1.5 -66 1.5c-15.333 0 -32.166 -0.333008 -50.499 -1s-36.333 -1.5 -54 -2.5s-32.5 -2.16699 -44.5 -3.5v113
c27.333 4.66699 58.166 8.5 92.499 11.5s70.5 4.5 108.5 4.5c42.667 0 78.167 -2.66699 106.5 -8s51.166 -13.5 68.499 -24.5s30.166 -24.833 38.499 -41.5s13.833 -36.334 16.5 -59.001s4 -48.334 4 -77.001v-308h-154l-4 60h-8c-12.667 -20 -27.334 -35 -44.001 -45
s-34.334 -16.333 -53.001 -19s-37 -4 -55 -4zM262.004 106c12 0 22.502 0.830078 31.502 2.49707s16.667 4.66699 23 9s11.5 9.83301 15.5 16.5c3.33301 7.33301 6 16.333 8 27s3 23.334 3 38.001v19h-93c-16.667 0 -29.334 -1.16699 -38.001 -3.5
s-14.5 -7.66602 -17.5 -15.999s-4.5 -21.166 -4.5 -38.499c0 -14.667 1.66699 -26 5 -34s10.166 -13.333 20.499 -16s25.833 -4 46.5 -4zM284.006 569.997c-33.333 0 -60.1709 3.66699 -80.5039 11s-35.666 17.666 -45.999 30.999s-17.166 29.166 -20.499 47.499
s-5 38.166 -5 59.499h88c0 -12.667 0.833008 -23.834 2.5 -33.501s7 -17.167 16 -22.5s23.833 -8 44.5 -8c21.333 0 36.5 2.66699 45.5 8s14.5 12.833 16.5 22.5s3 20.834 3 33.501h89c0 -21.333 -1.83301 -41.166 -5.5 -59.499s-10.667 -34.166 -21 -47.499
s-25.666 -23.666 -45.999 -30.999s-47.166 -11 -80.499 -11z" />
    <glyph glyph-name="Aogonek" unicode="&#x104;" 
d="M8 0l218 688h237l219 -688h-176l-41 135h-245l-40 -135h-172zM257 266h170l-82 272h-7zM614 -200c-32.667 0 -58.168 3.83301 -76.501 11.5s-31.166 18 -38.499 31s-11 26.833 -11 41.5c0 21.333 7 43 21 65s32 42.333 54 61l119 -10
c-8.66699 -5.33301 -17.834 -12.666 -27.501 -21.999s-18 -19.333 -25 -30s-10.5 -20.667 -10.5 -30c0 -10.667 3 -19.167 9 -25.5s18.667 -9.5 38 -9.5h6.5c3 0 6.5 0.333008 10.5 1v-81c-10 -0.666992 -21.167 -1.33398 -33.5 -2.00098s-24.166 -1 -35.499 -1z" />
    <glyph glyph-name="aogonek" unicode="&#x105;" horiz-adv-x="566" 
d="M186 -8c-32 0 -58.9961 5 -80.9961 15s-38.5 26.333 -49.5 49s-16.5 52.334 -16.5 89.001c0 38.667 4.5 69.5 13.5 92.5s25.167 39.5 48.5 49.5s56.333 15 99 15c6 0 14.5 -0.166992 25.5 -0.5s23.5 -0.666016 37.5 -0.999023l42 -1
c14 -0.333008 26.667 -0.833008 38 -1.5v19c0 19.333 -1.5 34.333 -4.5 45s-8.66699 18.5 -17 23.5s-20.833 8 -37.5 9s-38.667 1.5 -66 1.5c-15.333 0 -32.166 -0.333008 -50.499 -1s-36.333 -1.5 -54 -2.5s-32.5 -2.16699 -44.5 -3.5v113
c27.333 4.66699 58.166 8.5 92.499 11.5s70.5 4.5 108.5 4.5c42.667 0 78.167 -2.66699 106.5 -8s51.166 -13.5 68.499 -24.5s30.166 -24.833 38.499 -41.5s13.833 -36.334 16.5 -59.001s4 -48.334 4 -77.001v-308h-154l-4 60h-8c-12.667 -20 -27.334 -35 -44.001 -45
s-34.334 -16.333 -53.001 -19s-37 -4 -55 -4zM262.004 106c12 0 22.502 0.830078 31.502 2.49707s16.667 4.66699 23 9s11.5 9.83301 15.5 16.5c3.33301 7.33301 6 16.333 8 27s3 23.334 3 38.001v19h-93c-16.667 0 -29.334 -1.16699 -38.001 -3.5
s-14.5 -7.66602 -17.5 -15.999s-4.5 -21.166 -4.5 -38.499c0 -14.667 1.66699 -26 5 -34s10.166 -13.333 20.499 -16s25.833 -4 46.5 -4zM436.006 -200.003c-32.667 0 -58.168 3.83301 -76.501 11.5s-31.166 18 -38.499 31s-11 26.833 -11 41.5c0 21.333 7 43 21 65
s32 42.333 54 61l119 -10c-8.66699 -5.33301 -17.834 -12.666 -27.501 -21.999s-18 -19.333 -25 -30s-10.5 -20.667 -10.5 -30c0 -10.667 3 -19.167 9 -25.5s18.667 -9.5 38 -9.5h6.5c3 0 6.5 0.333008 10.5 1v-81c-10 -0.666992 -21.167 -1.33398 -33.5 -2.00098
s-24.166 -1 -35.499 -1z" />
    <glyph glyph-name="Cacute" unicode="&#x106;" horiz-adv-x="570" 
d="M347 -8c-52 0 -95.3301 3.49805 -129.997 10.498s-62.834 18.5 -84.501 34.5s-38 37.333 -49 64s-18.5 60 -22.5 100s-6 87.667 -6 143s2 103 6 143s11.5 73.333 22.5 100s27.333 48 49 64s49.834 27.5 84.501 34.5s78 10.5 130 10.5c20 0 40.667 -0.666992 62 -2
s42 -3.33301 62 -6s37 -6 51 -10v-125l-56.5 5.5c-17 1.66699 -31.833 2.66699 -44.5 3s-23.334 0.5 -32.001 0.5c-30.667 0 -55.834 -1.16699 -75.501 -3.5s-35.167 -7.5 -46.5 -15.5s-19.666 -19.833 -24.999 -35.5s-8.83301 -36.667 -10.5 -63s-2.5 -59.833 -2.5 -100.5
c0 -40 0.833008 -73.333 2.5 -100s5.16699 -48 10.5 -64s13.666 -27.833 24.999 -35.5s26.833 -12.667 46.5 -15s44.834 -3.5 75.501 -3.5c20.667 0 44 0.833008 70 2.5s48.333 3.83398 67 6.50098v-128c-14.667 -2.66699 -32.334 -5.16699 -53.001 -7.5
s-41.834 -4.16602 -63.501 -5.49902s-42.5 -2 -62.5 -2zM244.003 753.998v5l92 140h155v-5l-133 -140h-114z" />
    <glyph glyph-name="cacute" unicode="&#x107;" horiz-adv-x="463" 
d="M267 -8c-42.667 0 -77.668 3.83398 -105.001 11.501s-49 18.667 -65 33s-27.667 32.166 -35 53.499s-12 45.833 -14 73.5s-3 58.167 -3 91.5c0 32.667 1 62.667 3 90s7 51.833 15 73.5s19.833 39.834 35.5 54.501s37 25.834 64 33.501s61.5 11.5 103.5 11.5
c26.667 0 53.5 -1.33301 80.5 -4s51.167 -6.66699 72.5 -12v-113c-13.333 2 -30.5 3.66699 -51.5 5s-40.5 2 -58.5 2c-23.333 0 -41.666 -1.83301 -54.999 -5.5s-23.333 -10.334 -30 -20.001s-11.167 -23.834 -13.5 -42.501s-3.5 -43 -3.5 -73s1.16699 -54.5 3.5 -73.5
s6.83301 -33.333 13.5 -43s17 -16.167 31 -19.5s32.333 -5 55 -5c16 0 34.167 0.666992 54.5 2s39.833 3 58.5 5v-113c-22 -4.66699 -47 -8.5 -75 -11.5s-55 -4.5 -81 -4.5zM140.999 576.001v5l92 140h155v-5l-133 -140h-114z" />
    <glyph glyph-name="Ccircumflex" unicode="&#x108;" horiz-adv-x="570" 
d="M347 -8c-52 0 -95.3301 3.49805 -129.997 10.498s-62.834 18.5 -84.501 34.5s-38 37.333 -49 64s-18.5 60 -22.5 100s-6 87.667 -6 143s2 103 6 143s11.5 73.333 22.5 100s27.333 48 49 64s49.834 27.5 84.501 34.5s78 10.5 130 10.5c20 0 40.667 -0.666992 62 -2
s42 -3.33301 62 -6s37 -6 51 -10v-125l-56.5 5.5c-17 1.66699 -31.833 2.66699 -44.5 3s-23.334 0.5 -32.001 0.5c-30.667 0 -55.834 -1.16699 -75.501 -3.5s-35.167 -7.5 -46.5 -15.5s-19.666 -19.833 -24.999 -35.5s-8.83301 -36.667 -10.5 -63s-2.5 -59.833 -2.5 -100.5
c0 -40 0.833008 -73.333 2.5 -100s5.16699 -48 10.5 -64s13.666 -27.833 24.999 -35.5s26.833 -12.667 46.5 -15s44.834 -3.5 75.501 -3.5c20.667 0 44 0.833008 70 2.5s48.333 3.83398 67 6.50098v-128c-14.667 -2.66699 -32.334 -5.16699 -53.001 -7.5
s-41.834 -4.16602 -63.501 -5.49902s-42.5 -2 -62.5 -2zM160.003 753.998v8l94 137h149l94 -137v-8h-104l-65 81l-65 -81h-103z" />
    <glyph glyph-name="ccircumflex" unicode="&#x109;" horiz-adv-x="463" 
d="M267 -8c-42.667 0 -77.668 3.83398 -105.001 11.501s-49 18.667 -65 33s-27.667 32.166 -35 53.499s-12 45.833 -14 73.5s-3 58.167 -3 91.5c0 32.667 1 62.667 3 90s7 51.833 15 73.5s19.833 39.834 35.5 54.501s37 25.834 64 33.501s61.5 11.5 103.5 11.5
c26.667 0 53.5 -1.33301 80.5 -4s51.167 -6.66699 72.5 -12v-113c-13.333 2 -30.5 3.66699 -51.5 5s-40.5 2 -58.5 2c-23.333 0 -41.666 -1.83301 -54.999 -5.5s-23.333 -10.334 -30 -20.001s-11.167 -23.834 -13.5 -42.501s-3.5 -43 -3.5 -73s1.16699 -54.5 3.5 -73.5
s6.83301 -33.333 13.5 -43s17 -16.167 31 -19.5s32.333 -5 55 -5c16 0 34.167 0.666992 54.5 2s39.833 3 58.5 5v-113c-22 -4.66699 -47 -8.5 -75 -11.5s-55 -4.5 -81 -4.5zM78.999 576.001v8l94 137h149l94 -137v-8h-104l-65 81l-65 -81h-103z" />
    <glyph glyph-name="Cdotaccent" unicode="&#x10a;" horiz-adv-x="570" 
d="M347 -8c-52 0 -95.3301 3.49805 -129.997 10.498s-62.834 18.5 -84.501 34.5s-38 37.333 -49 64s-18.5 60 -22.5 100s-6 87.667 -6 143s2 103 6 143s11.5 73.333 22.5 100s27.333 48 49 64s49.834 27.5 84.501 34.5s78 10.5 130 10.5c20 0 40.667 -0.666992 62 -2
s42 -3.33301 62 -6s37 -6 51 -10v-125l-56.5 5.5c-17 1.66699 -31.833 2.66699 -44.5 3s-23.334 0.5 -32.001 0.5c-30.667 0 -55.834 -1.16699 -75.501 -3.5s-35.167 -7.5 -46.5 -15.5s-19.666 -19.833 -24.999 -35.5s-8.83301 -36.667 -10.5 -63s-2.5 -59.833 -2.5 -100.5
c0 -40 0.833008 -73.333 2.5 -100s5.16699 -48 10.5 -64s13.666 -27.833 24.999 -35.5s26.833 -12.667 46.5 -15s44.834 -3.5 75.501 -3.5c20.667 0 44 0.833008 70 2.5s48.333 3.83398 67 6.50098v-128c-14.667 -2.66699 -32.334 -5.16699 -53.001 -7.5
s-41.834 -4.16602 -63.501 -5.49902s-42.5 -2 -62.5 -2zM263.003 772.998v108h131v-108h-131z" />
    <glyph glyph-name="cdotaccent" unicode="&#x10b;" horiz-adv-x="463" 
d="M267 -8c-42.667 0 -77.668 3.83398 -105.001 11.501s-49 18.667 -65 33s-27.667 32.166 -35 53.499s-12 45.833 -14 73.5s-3 58.167 -3 91.5c0 32.667 1 62.667 3 90s7 51.833 15 73.5s19.833 39.834 35.5 54.501s37 25.834 64 33.501s61.5 11.5 103.5 11.5
c26.667 0 53.5 -1.33301 80.5 -4s51.167 -6.66699 72.5 -12v-113c-13.333 2 -30.5 3.66699 -51.5 5s-40.5 2 -58.5 2c-23.333 0 -41.666 -1.83301 -54.999 -5.5s-23.333 -10.334 -30 -20.001s-11.167 -23.834 -13.5 -42.501s-3.5 -43 -3.5 -73s1.16699 -54.5 3.5 -73.5
s6.83301 -33.333 13.5 -43s17 -16.167 31 -19.5s32.333 -5 55 -5c16 0 34.167 0.666992 54.5 2s39.833 3 58.5 5v-113c-22 -4.66699 -47 -8.5 -75 -11.5s-55 -4.5 -81 -4.5zM181.999 595.001v108h131v-108h-131z" />
    <glyph glyph-name="Ccaron" unicode="&#x10c;" horiz-adv-x="570" 
d="M347 -8c-52 0 -95.3301 3.49805 -129.997 10.498s-62.834 18.5 -84.501 34.5s-38 37.333 -49 64s-18.5 60 -22.5 100s-6 87.667 -6 143s2 103 6 143s11.5 73.333 22.5 100s27.333 48 49 64s49.834 27.5 84.501 34.5s78 10.5 130 10.5c20 0 40.667 -0.666992 62 -2
s42 -3.33301 62 -6s37 -6 51 -10v-125l-56.5 5.5c-17 1.66699 -31.833 2.66699 -44.5 3s-23.334 0.5 -32.001 0.5c-30.667 0 -55.834 -1.16699 -75.501 -3.5s-35.167 -7.5 -46.5 -15.5s-19.666 -19.833 -24.999 -35.5s-8.83301 -36.667 -10.5 -63s-2.5 -59.833 -2.5 -100.5
c0 -40 0.833008 -73.333 2.5 -100s5.16699 -48 10.5 -64s13.666 -27.833 24.999 -35.5s26.833 -12.667 46.5 -15s44.834 -3.5 75.501 -3.5c20.667 0 44 0.833008 70 2.5s48.333 3.83398 67 6.50098v-128c-14.667 -2.66699 -32.334 -5.16699 -53.001 -7.5
s-41.834 -4.16602 -63.501 -5.49902s-42.5 -2 -62.5 -2zM254.003 753.998l-94 138v7h103l66 -81l64 81h104v-7l-94 -138h-149z" />
    <glyph glyph-name="ccaron" unicode="&#x10d;" horiz-adv-x="463" 
d="M267 -8c-42.667 0 -77.668 3.83398 -105.001 11.501s-49 18.667 -65 33s-27.667 32.166 -35 53.499s-12 45.833 -14 73.5s-3 58.167 -3 91.5c0 32.667 1 62.667 3 90s7 51.833 15 73.5s19.833 39.834 35.5 54.501s37 25.834 64 33.501s61.5 11.5 103.5 11.5
c26.667 0 53.5 -1.33301 80.5 -4s51.167 -6.66699 72.5 -12v-113c-13.333 2 -30.5 3.66699 -51.5 5s-40.5 2 -58.5 2c-23.333 0 -41.666 -1.83301 -54.999 -5.5s-23.333 -10.334 -30 -20.001s-11.167 -23.834 -13.5 -42.501s-3.5 -43 -3.5 -73s1.16699 -54.5 3.5 -73.5
s6.83301 -33.333 13.5 -43s17 -16.167 31 -19.5s32.333 -5 55 -5c16 0 34.167 0.666992 54.5 2s39.833 3 58.5 5v-113c-22 -4.66699 -47 -8.5 -75 -11.5s-55 -4.5 -81 -4.5zM172.999 576.001l-94 138v7h103l66 -81l64 81h104v-7l-94 -138h-149z" />
    <glyph glyph-name="Dcaron" unicode="&#x10e;" horiz-adv-x="678" 
d="M71 0v687.996h241c61.333 0 111.333 -3.16699 150 -9.5s69 -17 91 -32s37.833 -35.667 47.5 -62s15.834 -59.166 18.501 -98.499s4 -86.666 4 -141.999s-1.33301 -102.666 -4 -141.999s-8.83398 -72.166 -18.501 -98.499s-25.5 -47 -47.5 -62s-52.333 -25.667 -91 -32
s-88.667 -9.5 -150 -9.5h-241zM245 133.996l63.002 0.00195312c27.333 0 49.666 0.833008 66.999 2.5s31.166 5.66699 41.499 12s17.666 17 21.999 32s7 35.667 8 62s1.5 60.166 1.5 101.499s-0.5 75.166 -1.5 101.499s-3.83301 47 -8.5 62s-12 25.833 -22 32.5
s-23.667 10.667 -41 12s-39.666 2 -66.999 2h-63v-420zM265.002 753.998l-94 138v7h103l66 -81l64 81h104v-7l-94 -138h-149z" />
    <glyph glyph-name="dcaron" unicode="&#x10f;" horiz-adv-x="585" 
d="M212 -8c-29.333 0 -54.6719 4 -76.0049 12s-38.666 21.833 -51.999 41.5s-23.166 46.5 -29.499 80.5s-9.5 76.667 -9.5 128c0 50.667 3 93.167 9 127.5s15.667 61.333 29 81s30.5 33.834 51.5 42.501s46.5 13 76.5 13c20 0 38.833 -1.66699 56.5 -5
s33.834 -9.33301 48.501 -18s27.334 -21.667 38.001 -39h8v287h161v-743h-153l-4 61h-8c-10 -19.333 -22.833 -33.833 -38.5 -43.5s-32.667 -16.334 -51 -20.001s-37.166 -5.5 -56.499 -5.5zM283.994 124c20.667 0 36.168 2.49805 46.501 7.49805s17.833 14.167 22.5 27.5
c4 12 6.5 25.833 7.5 41.5s1.5 33.834 1.5 54.501s-0.5 38.667 -1.5 54s-3.5 28.333 -7.5 39c-4 14.667 -11.333 24.667 -22 30s-26.334 8 -47.001 8c-18 0 -32.333 -1.33301 -43 -4s-18.5 -8.16699 -23.5 -16.5s-8.16699 -21.166 -9.5 -38.499s-2 -41.333 -2 -72
s0.666992 -54.834 2 -72.501s4.5 -30.667 9.5 -39s12.833 -13.666 23.5 -15.999s25 -3.5 43 -3.5zM552.995 428.998l13 202v57h125v-57l-48 -202h-90z" />
    <glyph glyph-name="Dcroat" unicode="&#x110;" horiz-adv-x="678" 
d="M71 0v290.996h-64v115h64v282h241c61.333 0 111.333 -3.16699 150 -9.5s69 -17 91 -32s37.833 -35.667 47.5 -62s15.834 -59.166 18.501 -98.499s4 -86.666 4 -141.999s-1.33301 -102.666 -4 -141.999s-8.83398 -72.166 -18.501 -98.499s-25.5 -47 -47.5 -62
s-52.333 -25.667 -91 -32s-88.667 -9.5 -150 -9.5h-241zM245 133.996l63.0039 0.00195312c27.333 0 49.666 0.833008 66.999 2.5s31.166 5.66699 41.499 12s17.666 17 21.999 32s7 35.667 8 62s1.5 60.166 1.5 101.499s-0.5 75.166 -1.5 101.499s-3.83301 47 -8.5 62
s-12 25.833 -22 32.5s-23.833 10.667 -41.5 12s-39.834 2 -66.501 2h-63v-148h80v-115h-80v-157z" />
    <glyph glyph-name="dcroat" unicode="&#x111;" horiz-adv-x="585" 
d="M240 605v83h343v-83h-343zM212 -8c-29.333 0 -54.6719 4 -76.0049 12s-38.666 21.833 -51.999 41.5s-23.166 46.5 -29.499 80.5s-9.5 76.667 -9.5 128c0 50.667 3 93.167 9 127.5s15.667 61.333 29 81s30.5 33.834 51.5 42.501s46.5 13 76.5 13
c20 0 38.833 -1.66699 56.5 -5s33.834 -9.33301 48.501 -18s27.334 -21.667 38.001 -39h8v287h161v-743h-153l-4 61h-8c-10 -19.333 -22.833 -33.833 -38.5 -43.5s-32.667 -16.334 -51 -20.001s-37.166 -5.5 -56.499 -5.5zM283.994 124
c20.667 0 36.168 2.49805 46.501 7.49805s17.833 14.167 22.5 27.5c4 12 6.5 25.833 7.5 41.5s1.5 33.834 1.5 54.501s-0.5 38.667 -1.5 54s-3.5 28.333 -7.5 39c-4 14.667 -11.333 24.667 -22 30s-26.334 8 -47.001 8c-18 0 -32.333 -1.33301 -43 -4
s-18.5 -8.16699 -23.5 -16.5s-8.16699 -21.166 -9.5 -38.499s-2 -41.333 -2 -72s0.666992 -54.834 2 -72.501s4.5 -30.667 9.5 -39s12.833 -13.666 23.5 -15.999s25 -3.5 43 -3.5z" />
    <glyph glyph-name="Emacron" unicode="&#x112;" horiz-adv-x="606" 
d="M71 0v688h482v-134h-308v-141h261v-132h-261v-147h308v-134h-482zM153 773v93h330v-93h-330z" />
    <glyph glyph-name="emacron" unicode="&#x113;" horiz-adv-x="557" 
d="M300 -8c-48 0 -87.665 3.00391 -118.998 9.00391s-56.166 15.5 -74.499 28.5s-32 29.833 -41 50.5s-14.667 45.334 -17 74.001s-3.5 62 -3.5 100c0 46 2.16699 85.667 6.5 119s14.166 60.666 29.499 81.999s39.166 37.166 71.499 47.499s76.166 15.5 131.499 15.5
c44.667 0 81 -3.16699 109 -9.5s50.167 -16 66.5 -29s28 -29.833 35 -50.5s11.5 -45.5 13.5 -74.5s3 -62.5 3 -100.5v-39h-307c0 -22.667 1 -40.834 3 -54.501s7.33301 -23.834 16 -30.501s22 -11.167 40 -13.5s43 -3.5 75 -3.5c12.667 0 27.667 0.333008 45 1
s35.5 1.66699 54.5 3s36.833 2.66602 53.5 3.99902v-112c-14.667 -3.33301 -32.5 -6.33301 -53.5 -9s-43.5 -4.66699 -67.5 -6s-47.333 -2 -70 -2zM360.002 282.004l-0.00195312 15.999c0 24 -1.16699 43 -3.5 57s-6.33301 24.5 -12 31.5s-13.5 11.5 -23.5 13.5
s-22.667 3 -38 3c-17.333 0 -31.166 -1.16699 -41.499 -3.5s-18.166 -7.16602 -23.499 -14.499s-9 -18 -11 -32s-3 -32.333 -3 -55h173zM119 595.003v93h330v-93h-330z" />
    <glyph glyph-name="Ebreve" unicode="&#x114;" horiz-adv-x="606" 
d="M71 0v688h482v-134h-308v-141h261v-132h-261v-147h308v-134h-482zM318 747c-33.333 0 -60.1709 3.66699 -80.5039 11s-35.666 17.666 -45.999 30.999s-17.166 29.166 -20.499 47.499s-5 38.5 -5 60.5h88c0 -13.333 0.833008 -24.666 2.5 -33.999s7 -16.666 16 -21.999
s23.833 -8 44.5 -8c21.333 0 36.5 2.66699 45.5 8s14.5 12.666 16.5 21.999s3 20.666 3 33.999h89c0 -22 -1.83301 -42.167 -5.5 -60.5s-10.667 -34.166 -21 -47.499s-25.666 -23.666 -45.999 -30.999s-47.166 -11 -80.499 -11z" />
    <glyph glyph-name="ebreve" unicode="&#x115;" horiz-adv-x="557" 
d="M300 -8c-48 0 -87.665 3.00391 -118.998 9.00391s-56.166 15.5 -74.499 28.5s-32 29.833 -41 50.5s-14.667 45.334 -17 74.001s-3.5 62 -3.5 100c0 46 2.16699 85.667 6.5 119s14.166 60.666 29.499 81.999s39.166 37.166 71.499 47.499s76.166 15.5 131.499 15.5
c44.667 0 81 -3.16699 109 -9.5s50.167 -16 66.5 -29s28 -29.833 35 -50.5s11.5 -45.5 13.5 -74.5s3 -62.5 3 -100.5v-39h-307c0 -22.667 1 -40.834 3 -54.501s7.33301 -23.834 16 -30.501s22 -11.167 40 -13.5s43 -3.5 75 -3.5c12.667 0 27.667 0.333008 45 1
s35.5 1.66699 54.5 3s36.833 2.66602 53.5 3.99902v-112c-14.667 -3.33301 -32.5 -6.33301 -53.5 -9s-43.5 -4.66699 -67.5 -6s-47.333 -2 -70 -2zM360.002 282.004l-0.00195312 15.999c0 24 -1.16699 43 -3.5 57s-6.33301 24.5 -12 31.5s-13.5 11.5 -23.5 13.5
s-22.667 3 -38 3c-17.333 0 -31.166 -1.16699 -41.499 -3.5s-18.166 -7.16602 -23.499 -14.499s-9 -18 -11 -32s-3 -32.333 -3 -55h173zM283 570.003c-33.333 0 -60.1709 3.66699 -80.5039 11s-35.666 17.666 -45.999 30.999s-17.166 29.166 -20.499 47.499
s-5 38.166 -5 59.499h88c0 -12.667 0.833008 -23.834 2.5 -33.501s7 -17.167 16 -22.5s23.833 -8 44.5 -8c21.333 0 36.5 2.66699 45.5 8s14.5 12.833 16.5 22.5s3 20.834 3 33.501h89c0 -21.333 -1.83301 -41.166 -5.5 -59.499s-10.667 -34.166 -21 -47.499
s-25.666 -23.666 -45.999 -30.999s-47.166 -11 -80.499 -11z" />
    <glyph glyph-name="Edotaccent" unicode="&#x116;" horiz-adv-x="606" 
d="M71 0v688h482v-134h-308v-141h261v-132h-261v-147h308v-134h-482zM253 773v108h131v-108h-131z" />
    <glyph glyph-name="edotaccent" unicode="&#x117;" horiz-adv-x="557" 
d="M300 -8c-48 0 -87.665 3.00391 -118.998 9.00391s-56.166 15.5 -74.499 28.5s-32 29.833 -41 50.5s-14.667 45.334 -17 74.001s-3.5 62 -3.5 100c0 46 2.16699 85.667 6.5 119s14.166 60.666 29.499 81.999s39.166 37.166 71.499 47.499s76.166 15.5 131.499 15.5
c44.667 0 81 -3.16699 109 -9.5s50.167 -16 66.5 -29s28 -29.833 35 -50.5s11.5 -45.5 13.5 -74.5s3 -62.5 3 -100.5v-39h-307c0 -22.667 1 -40.834 3 -54.501s7.33301 -23.834 16 -30.501s22 -11.167 40 -13.5s43 -3.5 75 -3.5c12.667 0 27.667 0.333008 45 1
s35.5 1.66699 54.5 3s36.833 2.66602 53.5 3.99902v-112c-14.667 -3.33301 -32.5 -6.33301 -53.5 -9s-43.5 -4.66699 -67.5 -6s-47.333 -2 -70 -2zM360.002 282.004l-0.00195312 15.999c0 24 -1.16699 43 -3.5 57s-6.33301 24.5 -12 31.5s-13.5 11.5 -23.5 13.5
s-22.667 3 -38 3c-17.333 0 -31.166 -1.16699 -41.499 -3.5s-18.166 -7.16602 -23.499 -14.499s-9 -18 -11 -32s-3 -32.333 -3 -55h173zM218 595.003v108h131v-108h-131z" />
    <glyph glyph-name="Eogonek" unicode="&#x118;" horiz-adv-x="606" 
d="M71 0v688h482v-134h-308v-141h261v-132h-261v-147h308v-134h-482zM486 -200c-32.667 0 -58.168 3.83301 -76.501 11.5s-31.166 18 -38.499 31s-11 26.833 -11 41.5c0 21.333 7 43 21 65s32 42.333 54 61l119 -10c-8.66699 -5.33301 -17.834 -12.666 -27.501 -21.999
s-18 -19.333 -25 -30s-10.5 -20.667 -10.5 -30c0 -10.667 3 -19.167 9 -25.5s18.667 -9.5 38 -9.5h6.5c3 0 6.5 0.333008 10.5 1v-81c-10 -0.666992 -21.167 -1.33398 -33.5 -2.00098s-24.166 -1 -35.499 -1z" />
    <glyph glyph-name="eogonek" unicode="&#x119;" horiz-adv-x="557" 
d="M300 -8c-48 0 -87.665 3.00391 -118.998 9.00391s-56.166 15.5 -74.499 28.5s-32 29.833 -41 50.5s-14.667 45.334 -17 74.001s-3.5 62 -3.5 100c0 46 2.16699 85.667 6.5 119s14.166 60.666 29.499 81.999s39.166 37.166 71.499 47.499s76.166 15.5 131.499 15.5
c44.667 0 81 -3.16699 109 -9.5s50.167 -16 66.5 -29s28 -29.833 35 -50.5s11.5 -45.5 13.5 -74.5s3 -62.5 3 -100.5v-39h-307c0 -22.667 1 -40.834 3 -54.501s7.33301 -23.834 16 -30.501s22 -11.167 40 -13.5s43 -3.5 75 -3.5c12.667 0 27.667 0.333008 45 1
s35.5 1.66699 54.5 3s36.833 2.66602 53.5 3.99902v-112c-14.667 -3.33301 -32.5 -6.33301 -53.5 -9s-43.5 -4.66699 -67.5 -6s-47.333 -2 -70 -2zM360.002 282.004l-0.00195312 15.999c0 24 -1.16699 43 -3.5 57s-6.33301 24.5 -12 31.5s-13.5 11.5 -23.5 13.5
s-22.667 3 -38 3c-17.333 0 -31.166 -1.16699 -41.499 -3.5s-18.166 -7.16602 -23.499 -14.499s-9 -18 -11 -32s-3 -32.333 -3 -55h173zM423 -190.997c-32.667 0 -58.168 3.83301 -76.501 11.5s-31.166 18 -38.499 31s-11 26.833 -11 41.5c0 21.333 7 43 21 65
s32 42.333 54 61l119 -10c-8.66699 -5.33301 -17.834 -12.666 -27.501 -21.999s-18 -19.333 -25 -30s-10.5 -20.667 -10.5 -30c0 -10.667 3 -19.167 9 -25.5s18.667 -9.5 38 -9.5h6.5c3 0 6.5 0.333008 10.5 1v-81c-10 -0.666992 -21.167 -1.33398 -33.5 -2.00098
s-24.166 -1 -35.499 -1z" />
    <glyph glyph-name="Ecaron" unicode="&#x11a;" horiz-adv-x="606" 
d="M71 0v688h482v-134h-308v-141h261v-132h-261v-147h308v-134h-482zM244 754l-94 138v7h103l66 -81l64 81h104v-7l-94 -138h-149z" />
    <glyph glyph-name="ecaron" unicode="&#x11b;" horiz-adv-x="557" 
d="M300 -8c-48 0 -87.665 3.00391 -118.998 9.00391s-56.166 15.5 -74.499 28.5s-32 29.833 -41 50.5s-14.667 45.334 -17 74.001s-3.5 62 -3.5 100c0 46 2.16699 85.667 6.5 119s14.166 60.666 29.499 81.999s39.166 37.166 71.499 47.499s76.166 15.5 131.499 15.5
c44.667 0 81 -3.16699 109 -9.5s50.167 -16 66.5 -29s28 -29.833 35 -50.5s11.5 -45.5 13.5 -74.5s3 -62.5 3 -100.5v-39h-307c0 -22.667 1 -40.834 3 -54.501s7.33301 -23.834 16 -30.501s22 -11.167 40 -13.5s43 -3.5 75 -3.5c12.667 0 27.667 0.333008 45 1
s35.5 1.66699 54.5 3s36.833 2.66602 53.5 3.99902v-112c-14.667 -3.33301 -32.5 -6.33301 -53.5 -9s-43.5 -4.66699 -67.5 -6s-47.333 -2 -70 -2zM360.002 282.004l-0.00195312 15.999c0 24 -1.16699 43 -3.5 57s-6.33301 24.5 -12 31.5s-13.5 11.5 -23.5 13.5
s-22.667 3 -38 3c-17.333 0 -31.166 -1.16699 -41.499 -3.5s-18.166 -7.16602 -23.499 -14.499s-9 -18 -11 -32s-3 -32.333 -3 -55h173zM209 576.003l-94 138v7h103l66 -81l64 81h104v-7l-94 -138h-149z" />
    <glyph glyph-name="Gcircumflex" unicode="&#x11c;" horiz-adv-x="667" 
d="M362 -8c-51.333 0 -94.668 3.33203 -130.001 9.99902s-64.666 17.834 -87.999 33.501s-41.5 37 -54.5 64s-22 60.5 -27 100.5s-7.5 88 -7.5 144s2.5 104 7.5 144s14.167 73.5 27.5 100.5s31.666 48.333 54.999 64s52.666 26.834 87.999 33.501s78.333 10 129 10
c22.667 0 48 -1 76 -3s55.833 -4.66699 83.5 -8s53.5 -7.33301 77.5 -12v-125c-22.667 3.33301 -45.167 5.83301 -67.5 7.5l-61.5 4.5c-18.667 1.33301 -34 2 -46 2c-36 0 -65.667 -0.666992 -89 -2s-42.333 -5.5 -57 -12.5s-25.667 -18.167 -33 -33.5
s-12.166 -36.833 -14.499 -64.5s-3.5 -62.834 -3.5 -105.501c0 -38 0.833008 -70 2.5 -96s5.33398 -47.333 11.001 -64s13.667 -29.5 24 -38.5s24 -15.167 41 -18.5s37.833 -5 62.5 -5c8 0 16.667 0.166992 26 0.5s18.333 0.833008 27 1.5s16 1 22 1v149h-98v125h257v-385
c-24 -4.66699 -50.333 -8.5 -79 -11.5s-57 -5.5 -85 -7.5s-53.333 -3 -76 -3zM186.998 753.999v8l94 137h149l94 -137v-8h-104l-65 81l-65 -81h-103z" />
    <glyph glyph-name="gcircumflex" unicode="&#x11d;" horiz-adv-x="585" 
d="M266 -206c-21.333 0 -43.5 0.50293 -66.5 1.50293s-44.5 2.5 -64.5 4.5s-36.667 4.33301 -50 7v111c14 -0.666992 29 -1.16699 45 -1.5s32.167 -0.5 48.5 -0.5h46.5c32.667 0 58.167 1.16699 76.5 3.5s32 7.33301 41 15s14.5 19 16.5 34s3 35.167 3 60.5v36h-8
c-10 -17.333 -22.167 -30.5 -36.5 -39.5s-30.166 -15.167 -47.499 -18.5s-36 -5 -56 -5c-30.667 0 -56.667 4.16699 -78 12.5s-38.833 22 -52.5 41s-23.5 45.167 -29.5 78.5s-9 75 -9 125c0 50.667 3.16699 92.667 9.5 126s16.166 59.666 29.499 78.999
s30.666 33.166 51.999 41.499s47 12.5 77 12.5c18.667 0 37.167 -1.83301 55.5 -5.5s35.333 -10.5 51 -20.5s28.5 -24.667 38.5 -44h8l4 62h153v-452c0 -44.667 -2.33301 -83.667 -7 -117s-15.167 -60.833 -31.5 -82.5s-41.666 -37.834 -75.999 -48.501
s-81.833 -16 -142.5 -16zM284 133.003c19.333 0 34.166 2.16504 44.499 6.49805s17.833 12.166 22.5 23.499c4.66699 10.667 7.66699 23.834 9 39.501s2 34.5 2 56.5c0 21.333 -0.5 40 -1.5 56s-4.16699 29 -9.5 39c-4.66699 12.667 -12.167 21.167 -22.5 25.5
s-25.166 6.5 -44.499 6.5c-18 0 -32.333 -1.16699 -43 -3.5s-18.5 -7.5 -23.5 -15.5s-8.16699 -20.667 -9.5 -38s-2 -40.666 -2 -69.999s0.666992 -52.333 2 -69s4.5 -29.167 9.5 -37.5s12.833 -13.666 23.5 -15.999s25 -3.5 43 -3.5zM124 576.001v8l94 137h149l94 -137v-8
h-104l-65 81l-65 -81h-103z" />
    <glyph glyph-name="Gbreve" unicode="&#x11e;" horiz-adv-x="667" 
d="M362 -8c-51.333 0 -94.668 3.33203 -130.001 9.99902s-64.666 17.834 -87.999 33.501s-41.5 37 -54.5 64s-22 60.5 -27 100.5s-7.5 88 -7.5 144s2.5 104 7.5 144s14.167 73.5 27.5 100.5s31.666 48.333 54.999 64s52.666 26.834 87.999 33.501s78.333 10 129 10
c22.667 0 48 -1 76 -3s55.833 -4.66699 83.5 -8s53.5 -7.33301 77.5 -12v-125c-22.667 3.33301 -45.167 5.83301 -67.5 7.5l-61.5 4.5c-18.667 1.33301 -34 2 -46 2c-36 0 -65.667 -0.666992 -89 -2s-42.333 -5.5 -57 -12.5s-25.667 -18.167 -33 -33.5
s-12.166 -36.833 -14.499 -64.5s-3.5 -62.834 -3.5 -105.501c0 -38 0.833008 -70 2.5 -96s5.33398 -47.333 11.001 -64s13.667 -29.5 24 -38.5s24 -15.167 41 -18.5s37.833 -5 62.5 -5c8 0 16.667 0.166992 26 0.5s18.333 0.833008 27 1.5s16 1 22 1v149h-98v125h257v-385
c-24 -4.66699 -50.333 -8.5 -79 -11.5s-57 -5.5 -85 -7.5s-53.333 -3 -76 -3zM353.998 746.999c-33.333 0 -60.1709 3.66699 -80.5039 11s-35.666 17.666 -45.999 30.999s-17.166 29.166 -20.499 47.499s-5 38.5 -5 60.5h88c0 -13.333 0.833008 -24.666 2.5 -33.999
s7 -16.666 16 -21.999s23.833 -8 44.5 -8c21.333 0 36.5 2.66699 45.5 8s14.5 12.666 16.5 21.999s3 20.666 3 33.999h89c0 -22 -1.83301 -42.167 -5.5 -60.5s-10.667 -34.166 -21 -47.499s-25.666 -23.666 -45.999 -30.999s-47.166 -11 -80.499 -11z" />
    <glyph glyph-name="gbreve" unicode="&#x11f;" horiz-adv-x="585" 
d="M266 -206c-21.333 0 -43.5 0.50293 -66.5 1.50293s-44.5 2.5 -64.5 4.5s-36.667 4.33301 -50 7v111c14 -0.666992 29 -1.16699 45 -1.5s32.167 -0.5 48.5 -0.5h46.5c32.667 0 58.167 1.16699 76.5 3.5s32 7.33301 41 15s14.5 19 16.5 34s3 35.167 3 60.5v36h-8
c-10 -17.333 -22.167 -30.5 -36.5 -39.5s-30.166 -15.167 -47.499 -18.5s-36 -5 -56 -5c-30.667 0 -56.667 4.16699 -78 12.5s-38.833 22 -52.5 41s-23.5 45.167 -29.5 78.5s-9 75 -9 125c0 50.667 3.16699 92.667 9.5 126s16.166 59.666 29.499 78.999
s30.666 33.166 51.999 41.499s47 12.5 77 12.5c18.667 0 37.167 -1.83301 55.5 -5.5s35.333 -10.5 51 -20.5s28.5 -24.667 38.5 -44h8l4 62h153v-452c0 -44.667 -2.33301 -83.667 -7 -117s-15.167 -60.833 -31.5 -82.5s-41.666 -37.834 -75.999 -48.501
s-81.833 -16 -142.5 -16zM284 133.003c19.333 0 34.166 2.16504 44.499 6.49805s17.833 12.166 22.5 23.499c4.66699 10.667 7.66699 23.834 9 39.501s2 34.5 2 56.5c0 21.333 -0.5 40 -1.5 56s-4.16699 29 -9.5 39c-4.66699 12.667 -12.167 21.167 -22.5 25.5
s-25.166 6.5 -44.499 6.5c-18 0 -32.333 -1.16699 -43 -3.5s-18.5 -7.5 -23.5 -15.5s-8.16699 -20.667 -9.5 -38s-2 -40.666 -2 -69.999s0.666992 -52.333 2 -69s4.5 -29.167 9.5 -37.5s12.833 -13.666 23.5 -15.999s25 -3.5 43 -3.5zM292 570.001
c-33.333 0 -60.1709 3.66699 -80.5039 11s-35.666 17.666 -45.999 30.999s-17.166 29.166 -20.499 47.499s-5 38.166 -5 59.499h88c0 -12.667 0.833008 -23.834 2.5 -33.501s7 -17.167 16 -22.5s23.833 -8 44.5 -8c21.333 0 36.5 2.66699 45.5 8s14.5 12.833 16.5 22.5
s3 20.834 3 33.501h89c0 -21.333 -1.83301 -41.166 -5.5 -59.499s-10.667 -34.166 -21 -47.499s-25.666 -23.666 -45.999 -30.999s-47.166 -11 -80.499 -11z" />
    <glyph glyph-name="Gdotaccent" unicode="&#x120;" horiz-adv-x="667" 
d="M362 -8c-51.333 0 -94.668 3.33203 -130.001 9.99902s-64.666 17.834 -87.999 33.501s-41.5 37 -54.5 64s-22 60.5 -27 100.5s-7.5 88 -7.5 144s2.5 104 7.5 144s14.167 73.5 27.5 100.5s31.666 48.333 54.999 64s52.666 26.834 87.999 33.501s78.333 10 129 10
c22.667 0 48 -1 76 -3s55.833 -4.66699 83.5 -8s53.5 -7.33301 77.5 -12v-125c-22.667 3.33301 -45.167 5.83301 -67.5 7.5l-61.5 4.5c-18.667 1.33301 -34 2 -46 2c-36 0 -65.667 -0.666992 -89 -2s-42.333 -5.5 -57 -12.5s-25.667 -18.167 -33 -33.5
s-12.166 -36.833 -14.499 -64.5s-3.5 -62.834 -3.5 -105.501c0 -38 0.833008 -70 2.5 -96s5.33398 -47.333 11.001 -64s13.667 -29.5 24 -38.5s24 -15.167 41 -18.5s37.833 -5 62.5 -5c8 0 16.667 0.166992 26 0.5s18.333 0.833008 27 1.5s16 1 22 1v149h-98v125h257v-385
c-24 -4.66699 -50.333 -8.5 -79 -11.5s-57 -5.5 -85 -7.5s-53.333 -3 -76 -3zM288.998 772.999v108h131v-108h-131z" />
    <glyph glyph-name="gdotaccent" unicode="&#x121;" horiz-adv-x="585" 
d="M266 -206c-21.333 0 -43.5 0.50293 -66.5 1.50293s-44.5 2.5 -64.5 4.5s-36.667 4.33301 -50 7v111c14 -0.666992 29 -1.16699 45 -1.5s32.167 -0.5 48.5 -0.5h46.5c32.667 0 58.167 1.16699 76.5 3.5s32 7.33301 41 15s14.5 19 16.5 34s3 35.167 3 60.5v36h-8
c-10 -17.333 -22.167 -30.5 -36.5 -39.5s-30.166 -15.167 -47.499 -18.5s-36 -5 -56 -5c-30.667 0 -56.667 4.16699 -78 12.5s-38.833 22 -52.5 41s-23.5 45.167 -29.5 78.5s-9 75 -9 125c0 50.667 3.16699 92.667 9.5 126s16.166 59.666 29.499 78.999
s30.666 33.166 51.999 41.499s47 12.5 77 12.5c18.667 0 37.167 -1.83301 55.5 -5.5s35.333 -10.5 51 -20.5s28.5 -24.667 38.5 -44h8l4 62h153v-452c0 -44.667 -2.33301 -83.667 -7 -117s-15.167 -60.833 -31.5 -82.5s-41.666 -37.834 -75.999 -48.501
s-81.833 -16 -142.5 -16zM284 133.003c19.333 0 34.166 2.16504 44.499 6.49805s17.833 12.166 22.5 23.499c4.66699 10.667 7.66699 23.834 9 39.501s2 34.5 2 56.5c0 21.333 -0.5 40 -1.5 56s-4.16699 29 -9.5 39c-4.66699 12.667 -12.167 21.167 -22.5 25.5
s-25.166 6.5 -44.499 6.5c-18 0 -32.333 -1.16699 -43 -3.5s-18.5 -7.5 -23.5 -15.5s-8.16699 -20.667 -9.5 -38s-2 -40.666 -2 -69.999s0.666992 -52.333 2 -69s4.5 -29.167 9.5 -37.5s12.833 -13.666 23.5 -15.999s25 -3.5 43 -3.5zM227 595.001v108h131v-108h-131z" />
    <glyph glyph-name="uni0122" unicode="&#x122;" horiz-adv-x="667" 
d="M362 -8c-51.333 0 -94.668 3.33203 -130.001 9.99902s-64.666 17.834 -87.999 33.501s-41.5 37 -54.5 64s-22 60.5 -27 100.5s-7.5 88 -7.5 144s2.5 104 7.5 144s14.167 73.5 27.5 100.5s31.666 48.333 54.999 64s52.666 26.834 87.999 33.501s78.333 10 129 10
c22.667 0 48 -1 76 -3s55.833 -4.66699 83.5 -8s53.5 -7.33301 77.5 -12v-125c-22.667 3.33301 -45.167 5.83301 -67.5 7.5l-61.5 4.5c-18.667 1.33301 -34 2 -46 2c-36 0 -65.667 -0.666992 -89 -2s-42.333 -5.5 -57 -12.5s-25.667 -18.167 -33 -33.5
s-12.166 -36.833 -14.499 -64.5s-3.5 -62.834 -3.5 -105.501c0 -38 0.833008 -70 2.5 -96s5.33398 -47.333 11.001 -64s13.667 -29.5 24 -38.5s24 -15.167 41 -18.5s37.833 -5 62.5 -5c8 0 16.667 0.166992 26 0.5s18.333 0.833008 27 1.5s16 1 22 1v149h-98v125h257v-385
c-24 -4.66699 -50.333 -8.5 -79 -11.5s-57 -5.5 -85 -7.5s-53.333 -3 -76 -3zM266.998 -302.001l0.000976562 61c19.333 0 33.666 1 42.999 3s15.666 5.83301 18.999 11.5s5 13.5 5 23.5v12h-60v119h162v-80c0 -30 -1.83301 -54.667 -5.5 -74s-11.167 -34.5 -22.5 -45.5
s-28.166 -18.833 -50.499 -23.5s-52.5 -7 -90.5 -7z" />
    <glyph glyph-name="uni0123" unicode="&#x123;" horiz-adv-x="585" 
d="M266 -206c-21.333 0 -43.5 0.50293 -66.5 1.50293s-44.5 2.5 -64.5 4.5s-36.667 4.33301 -50 7v111c14 -0.666992 29 -1.16699 45 -1.5s32.167 -0.5 48.5 -0.5h46.5c32.667 0 58.167 1.16699 76.5 3.5s32 7.33301 41 15s14.5 19 16.5 34s3 35.167 3 60.5v36h-8
c-10 -17.333 -22.167 -30.5 -36.5 -39.5s-30.166 -15.167 -47.499 -18.5s-36 -5 -56 -5c-30.667 0 -56.667 4.16699 -78 12.5s-38.833 22 -52.5 41s-23.5 45.167 -29.5 78.5s-9 75 -9 125c0 50.667 3.16699 92.667 9.5 126s16.166 59.666 29.499 78.999
s30.666 33.166 51.999 41.499s47 12.5 77 12.5c18.667 0 37.167 -1.83301 55.5 -5.5s35.333 -10.5 51 -20.5s28.5 -24.667 38.5 -44h8l4 62h153v-452c0 -44.667 -2.33301 -83.667 -7 -117s-15.167 -60.833 -31.5 -82.5s-41.666 -37.834 -75.999 -48.501
s-81.833 -16 -142.5 -16zM284 133.003c19.333 0 34.166 2.16504 44.499 6.49805s17.833 12.166 22.5 23.499c4.66699 10.667 7.66699 23.834 9 39.501s2 34.5 2 56.5c0 21.333 -0.5 40 -1.5 56s-4.16699 29 -9.5 39c-4.66699 12.667 -12.167 21.167 -22.5 25.5
s-25.166 6.5 -44.499 6.5c-18 0 -32.333 -1.16699 -43 -3.5s-18.5 -7.5 -23.5 -15.5s-8.16699 -20.667 -9.5 -38s-2 -40.666 -2 -69.999s0.666992 -52.333 2 -69s4.5 -29.167 9.5 -37.5s12.833 -13.666 23.5 -15.999s25 -3.5 43 -3.5zM212 567.001l0.000976562 80
c0 30 1.83301 54.667 5.5 74s11.167 34.5 22.5 45.5s28.166 18.833 50.499 23.5s52.5 7 90.5 7v-61c-28 0 -46.167 -2.33301 -54.5 -7s-12.5 -15 -12.5 -31v-12h59v-119h-161z" />
    <glyph glyph-name="Hcircumflex" unicode="&#x124;" horiz-adv-x="713" 
d="M71 0v688h174v-270h223v270h174v-688h-174v273h-223v-273h-174zM188 754v8l94 137h149l94 -137v-8h-104l-65 81l-65 -81h-103z" />
    <glyph glyph-name="hcircumflex" unicode="&#x125;" horiz-adv-x="591" 
d="M62 0v743.003h160v-292h9c10 16.667 22.167 29.834 36.5 39.501s30.5 16.5 48.5 20.5s37.667 6 59 6c34 0 61.167 -4.16699 81.5 -12.5s35.833 -20.833 46.5 -37.5s17.834 -37.334 21.501 -62.001s5.5 -53.334 5.5 -86.001v-319h-161v270
c0 27.333 -0.666992 48.833 -2 64.5s-4.33301 27.167 -9 34.5s-11.834 11.833 -21.501 13.5s-22.5 2.5 -38.5 2.5c-16.667 0 -30.167 -1.83301 -40.5 -5.5s-18 -9.83398 -23 -18.501s-8.33301 -20.834 -10 -36.501s-2.5 -35.167 -2.5 -58.5v-266h-160zM-27 764.003v8l94 137
h149l94 -137v-8h-104l-65 81l-65 -81h-103z" />
    <glyph glyph-name="Hbar" unicode="&#x126;" horiz-adv-x="713" 
d="M71 0v688h174v-100h223v100h174v-688h-174v233h-223v-233h-174zM245 378h223v95h-223v-95z" />
    <glyph glyph-name="hbar" unicode="&#x127;" horiz-adv-x="591" 
d="M2 606v82h342v-82h-342zM62 0v743.003h160v-292h9c10 16.667 22.167 29.834 36.5 39.501s30.5 16.5 48.5 20.5s37.667 6 59 6c34 0 61.167 -4.16699 81.5 -12.5s35.833 -20.833 46.5 -37.5s17.834 -37.334 21.501 -62.001s5.5 -53.334 5.5 -86.001v-319h-161v270
c0 27.333 -0.666992 48.833 -2 64.5s-4.33301 27.167 -9 34.5s-11.834 11.833 -21.501 13.5s-22.5 2.5 -38.5 2.5c-16.667 0 -30.167 -1.83301 -40.5 -5.5s-18 -9.83398 -23 -18.501s-8.33301 -20.834 -10 -36.501s-2.5 -35.167 -2.5 -58.5v-266h-160z" />
    <glyph glyph-name="Itilde" unicode="&#x128;" horiz-adv-x="317" 
d="M71 0v688h174v-688h-174zM-31 750c0 30.667 1.5 56.333 4.5 77s11 36.667 24 48s34.5 17 64.5 17c19.333 0 38.666 -2 57.999 -6s37.333 -8.33301 54 -13l37.5 -9c11.667 -2.66699 22.5 -4 32.5 -4c12.667 0 20 3 22 9s3 17.333 3 34h80
c0 -29.333 -1.5 -54.666 -4.5 -75.999s-11 -37.5 -24 -48.5s-34.5 -16.5 -64.5 -16.5c-20 0 -39.167 2.16699 -57.5 6.5s-36.166 8.16602 -53.499 11.499c-14 4 -27 7.33301 -39 10s-22.333 4 -31 4c-12.667 0 -20.167 -3.16699 -22.5 -9.5s-3.5 -17.833 -3.5 -34.5h-80z
" />
    <glyph glyph-name="itilde" unicode="&#x129;" horiz-adv-x="286" 
d="M62 0v510h162v-510h-162zM-48 572c0 30.667 1.5 56.333 4.5 77s11 36.667 24 48s34.5 17 64.5 17c19.333 0 38.666 -2 57.999 -6s37.333 -8.33301 54 -13l37.5 -9c11.667 -2.66699 22.5 -4 32.5 -4c12.667 0 20 3 22 9s3 17.333 3 34h80
c0 -29.333 -1.5 -54.666 -4.5 -75.999s-11 -37.5 -24 -48.5s-34.5 -16.5 -64.5 -16.5c-20 0 -39.167 2.16699 -57.5 6.5s-36.166 8.16602 -53.499 11.499c-14 4 -27 7.33301 -39 10s-22.333 4 -31 4c-12.667 0 -20.167 -3.16699 -22.5 -9.5s-3.5 -17.833 -3.5 -34.5h-80z
" />
    <glyph glyph-name="Imacron" unicode="&#x12a;" horiz-adv-x="317" 
d="M71 0v688h174v-688h-174zM-7 773v93h330v-93h-330z" />
    <glyph glyph-name="imacron" unicode="&#x12b;" horiz-adv-x="286" 
d="M62 0v510h162v-510h-162zM-23 595v93h330v-93h-330z" />
    <glyph glyph-name="Ibreve" unicode="&#x12c;" horiz-adv-x="317" 
d="M71 0v688h174v-688h-174zM157 747c-33.333 0 -60.1709 3.66699 -80.5039 11s-35.666 17.666 -45.999 30.999s-17.166 29.166 -20.499 47.499s-5 38.5 -5 60.5h88c0 -13.333 0.833008 -24.666 2.5 -33.999s7 -16.666 16 -21.999s23.833 -8 44.5 -8
c21.333 0 36.5 2.66699 45.5 8s14.5 12.666 16.5 21.999s3 20.666 3 33.999h89c0 -22 -1.83301 -42.167 -5.5 -60.5s-10.667 -34.166 -21 -47.499s-25.666 -23.666 -45.999 -30.999s-47.166 -11 -80.499 -11z" />
    <glyph glyph-name="ibreve" unicode="&#x12d;" horiz-adv-x="286" 
d="M62 0v510h162v-510h-162zM142 570c-33.333 0 -60.1709 3.66699 -80.5039 11s-35.666 17.666 -45.999 30.999s-17.166 29.166 -20.499 47.499s-5 38.166 -5 59.499h88c0 -12.667 0.833008 -23.834 2.5 -33.501s7 -17.167 16 -22.5s23.833 -8 44.5 -8
c21.333 0 36.5 2.66699 45.5 8s14.5 12.833 16.5 22.5s3 20.834 3 33.501h89c0 -21.333 -1.83301 -41.166 -5.5 -59.499s-10.667 -34.166 -21 -47.499s-25.666 -23.666 -45.999 -30.999s-47.166 -11 -80.499 -11z" />
    <glyph glyph-name="Iogonek" unicode="&#x12e;" horiz-adv-x="317" 
d="M71 0v688h174v-688h-174zM178 -200c-32.667 0 -58.168 3.83301 -76.501 11.5s-31.166 18 -38.499 31s-11 26.833 -11 41.5c0 21.333 7 43 21 65s32 42.333 54 61l119 -10c-8.66699 -5.33301 -17.834 -12.666 -27.501 -21.999s-18 -19.333 -25 -30
s-10.5 -20.667 -10.5 -30c0 -10.667 3 -19.167 9 -25.5s18.667 -9.5 38 -9.5h6.5c3 0 6.5 0.333008 10.5 1v-81c-10 -0.666992 -21.167 -1.33398 -33.5 -2.00098s-24.166 -1 -35.499 -1z" />
    <glyph glyph-name="iogonek" unicode="&#x12f;" horiz-adv-x="286" 
d="M60 614v129h165v-129h-165zM62 0v510h162v-510h-162zM156 -200c-32.667 0 -58.168 3.83301 -76.501 11.5s-31.166 18 -38.499 31s-11 26.833 -11 41.5c0 21.333 7 43 21 65s32 42.333 54 61l119 -10c-8.66699 -5.33301 -17.834 -12.666 -27.501 -21.999
s-18 -19.333 -25 -30s-10.5 -20.667 -10.5 -30c0 -10.667 3 -19.167 9 -25.5s18.667 -9.5 38 -9.5h6.5c3 0 6.5 0.333008 10.5 1v-81c-10 -0.666992 -21.167 -1.33398 -33.5 -2.00098s-24.166 -1 -35.499 -1z" />
    <glyph glyph-name="Idotaccent" unicode="&#x130;" horiz-adv-x="317" 
d="M71 0v688h174v-688h-174zM92 773v108h131v-108h-131z" />
    <glyph glyph-name="dotlessi" unicode="&#x131;" horiz-adv-x="286" 
d="M62 0v510h162v-510h-162z" />
    <glyph glyph-name="IJ" unicode="&#x132;" horiz-adv-x="722" 
d="M71 0v688h174v-688h-174zM341 0l-0.00195312 125.999c34 0.666992 60.5 2.16699 79.5 4.5s32.833 7.83301 41.5 16.5s13.834 22.334 15.501 41.001s2.5 44 2.5 76v424h174v-379c0 -59.333 -1.33301 -108.333 -4 -147s-9.16699 -69 -19.5 -91s-26.666 -38 -48.999 -48
s-53 -16.333 -92 -19s-88.5 -4 -148.5 -4z" />
    <glyph glyph-name="ij" unicode="&#x133;" horiz-adv-x="571" 
d="M60 614v129h165v-129h-165zM62 0v510h162v-510h-162zM346 614v129h165v-129h-165zM265 -200l0.000976562 111.998c26 0 44.833 1.83301 56.5 5.5s19 9.33398 22 17.001s4.5 17.834 4.5 30.501v545h162v-510c0 -46 -3.33301 -82.333 -10 -109s-18.834 -46.5 -36.501 -59.5
s-42.667 -21.5 -75 -25.5s-73.5 -6 -123.5 -6z" />
    <glyph glyph-name="Jcircumflex" unicode="&#x134;" horiz-adv-x="406" 
d="M24 0l-0.00195312 125.999c34 0.666992 60.5 2.16699 79.5 4.5s32.833 7.83301 41.5 16.5s13.834 22.334 15.501 41.001s2.5 44 2.5 76v424h174v-379c0 -59.333 -1.33301 -108.333 -4 -147s-9.16699 -69 -19.5 -91s-26.666 -38 -48.999 -48s-53 -16.333 -92 -19
s-88.5 -4 -148.5 -4zM80.998 753.999v8l94 137h149l94 -137v-8h-104l-65 81l-65 -81h-103z" />
    <glyph glyph-name="jcircumflex" unicode="&#x135;" horiz-adv-x="286" 
d="M-21 -200l0.000976562 111.998c26 0 44.833 1.83301 56.5 5.5s19 9.33398 22 17.001s4.5 17.834 4.5 30.501v545h162v-510c0 -46 -3.33301 -82.333 -10 -109s-18.834 -46.5 -36.501 -59.5s-42.667 -21.5 -75 -25.5s-73.5 -6 -123.5 -6zM-25.999 575.998v8l94 137h149
l94 -137v-8h-104l-65 81l-65 -81h-103z" />
    <glyph glyph-name="uni0136" unicode="&#x136;" horiz-adv-x="684" 
d="M71 0v688h174v-272h51l188 272h188l-235 -327l238 -361h-195l-184 284h-51v-284h-174zM254 -302l0.000976562 61c19.333 0 33.666 1 42.999 3s15.666 5.83301 18.999 11.5s5 13.5 5 23.5v12h-60v119h162v-80c0 -30 -1.83301 -54.667 -5.5 -74s-11.167 -34.5 -22.5 -45.5
s-28.166 -18.833 -50.499 -23.5s-52.5 -7 -90.5 -7z" />
    <glyph glyph-name="uni0137" unicode="&#x137;" horiz-adv-x="573" 
d="M62 0v743h160v-428h31l133 195h171l-173 -244l176 -266h-178l-129 193h-31v-193h-160zM206 -302l0.000976562 61c19.333 0 33.666 1 42.999 3s15.666 5.83301 18.999 11.5s5 13.5 5 23.5v12h-60v119h162v-80c0 -30 -1.83301 -54.667 -5.5 -74s-11.167 -34.5 -22.5 -45.5
s-28.166 -18.833 -50.499 -23.5s-52.5 -7 -90.5 -7z" />
    <glyph glyph-name="kgreenlandic" unicode="&#x138;" horiz-adv-x="573" 
d="M62 0v510h160v-195h31l133 195h171l-173 -244l176 -266h-178l-129 193h-31v-193h-160z" />
    <glyph glyph-name="Lacute" unicode="&#x139;" horiz-adv-x="536" 
d="M71 0v688h174v-548h268v-140h-442zM74 754v5l92 140h155v-5l-133 -140h-114z" />
    <glyph glyph-name="lacute" unicode="&#x13a;" horiz-adv-x="286" 
d="M62 0v743h162v-743h-162zM58 816v5l92 140h155v-5l-133 -140h-114z" />
    <glyph glyph-name="uni013B" unicode="&#x13b;" horiz-adv-x="536" 
d="M71 0v688h174v-548h268v-140h-442zM217 -302l0.000976562 61c19.333 0 33.666 1 42.999 3s15.666 5.83301 18.999 11.5s5 13.5 5 23.5v12h-60v119h162v-80c0 -30 -1.83301 -54.667 -5.5 -74s-11.167 -34.5 -22.5 -45.5s-28.166 -18.833 -50.499 -23.5s-52.5 -7 -90.5 -7z
" />
    <glyph glyph-name="uni013C" unicode="&#x13c;" horiz-adv-x="286" 
d="M62 0v743h162v-743h-162zM55 -302l0.000976562 61c19.333 0 33.666 1 42.999 3s15.666 5.83301 18.999 11.5s5 13.5 5 23.5v12h-60v119h162v-80c0 -30 -1.83301 -54.667 -5.5 -74s-11.167 -34.5 -22.5 -45.5s-28.166 -18.833 -50.499 -23.5s-52.5 -7 -90.5 -7z" />
    <glyph glyph-name="Lcaron" unicode="&#x13d;" horiz-adv-x="536" 
d="M71 0v688h174v-548h268v-140h-442zM343 429l13 202v57h125v-57l-48 -202h-90z" />
    <glyph glyph-name="lcaron" unicode="&#x13e;" horiz-adv-x="286" 
d="M62 0v743h162v-743h-162zM248 429l13 202v57h125v-57l-48 -202h-90z" />
    <glyph glyph-name="Ldot" unicode="&#x13f;" horiz-adv-x="536" 
d="M71 0v688h174v-548h268v-140h-442zM357 307v145h132v-145h-132z" />
    <glyph glyph-name="ldot" unicode="&#x140;" horiz-adv-x="356" 
d="M62 0v743h162v-743h-162zM255 227v145h132v-145h-132z" />
    <glyph glyph-name="Lslash" unicode="&#x141;" horiz-adv-x="536" 
d="M15 241v116l380 140v-115zM71 0v688h174v-548h268v-140h-442z" />
    <glyph glyph-name="lslash" unicode="&#x142;" horiz-adv-x="305" 
d="M71 0v292l-55 -20v115l55 20v336h162v-281l55 20v-115l-55 -20v-347h-162z" />
    <glyph glyph-name="Nacute" unicode="&#x143;" horiz-adv-x="717" 
d="M71 0v688h179l224 -369h5v369h167v-688h-163l-240 403h-5v-403h-167zM282 754v5l92 140h155v-5l-133 -140h-114z" />
    <glyph glyph-name="nacute" unicode="&#x144;" horiz-adv-x="591" 
d="M62 0l-0.000976562 510.007h152l4 -62h9c10 17.333 22.333 31.166 37 41.499s31.334 17.666 50.001 21.999s39 6.5 61 6.5c34 0 61.167 -4.33301 81.5 -13s35.833 -21.334 46.5 -38.001s17.834 -37.334 21.501 -62.001s5.5 -53.334 5.5 -86.001v-319h-161v270
c0 27.333 -0.666992 48.833 -2 64.5s-4.33301 27.167 -9 34.5s-11.834 11.833 -21.501 13.5s-22.5 2.5 -38.5 2.5c-16.667 0 -30.167 -1.83301 -40.5 -5.5s-18 -9.83398 -23 -18.501s-8.33301 -20.834 -10 -36.501s-2.5 -35.167 -2.5 -58.5v-266h-160zM189.999 576.007v5
l92 140h155v-5l-133 -140h-114z" />
    <glyph glyph-name="uni0145" unicode="&#x145;" horiz-adv-x="717" 
d="M71 0v688h179l224 -369h5v369h167v-688h-163l-240 403h-5v-403h-167zM278 -302l0.000976562 61c19.333 0 33.666 1 42.999 3s15.666 5.83301 18.999 11.5s5 13.5 5 23.5v12h-60v119h162v-80c0 -30 -1.83301 -54.667 -5.5 -74s-11.167 -34.5 -22.5 -45.5
s-28.166 -18.833 -50.499 -23.5s-52.5 -7 -90.5 -7z" />
    <glyph glyph-name="uni0146" unicode="&#x146;" horiz-adv-x="591" 
d="M62 0l-0.000976562 510.007h152l4 -62h9c10 17.333 22.333 31.166 37 41.499s31.334 17.666 50.001 21.999s39 6.5 61 6.5c34 0 61.167 -4.33301 81.5 -13s35.833 -21.334 46.5 -38.001s17.834 -37.334 21.501 -62.001s5.5 -53.334 5.5 -86.001v-319h-161v270
c0 27.333 -0.666992 48.833 -2 64.5s-4.33301 27.167 -9 34.5s-11.834 11.833 -21.501 13.5s-22.5 2.5 -38.5 2.5c-16.667 0 -30.167 -1.83301 -40.5 -5.5s-18 -9.83398 -23 -18.501s-8.33301 -20.834 -10 -36.501s-2.5 -35.167 -2.5 -58.5v-266h-160zM207.999 -301.993
l0.000976562 61c19.333 0 33.666 1 42.999 3s15.666 5.83301 18.999 11.5s5 13.5 5 23.5v12h-60v119h162v-80c0 -30 -1.83301 -54.667 -5.5 -74s-11.167 -34.5 -22.5 -45.5s-28.166 -18.833 -50.499 -23.5s-52.5 -7 -90.5 -7z" />
    <glyph glyph-name="Ncaron" unicode="&#x147;" horiz-adv-x="717" 
d="M71 0v688h179l224 -369h5v369h167v-688h-163l-240 403h-5v-403h-167zM292 754l-94 138v7h103l66 -81l64 81h104v-7l-94 -138h-149z" />
    <glyph glyph-name="ncaron" unicode="&#x148;" horiz-adv-x="591" 
d="M62 0l-0.000976562 510.007h152l4 -62h9c10 17.333 22.333 31.166 37 41.499s31.334 17.666 50.001 21.999s39 6.5 61 6.5c34 0 61.167 -4.33301 81.5 -13s35.833 -21.334 46.5 -38.001s17.834 -37.334 21.501 -62.001s5.5 -53.334 5.5 -86.001v-319h-161v270
c0 27.333 -0.666992 48.833 -2 64.5s-4.33301 27.167 -9 34.5s-11.834 11.833 -21.501 13.5s-22.5 2.5 -38.5 2.5c-16.667 0 -30.167 -1.83301 -40.5 -5.5s-18 -9.83398 -23 -18.501s-8.33301 -20.834 -10 -36.501s-2.5 -35.167 -2.5 -58.5v-266h-160zM220.999 576.007
l-94 138v7h103l66 -81l64 81h104v-7l-94 -138h-149z" />
    <glyph glyph-name="napostrophe" unicode="&#x149;" horiz-adv-x="591" 
d="M62 0l-0.000976562 510.007h152l4 -62h9c10 17.333 22.333 31.166 37 41.499s31.334 17.666 50.001 21.999s39 6.5 61 6.5c34 0 61.167 -4.33301 81.5 -13s35.833 -21.334 46.5 -38.001s17.834 -37.334 21.501 -62.001s5.5 -53.334 5.5 -86.001v-319h-161v270
c0 27.333 -0.666992 48.833 -2 64.5s-4.33301 27.167 -9 34.5s-11.834 11.833 -21.501 13.5s-22.5 2.5 -38.5 2.5c-16.667 0 -30.167 -1.83301 -40.5 -5.5s-18 -9.83398 -23 -18.501s-8.33301 -20.834 -10 -36.501s-2.5 -35.167 -2.5 -58.5v-266h-160zM-0.000976562 653.007
l0.000976562 61.002c19.333 0 33.666 1.66699 42.999 5s15.666 9.66602 18.999 18.999s5 22.333 5 39v16h-60v109h162v-74c0 -34.667 -1.83301 -63.334 -5.5 -86.001s-11.167 -40.5 -22.5 -53.5s-28.166 -22.167 -50.499 -27.5s-52.5 -8 -90.5 -8z" />
    <glyph glyph-name="Eng" unicode="&#x14a;" horiz-adv-x="717" 
d="M397 -200l0.000976562 111.995c26 0 44.667 1.83301 56 5.5s18.5 9.33398 21.5 17.001s4.5 17.834 4.5 30.501v42l-236 396h-5v-403h-167v688h179l224 -369h5v369h167v-688c0 -36.667 -2.16699 -67.167 -6.5 -91.5s-11.833 -43.666 -22.5 -57.999
s-25.5 -25.166 -44.5 -32.499s-42.833 -12.166 -71.5 -14.499s-63.334 -3.5 -104.001 -3.5z" />
    <glyph glyph-name="eng" unicode="&#x14b;" horiz-adv-x="591" 
d="M287 -200v112.005c26 0 44.667 1.83301 56 5.5s18.5 9.33398 21.5 17.001s4.5 17.834 4.5 30.501v305c0 27.333 -0.666992 48.833 -2 64.5s-4.33301 27.167 -9 34.5s-11.834 11.833 -21.501 13.5s-22.5 2.5 -38.5 2.5c-16.667 0 -30.167 -1.83301 -40.5 -5.5
s-18 -9.83398 -23 -18.501s-8.33301 -20.834 -10 -36.501s-2.5 -35.167 -2.5 -58.5v-266h-160v510h152l4 -62h9c10 17.333 22.333 31.166 37 41.499s31.334 17.666 50.001 21.999s39 6.5 61 6.5c34 0 61.167 -4.33301 81.5 -13s35.833 -21.334 46.5 -38.001
s17.834 -37.334 21.501 -62.001s5.5 -53.334 5.5 -86.001v-319c0 -46 -3.33301 -82.333 -10 -109s-18.834 -46.5 -36.501 -59.5s-42.5 -21.5 -74.5 -25.5s-72.667 -6 -122 -6z" />
    <glyph glyph-name="Omacron" unicode="&#x14c;" horiz-adv-x="703" 
d="M351 -8c-58 0 -105.5 3.5 -142.5 10.5s-65.833 18.333 -86.5 34s-35.834 37 -45.501 64s-15.667 60.5 -18 100.5s-3.5 87.667 -3.5 143s1.16699 103 3.5 143s8.33301 73.5 18 100.5s24.834 48.333 45.501 64s49.5 27 86.5 34s84.5 10.5 142.5 10.5
c57.333 0 104.5 -3.5 141.5 -10.5s66.167 -18.333 87.5 -34s36.666 -37 45.999 -64s15.333 -60.5 18 -100.5s4 -87.667 4 -143s-1.33301 -103 -4 -143s-8.66699 -73.5 -18 -100.5s-24.666 -48.333 -45.999 -64s-50.5 -27 -87.5 -34s-84.167 -10.5 -141.5 -10.5zM351 126
c24 0 43.5 0.833008 58.5 2.5s26.833 6 35.5 13s15 18.167 19 33.5s6.5 36.666 7.5 63.999s1.5 62.333 1.5 105s-0.5 77.667 -1.5 105s-3.5 48.666 -7.5 63.999s-10.333 26.5 -19 33.5s-20.5 11.333 -35.5 13s-34.5 2.5 -58.5 2.5c-23.333 0 -42.666 -0.833008 -57.999 -2.5
s-27.333 -6 -36 -13s-15 -18.167 -19 -33.5s-6.5 -36.666 -7.5 -63.999s-1.5 -62.333 -1.5 -105s0.5 -77.667 1.5 -105s3.5 -48.666 7.5 -63.999s10.333 -26.5 19 -33.5s20.667 -11.333 36 -13s34.666 -2.5 57.999 -2.5zM187 773v93h330v-93h-330z" />
    <glyph glyph-name="omacron" unicode="&#x14d;" horiz-adv-x="573" 
d="M286 -8c-45.333 0 -83 2.66699 -113 8s-53.667 14 -71 26s-30 28 -38 48s-13.167 45 -15.5 75s-3.5 65.667 -3.5 107s1.16699 76.833 3.5 106.5s7.5 54.5 15.5 74.5s20.667 36 38 48s41 20.5 71 25.5s67.667 7.5 113 7.5c46 0 84 -2.5 114 -7.5s53.667 -13.5 71 -25.5
s30 -28 38 -48s13.167 -44.833 15.5 -74.5s3.5 -65.167 3.5 -106.5s-1.16699 -77 -3.5 -107s-7.5 -55 -15.5 -75s-20.667 -36 -38 -48s-41 -20.667 -71 -26s-68 -8 -114 -8zM286 114c20 0 35.667 1.33301 47 4s19.333 8.66699 24 18s7.5 23.666 8.5 42.999s1.5 45 1.5 77
s-0.5 57.333 -1.5 76s-3.83301 32.667 -8.5 42s-12.667 15.333 -24 18s-27 4 -47 4s-35.5 -1.33301 -46.5 -4s-18.833 -8.66699 -23.5 -18s-7.5 -23.333 -8.5 -42s-1.5 -44 -1.5 -76s0.5 -57.667 1.5 -77s3.83301 -33.666 8.5 -42.999s12.5 -15.333 23.5 -18
s26.5 -4 46.5 -4zM121 595v93h330v-93h-330z" />
    <glyph glyph-name="Obreve" unicode="&#x14e;" horiz-adv-x="703" 
d="M351 -8c-58 0 -105.5 3.5 -142.5 10.5s-65.833 18.333 -86.5 34s-35.834 37 -45.501 64s-15.667 60.5 -18 100.5s-3.5 87.667 -3.5 143s1.16699 103 3.5 143s8.33301 73.5 18 100.5s24.834 48.333 45.501 64s49.5 27 86.5 34s84.5 10.5 142.5 10.5
c57.333 0 104.5 -3.5 141.5 -10.5s66.167 -18.333 87.5 -34s36.666 -37 45.999 -64s15.333 -60.5 18 -100.5s4 -87.667 4 -143s-1.33301 -103 -4 -143s-8.66699 -73.5 -18 -100.5s-24.666 -48.333 -45.999 -64s-50.5 -27 -87.5 -34s-84.167 -10.5 -141.5 -10.5zM351 126
c24 0 43.5 0.833008 58.5 2.5s26.833 6 35.5 13s15 18.167 19 33.5s6.5 36.666 7.5 63.999s1.5 62.333 1.5 105s-0.5 77.667 -1.5 105s-3.5 48.666 -7.5 63.999s-10.333 26.5 -19 33.5s-20.5 11.333 -35.5 13s-34.5 2.5 -58.5 2.5c-23.333 0 -42.666 -0.833008 -57.999 -2.5
s-27.333 -6 -36 -13s-15 -18.167 -19 -33.5s-6.5 -36.666 -7.5 -63.999s-1.5 -62.333 -1.5 -105s0.5 -77.667 1.5 -105s3.5 -48.666 7.5 -63.999s10.333 -26.5 19 -33.5s20.667 -11.333 36 -13s34.666 -2.5 57.999 -2.5zM351 747c-33.333 0 -60.1709 3.66699 -80.5039 11
s-35.666 17.666 -45.999 30.999s-17.166 29.166 -20.499 47.499s-5 38.5 -5 60.5h88c0 -13.333 0.833008 -24.666 2.5 -33.999s7 -16.666 16 -21.999s23.833 -8 44.5 -8c21.333 0 36.5 2.66699 45.5 8s14.5 12.666 16.5 21.999s3 20.666 3 33.999h89
c0 -22 -1.83301 -42.167 -5.5 -60.5s-10.667 -34.166 -21 -47.499s-25.666 -23.666 -45.999 -30.999s-47.166 -11 -80.499 -11z" />
    <glyph glyph-name="obreve" unicode="&#x14f;" horiz-adv-x="573" 
d="M286 -8c-45.333 0 -83 2.66699 -113 8s-53.667 14 -71 26s-30 28 -38 48s-13.167 45 -15.5 75s-3.5 65.667 -3.5 107s1.16699 76.833 3.5 106.5s7.5 54.5 15.5 74.5s20.667 36 38 48s41 20.5 71 25.5s67.667 7.5 113 7.5c46 0 84 -2.5 114 -7.5s53.667 -13.5 71 -25.5
s30 -28 38 -48s13.167 -44.833 15.5 -74.5s3.5 -65.167 3.5 -106.5s-1.16699 -77 -3.5 -107s-7.5 -55 -15.5 -75s-20.667 -36 -38 -48s-41 -20.667 -71 -26s-68 -8 -114 -8zM286 114c20 0 35.667 1.33301 47 4s19.333 8.66699 24 18s7.5 23.666 8.5 42.999s1.5 45 1.5 77
s-0.5 57.333 -1.5 76s-3.83301 32.667 -8.5 42s-12.667 15.333 -24 18s-27 4 -47 4s-35.5 -1.33301 -46.5 -4s-18.833 -8.66699 -23.5 -18s-7.5 -23.333 -8.5 -42s-1.5 -44 -1.5 -76s0.5 -57.667 1.5 -77s3.83301 -33.666 8.5 -42.999s12.5 -15.333 23.5 -18
s26.5 -4 46.5 -4zM286 570c-33.333 0 -60.1709 3.66699 -80.5039 11s-35.666 17.666 -45.999 30.999s-17.166 29.166 -20.499 47.499s-5 38.166 -5 59.499h88c0 -12.667 0.833008 -23.834 2.5 -33.501s7 -17.167 16 -22.5s23.833 -8 44.5 -8c21.333 0 36.5 2.66699 45.5 8
s14.5 12.833 16.5 22.5s3 20.834 3 33.501h89c0 -21.333 -1.83301 -41.166 -5.5 -59.499s-10.667 -34.166 -21 -47.499s-25.666 -23.666 -45.999 -30.999s-47.166 -11 -80.499 -11z" />
    <glyph glyph-name="Ohungarumlaut" unicode="&#x150;" horiz-adv-x="703" 
d="M351 -8c-58 0 -105.5 3.5 -142.5 10.5s-65.833 18.333 -86.5 34s-35.834 37 -45.501 64s-15.667 60.5 -18 100.5s-3.5 87.667 -3.5 143s1.16699 103 3.5 143s8.33301 73.5 18 100.5s24.834 48.333 45.501 64s49.5 27 86.5 34s84.5 10.5 142.5 10.5
c57.333 0 104.5 -3.5 141.5 -10.5s66.167 -18.333 87.5 -34s36.666 -37 45.999 -64s15.333 -60.5 18 -100.5s4 -87.667 4 -143s-1.33301 -103 -4 -143s-8.66699 -73.5 -18 -100.5s-24.666 -48.333 -45.999 -64s-50.5 -27 -87.5 -34s-84.167 -10.5 -141.5 -10.5zM351 126
c24 0 43.5 0.833008 58.5 2.5s26.833 6 35.5 13s15 18.167 19 33.5s6.5 36.666 7.5 63.999s1.5 62.333 1.5 105s-0.5 77.667 -1.5 105s-3.5 48.666 -7.5 63.999s-10.333 26.5 -19 33.5s-20.5 11.333 -35.5 13s-34.5 2.5 -58.5 2.5c-23.333 0 -42.666 -0.833008 -57.999 -2.5
s-27.333 -6 -36 -13s-15 -18.167 -19 -33.5s-6.5 -36.666 -7.5 -63.999s-1.5 -62.333 -1.5 -105s0.5 -77.667 1.5 -105s3.5 -48.666 7.5 -63.999s10.333 -26.5 19 -33.5s20.667 -11.333 36 -13s34.666 -2.5 57.999 -2.5zM203 754v5l78 121h128v-4l-112 -122h-94zM393 754v5
l79 121h128v-4l-112 -122h-95z" />
    <glyph glyph-name="ohungarumlaut" unicode="&#x151;" horiz-adv-x="573" 
d="M286 -8c-45.333 0 -83 2.66699 -113 8s-53.667 14 -71 26s-30 28 -38 48s-13.167 45 -15.5 75s-3.5 65.667 -3.5 107s1.16699 76.833 3.5 106.5s7.5 54.5 15.5 74.5s20.667 36 38 48s41 20.5 71 25.5s67.667 7.5 113 7.5c46 0 84 -2.5 114 -7.5s53.667 -13.5 71 -25.5
s30 -28 38 -48s13.167 -44.833 15.5 -74.5s3.5 -65.167 3.5 -106.5s-1.16699 -77 -3.5 -107s-7.5 -55 -15.5 -75s-20.667 -36 -38 -48s-41 -20.667 -71 -26s-68 -8 -114 -8zM286 114c20 0 35.667 1.33301 47 4s19.333 8.66699 24 18s7.5 23.666 8.5 42.999s1.5 45 1.5 77
s-0.5 57.333 -1.5 76s-3.83301 32.667 -8.5 42s-12.667 15.333 -24 18s-27 4 -47 4s-35.5 -1.33301 -46.5 -4s-18.833 -8.66699 -23.5 -18s-7.5 -23.333 -8.5 -42s-1.5 -44 -1.5 -76s0.5 -57.667 1.5 -77s3.83301 -33.666 8.5 -42.999s12.5 -15.333 23.5 -18
s26.5 -4 46.5 -4zM137 576v5l78 121h128v-4l-112 -122h-94zM327 576v5l79 121h128v-4l-112 -122h-95z" />
    <glyph glyph-name="OE" unicode="&#x152;" horiz-adv-x="1001" 
d="M351 0c-58 0 -105.5 3.33203 -142.5 9.99902s-65.833 17.834 -86.5 33.501s-35.834 36.667 -45.501 63s-15.667 59 -18 98s-3.5 85.5 -3.5 139.5s1.16699 100.5 3.5 139.5s8.33301 71.667 18 98s24.834 47.333 45.501 63s49.5 26.834 86.5 33.501s84.5 10 142.5 10h597
v-134h-253c-12 0 -24.5 0.666992 -37.5 2s-24.5 3.33301 -34.5 6c5.33301 -12 9.66602 -25.667 12.999 -41s6 -32 8 -50s3 -37.333 3 -58h254v-132h-254c0 -21.333 -0.666992 -41.5 -2 -60.5s-3.83301 -36.333 -7.5 -52s-8.5 -29.834 -14.5 -42.501
c8.66699 2 19.334 3.83301 32.001 5.5s26 2.5 40 2.5h253v-134h-597zM351 133.999c24 0 43.499 0.670898 58.499 2.00391s26.833 5.5 35.5 12.5s15 17.833 19 32.5s6.5 35.167 7.5 61.5s1.5 60.166 1.5 101.499s-0.5 75.166 -1.5 101.499s-3.5 46.833 -7.5 61.5
s-10.333 25.5 -19 32.5s-20.667 11.167 -36 12.5s-34.666 2 -57.999 2s-42.666 -0.666992 -57.999 -2s-27.333 -5.33301 -36 -12s-15 -17.5 -19 -32.5s-6.5 -35.833 -7.5 -62.5s-1.5 -60.334 -1.5 -101.001s0.5 -74.334 1.5 -101.001s3.5 -47.5 7.5 -62.5
s10.333 -25.833 19 -32.5s20.667 -10.667 36 -12s34.666 -2 57.999 -2z" />
    <glyph glyph-name="oe" unicode="&#x153;" horiz-adv-x="883" 
d="M283 -8c-56.667 0 -100.998 4.16992 -132.998 12.5029s-55.5 22.333 -70.5 42s-24.5 46.667 -28.5 81s-6 77.166 -6 128.499s2 94 6 128s13.5 60.833 28.5 80.5s38.5 33.5 70.5 41.5s76.333 12 133 12c39.333 0 72.666 -3.33301 99.999 -10s49.666 -17.667 66.999 -33
c18.667 14.667 41.667 25.5 69 32.5s60 10.5 98 10.5c53.333 0 95 -5 125 -15s51.667 -25.5 65 -46.5s21.5 -48.167 24.5 -81.5s4.5 -73.666 4.5 -120.999v-39h-307c0 -22.667 1.16699 -40.834 3.5 -54.501s7.66602 -23.834 15.999 -30.501s21.5 -11.167 39.5 -13.5
s43 -3.5 75 -3.5c13.333 0 28.5 0.333008 45.5 1s35 1.66699 54 3s36.833 2.66602 53.5 3.99902v-112c-14 -3.33301 -31.333 -6.33301 -52 -9s-42.5 -4.66699 -65.5 -6s-45.167 -2 -66.5 -2c-42 0 -77.667 3.5 -107 10.5s-54 17.833 -74 32.5
c-11.333 -10 -25.166 -18.167 -41.499 -24.5s-35 -11 -56 -14s-44.5 -4.5 -70.5 -4.5zM286.002 114.003c20 0 35.667 1.33301 47 4s19.333 8.66699 24 18s7.5 23.666 8.5 42.999s1.5 45 1.5 77s-0.5 57.333 -1.5 76s-3.83301 32.667 -8.5 42s-12.667 15.333 -24 18
s-27 4 -47 4s-35.5 -1.33301 -46.5 -4s-18.833 -8.66699 -23.5 -18s-7.5 -23.333 -8.5 -42s-1.5 -44 -1.5 -76s0.5 -57.667 1.5 -77s3.83301 -33.666 8.5 -42.999s12.5 -15.333 23.5 -18s26.5 -4 46.5 -4zM685.002 277.003l-0.00195312 20.999c0 24 -1.16699 43 -3.5 57
s-6.33301 24.5 -12 31.5s-13.5 11.5 -23.5 13.5s-22.667 3 -38 3c-17.333 0 -31.166 -1.16699 -41.499 -3.5s-18.166 -7.16602 -23.499 -14.499s-9 -18 -11 -32s-3 -32.333 -3 -55h178z" />
    <glyph glyph-name="Racute" unicode="&#x154;" horiz-adv-x="672" 
d="M71 0l-0.00195312 688h341c44.667 0 80.834 -4.83301 108.501 -14.5s48.667 -24 63 -43s24 -42.333 29 -70s7.5 -59.167 7.5 -94.5c0 -26 -2 -52.167 -6 -78.5s-12.5 -50.333 -25.5 -72s-32.833 -38.167 -59.5 -49.5l104 -266h-181l-97 275l44 -24
c-6 -3.33301 -12.167 -5.33301 -18.5 -6s-14.166 -1 -23.499 -1h-112v-244h-174zM244.998 373h99.998c22.667 0 40.834 1.16699 54.501 3.5s23.834 6.83301 30.501 13.5s11 16 13 28s3 27.333 3 46c0 19.333 -0.833008 35 -2.5 47s-5.66699 21.167 -12 27.5
s-16.333 10.833 -30 13.5s-32.5 4 -56.5 4h-100v-183zM251.996 754v5l92 140h155v-5l-133 -140h-114z" />
    <glyph glyph-name="racute" unicode="&#x155;" horiz-adv-x="410" 
d="M62 0l0.000976562 510.001h152l4 -87h9c9.33301 24.667 21.166 44 35.499 58s31.833 23.667 52.5 29s44.667 8 72 8v-147c-42 0 -75 -5.33301 -99 -16s-41 -28.834 -51 -54.501s-15 -61.5 -15 -107.5v-193h-160zM99.001 576.001v5l92 140h155v-5l-133 -140h-114z" />
    <glyph glyph-name="uni0156" unicode="&#x156;" horiz-adv-x="672" 
d="M71 0l-0.00195312 688h341c44.667 0 80.834 -4.83301 108.501 -14.5s48.667 -24 63 -43s24 -42.333 29 -70s7.5 -59.167 7.5 -94.5c0 -26 -2 -52.167 -6 -78.5s-12.5 -50.333 -25.5 -72s-32.833 -38.167 -59.5 -49.5l104 -266h-181l-97 275l44 -24
c-6 -3.33301 -12.167 -5.33301 -18.5 -6s-14.166 -1 -23.499 -1h-112v-244h-174zM244.998 373h99.998c22.667 0 40.834 1.16699 54.501 3.5s23.834 6.83301 30.501 13.5s11 16 13 28s3 27.333 3 46c0 19.333 -0.833008 35 -2.5 47s-5.66699 21.167 -12 27.5
s-16.333 10.833 -30 13.5s-32.5 4 -56.5 4h-100v-183zM247.996 -302l0.000976562 61c19.333 0 33.666 1 42.999 3s15.666 5.83301 18.999 11.5s5 13.5 5 23.5v12h-60v119h162v-80c0 -30 -1.83301 -54.667 -5.5 -74s-11.167 -34.5 -22.5 -45.5s-28.166 -18.833 -50.499 -23.5
s-52.5 -7 -90.5 -7z" />
    <glyph glyph-name="uni0157" unicode="&#x157;" horiz-adv-x="410" 
d="M62 0l0.000976562 510.001h152l4 -87h9c9.33301 24.667 21.166 44 35.499 58s31.833 23.667 52.5 29s44.667 8 72 8v-147c-42 0 -75 -5.33301 -99 -16s-41 -28.834 -51 -54.501s-15 -61.5 -15 -107.5v-193h-160zM54.001 -301.999l0.000976562 61
c19.333 0 33.666 1 42.999 3s15.666 5.83301 18.999 11.5s5 13.5 5 23.5v12h-60v119h162v-80c0 -30 -1.83301 -54.667 -5.5 -74s-11.167 -34.5 -22.5 -45.5s-28.166 -18.833 -50.499 -23.5s-52.5 -7 -90.5 -7z" />
    <glyph glyph-name="Rcaron" unicode="&#x158;" horiz-adv-x="672" 
d="M71 0l-0.00195312 688h341c44.667 0 80.834 -4.83301 108.501 -14.5s48.667 -24 63 -43s24 -42.333 29 -70s7.5 -59.167 7.5 -94.5c0 -26 -2 -52.167 -6 -78.5s-12.5 -50.333 -25.5 -72s-32.833 -38.167 -59.5 -49.5l104 -266h-181l-97 275l44 -24
c-6 -3.33301 -12.167 -5.33301 -18.5 -6s-14.166 -1 -23.499 -1h-112v-244h-174zM244.998 373h99.998c22.667 0 40.834 1.16699 54.501 3.5s23.834 6.83301 30.501 13.5s11 16 13 28s3 27.333 3 46c0 19.333 -0.833008 35 -2.5 47s-5.66699 21.167 -12 27.5
s-16.333 10.833 -30 13.5s-32.5 4 -56.5 4h-100v-183zM261.996 754l-94 138v7h103l66 -81l64 81h104v-7l-94 -138h-149z" />
    <glyph glyph-name="rcaron" unicode="&#x159;" horiz-adv-x="410" 
d="M62 0l0.000976562 510.001h152l4 -87h9c9.33301 24.667 21.166 44 35.499 58s31.833 23.667 52.5 29s44.667 8 72 8v-147c-42 0 -75 -5.33301 -99 -16s-41 -28.834 -51 -54.501s-15 -61.5 -15 -107.5v-193h-160zM130.001 576.001l-94 138v7h103l66 -81l64 81h104v-7
l-94 -138h-149z" />
    <glyph glyph-name="Sacute" unicode="&#x15a;" horiz-adv-x="616" 
d="M323 -8c-26.667 0 -55.5029 0.668945 -86.5029 2.00195s-61.333 3.33301 -91 6s-56.167 5.33398 -79.5 8.00098v129l74.5 -6c25 -2 48.833 -3.33301 71.5 -4s41.667 -1 57 -1c32 0 56.333 1.16699 73 3.5s29 5.83301 37 10.5c5.33301 4.66699 9.16602 9.66699 11.499 15
s3.83301 11.666 4.5 18.999s1 15.666 1 24.999c0 14 -0.833008 25.167 -2.5 33.5s-5 14.833 -10 19.5s-12.5 8.16699 -22.5 10.5s-23 4.5 -39 6.5l-141 18c-27.333 3.33301 -49.666 10.166 -66.999 20.499s-31 24.166 -41 41.499s-17 37.833 -21 61.5s-6 50.167 -6 79.5
c0 45.333 6.66699 81.5 20 108.5s31.833 47.667 55.5 62s51.334 23.833 83.001 28.5s66.167 7 103.5 7c26.667 0 54.334 -0.833008 83.001 -2.5s55.667 -4 81 -7s46.333 -6.5 63 -10.5v-126c-16.667 2.66699 -36.167 4.83398 -58.5 6.50098s-45.5 3 -69.5 4
s-46.667 1.5 -68 1.5c-26 0 -46.667 -0.833008 -62 -2.5s-27.333 -4.83398 -36 -9.50098c-9.33301 -5.33301 -15.166 -12.333 -17.499 -21s-3.5 -19.667 -3.5 -33c0 -16.667 1.33301 -29.5 4 -38.5s8.66699 -15.167 18 -18.5s23.666 -6.33301 42.999 -9l137 -16
c18.667 -2 35.834 -5.33301 51.501 -10s30 -12 43 -22s23.833 -24.333 32.5 -43c4.66699 -8.66699 8.33398 -19.167 11.001 -31.5s5 -26.5 7 -42.5s3 -34 3 -54c0 -39.333 -4 -72.5 -12 -99.5s-19.333 -48.333 -34 -64s-32.334 -27.667 -53.001 -36
s-43.5 -13.666 -68.5 -15.999s-51.5 -3.5 -79.5 -3.5zM223.997 754.002v5l92 140h155v-5l-133 -140h-114z" />
    <glyph glyph-name="sacute" unicode="&#x15b;" horiz-adv-x="500" 
d="M260 -8c-21.333 0 -44.5039 0.666992 -69.5039 2s-49.333 3 -73 5s-44.834 4.33301 -63.501 7v113c10.667 -0.666992 22.834 -1.66699 36.501 -3s27.834 -2.33301 42.501 -3s28.834 -1.16699 42.501 -1.5s26.167 -0.5 37.5 -0.5c31.333 0 53.833 1 67.5 3
s22.334 6.16699 26.001 12.5s5.5 14.833 5.5 25.5s-1.16699 18.334 -3.5 23.001s-7 8 -14 10s-18.833 4 -35.5 6l-119 15c-28.667 4 -50.334 12.5 -65.001 25.5s-24.5 30.667 -29.5 53s-7.5 48.5 -7.5 78.5c0 35.333 5.33301 63.166 16 83.499s25.5 35.666 44.5 45.999
s41.667 17.166 68 20.499s54.5 5 84.5 5c21.333 0 43.333 -0.666992 66 -2s44.334 -3.16602 65.001 -5.49902s37.667 -4.83301 51 -7.5v-112l-52.5 4c-18.333 1.33301 -35.833 2.33301 -52.5 3s-30.667 1 -42 1c-26.667 0 -47.167 -0.666992 -61.5 -2
s-24 -4.66602 -29 -9.99902s-7.5 -14 -7.5 -26c0 -9.33301 0.833008 -16.5 2.5 -21.5s5.83398 -8.5 12.501 -10.5s17 -4 31 -6l120 -15c22.667 -2.66699 42 -8 58 -16s28.167 -22.333 36.5 -43s12.5 -51.667 12.5 -93c0 -37.333 -4.83301 -66.833 -14.5 -88.5
s-23.5 -38 -41.5 -49s-39.167 -18.167 -63.5 -21.5s-51.5 -5 -81.5 -5zM143.996 576v5l92 140h155v-5l-133 -140h-114z" />
    <glyph glyph-name="Scircumflex" unicode="&#x15c;" horiz-adv-x="616" 
d="M323 -8c-26.667 0 -55.5029 0.668945 -86.5029 2.00195s-61.333 3.33301 -91 6s-56.167 5.33398 -79.5 8.00098v129l74.5 -6c25 -2 48.833 -3.33301 71.5 -4s41.667 -1 57 -1c32 0 56.333 1.16699 73 3.5s29 5.83301 37 10.5c5.33301 4.66699 9.16602 9.66699 11.499 15
s3.83301 11.666 4.5 18.999s1 15.666 1 24.999c0 14 -0.833008 25.167 -2.5 33.5s-5 14.833 -10 19.5s-12.5 8.16699 -22.5 10.5s-23 4.5 -39 6.5l-141 18c-27.333 3.33301 -49.666 10.166 -66.999 20.499s-31 24.166 -41 41.499s-17 37.833 -21 61.5s-6 50.167 -6 79.5
c0 45.333 6.66699 81.5 20 108.5s31.833 47.667 55.5 62s51.334 23.833 83.001 28.5s66.167 7 103.5 7c26.667 0 54.334 -0.833008 83.001 -2.5s55.667 -4 81 -7s46.333 -6.5 63 -10.5v-126c-16.667 2.66699 -36.167 4.83398 -58.5 6.50098s-45.5 3 -69.5 4
s-46.667 1.5 -68 1.5c-26 0 -46.667 -0.833008 -62 -2.5s-27.333 -4.83398 -36 -9.50098c-9.33301 -5.33301 -15.166 -12.333 -17.499 -21s-3.5 -19.667 -3.5 -33c0 -16.667 1.33301 -29.5 4 -38.5s8.66699 -15.167 18 -18.5s23.666 -6.33301 42.999 -9l137 -16
c18.667 -2 35.834 -5.33301 51.501 -10s30 -12 43 -22s23.833 -24.333 32.5 -43c4.66699 -8.66699 8.33398 -19.167 11.001 -31.5s5 -26.5 7 -42.5s3 -34 3 -54c0 -39.333 -4 -72.5 -12 -99.5s-19.333 -48.333 -34 -64s-32.334 -27.667 -53.001 -36
s-43.5 -13.666 -68.5 -15.999s-51.5 -3.5 -79.5 -3.5zM139.997 754.002v8l94 137h149l94 -137v-8h-104l-65 81l-65 -81h-103z" />
    <glyph glyph-name="scircumflex" unicode="&#x15d;" horiz-adv-x="500" 
d="M260 -8c-21.333 0 -44.5039 0.666992 -69.5039 2s-49.333 3 -73 5s-44.834 4.33301 -63.501 7v113c10.667 -0.666992 22.834 -1.66699 36.501 -3s27.834 -2.33301 42.501 -3s28.834 -1.16699 42.501 -1.5s26.167 -0.5 37.5 -0.5c31.333 0 53.833 1 67.5 3
s22.334 6.16699 26.001 12.5s5.5 14.833 5.5 25.5s-1.16699 18.334 -3.5 23.001s-7 8 -14 10s-18.833 4 -35.5 6l-119 15c-28.667 4 -50.334 12.5 -65.001 25.5s-24.5 30.667 -29.5 53s-7.5 48.5 -7.5 78.5c0 35.333 5.33301 63.166 16 83.499s25.5 35.666 44.5 45.999
s41.667 17.166 68 20.499s54.5 5 84.5 5c21.333 0 43.333 -0.666992 66 -2s44.334 -3.16602 65.001 -5.49902s37.667 -4.83301 51 -7.5v-112l-52.5 4c-18.333 1.33301 -35.833 2.33301 -52.5 3s-30.667 1 -42 1c-26.667 0 -47.167 -0.666992 -61.5 -2
s-24 -4.66602 -29 -9.99902s-7.5 -14 -7.5 -26c0 -9.33301 0.833008 -16.5 2.5 -21.5s5.83398 -8.5 12.501 -10.5s17 -4 31 -6l120 -15c22.667 -2.66699 42 -8 58 -16s28.167 -22.333 36.5 -43s12.5 -51.667 12.5 -93c0 -37.333 -4.83301 -66.833 -14.5 -88.5
s-23.5 -38 -41.5 -49s-39.167 -18.167 -63.5 -21.5s-51.5 -5 -81.5 -5zM80.9961 576v8l94 137h149l94 -137v-8h-104l-65 81l-65 -81h-103z" />
    <glyph glyph-name="Scedilla" unicode="&#x15e;" horiz-adv-x="616" 
d="M323 -8c-26.667 0 -55.5029 0.668945 -86.5029 2.00195s-61.333 3.33301 -91 6s-56.167 5.33398 -79.5 8.00098v129l74.5 -6c25 -2 48.833 -3.33301 71.5 -4s41.667 -1 57 -1c32 0 56.333 1.16699 73 3.5s29 5.83301 37 10.5c5.33301 4.66699 9.16602 9.66699 11.499 15
s3.83301 11.666 4.5 18.999s1 15.666 1 24.999c0 14 -0.833008 25.167 -2.5 33.5s-5 14.833 -10 19.5s-12.5 8.16699 -22.5 10.5s-23 4.5 -39 6.5l-141 18c-27.333 3.33301 -49.666 10.166 -66.999 20.499s-31 24.166 -41 41.499s-17 37.833 -21 61.5s-6 50.167 -6 79.5
c0 45.333 6.66699 81.5 20 108.5s31.833 47.667 55.5 62s51.334 23.833 83.001 28.5s66.167 7 103.5 7c26.667 0 54.334 -0.833008 83.001 -2.5s55.667 -4 81 -7s46.333 -6.5 63 -10.5v-126c-16.667 2.66699 -36.167 4.83398 -58.5 6.50098s-45.5 3 -69.5 4
s-46.667 1.5 -68 1.5c-26 0 -46.667 -0.833008 -62 -2.5s-27.333 -4.83398 -36 -9.50098c-9.33301 -5.33301 -15.166 -12.333 -17.499 -21s-3.5 -19.667 -3.5 -33c0 -16.667 1.33301 -29.5 4 -38.5s8.66699 -15.167 18 -18.5s23.666 -6.33301 42.999 -9l137 -16
c18.667 -2 35.834 -5.33301 51.501 -10s30 -12 43 -22s23.833 -24.333 32.5 -43c4.66699 -8.66699 8.33398 -19.167 11.001 -31.5s5 -26.5 7 -42.5s3 -34 3 -54c0 -39.333 -4 -72.5 -12 -99.5s-19.333 -48.333 -34 -64s-32.334 -27.667 -53.001 -36
s-43.5 -13.666 -68.5 -15.999s-51.5 -3.5 -79.5 -3.5zM183.997 -189.998v5l80 203h104v-5l-38 -203h-146z" />
    <glyph glyph-name="scedilla" unicode="&#x15f;" horiz-adv-x="500" 
d="M260 -8c-21.333 0 -44.5039 0.666992 -69.5039 2s-49.333 3 -73 5s-44.834 4.33301 -63.501 7v113c10.667 -0.666992 22.834 -1.66699 36.501 -3s27.834 -2.33301 42.501 -3s28.834 -1.16699 42.501 -1.5s26.167 -0.5 37.5 -0.5c31.333 0 53.833 1 67.5 3
s22.334 6.16699 26.001 12.5s5.5 14.833 5.5 25.5s-1.16699 18.334 -3.5 23.001s-7 8 -14 10s-18.833 4 -35.5 6l-119 15c-28.667 4 -50.334 12.5 -65.001 25.5s-24.5 30.667 -29.5 53s-7.5 48.5 -7.5 78.5c0 35.333 5.33301 63.166 16 83.499s25.5 35.666 44.5 45.999
s41.667 17.166 68 20.499s54.5 5 84.5 5c21.333 0 43.333 -0.666992 66 -2s44.334 -3.16602 65.001 -5.49902s37.667 -4.83301 51 -7.5v-112l-52.5 4c-18.333 1.33301 -35.833 2.33301 -52.5 3s-30.667 1 -42 1c-26.667 0 -47.167 -0.666992 -61.5 -2
s-24 -4.66602 -29 -9.99902s-7.5 -14 -7.5 -26c0 -9.33301 0.833008 -16.5 2.5 -21.5s5.83398 -8.5 12.501 -10.5s17 -4 31 -6l120 -15c22.667 -2.66699 42 -8 58 -16s28.167 -22.333 36.5 -43s12.5 -51.667 12.5 -93c0 -37.333 -4.83301 -66.833 -14.5 -88.5
s-23.5 -38 -41.5 -49s-39.167 -18.167 -63.5 -21.5s-51.5 -5 -81.5 -5zM123.996 -190v5l80 203h104v-5l-38 -203h-146z" />
    <glyph glyph-name="Scaron" unicode="&#x160;" horiz-adv-x="616" 
d="M323 -8c-26.667 0 -55.5029 0.668945 -86.5029 2.00195s-61.333 3.33301 -91 6s-56.167 5.33398 -79.5 8.00098v129l74.5 -6c25 -2 48.833 -3.33301 71.5 -4s41.667 -1 57 -1c32 0 56.333 1.16699 73 3.5s29 5.83301 37 10.5c5.33301 4.66699 9.16602 9.66699 11.499 15
s3.83301 11.666 4.5 18.999s1 15.666 1 24.999c0 14 -0.833008 25.167 -2.5 33.5s-5 14.833 -10 19.5s-12.5 8.16699 -22.5 10.5s-23 4.5 -39 6.5l-141 18c-27.333 3.33301 -49.666 10.166 -66.999 20.499s-31 24.166 -41 41.499s-17 37.833 -21 61.5s-6 50.167 -6 79.5
c0 45.333 6.66699 81.5 20 108.5s31.833 47.667 55.5 62s51.334 23.833 83.001 28.5s66.167 7 103.5 7c26.667 0 54.334 -0.833008 83.001 -2.5s55.667 -4 81 -7s46.333 -6.5 63 -10.5v-126c-16.667 2.66699 -36.167 4.83398 -58.5 6.50098s-45.5 3 -69.5 4
s-46.667 1.5 -68 1.5c-26 0 -46.667 -0.833008 -62 -2.5s-27.333 -4.83398 -36 -9.50098c-9.33301 -5.33301 -15.166 -12.333 -17.499 -21s-3.5 -19.667 -3.5 -33c0 -16.667 1.33301 -29.5 4 -38.5s8.66699 -15.167 18 -18.5s23.666 -6.33301 42.999 -9l137 -16
c18.667 -2 35.834 -5.33301 51.501 -10s30 -12 43 -22s23.833 -24.333 32.5 -43c4.66699 -8.66699 8.33398 -19.167 11.001 -31.5s5 -26.5 7 -42.5s3 -34 3 -54c0 -39.333 -4 -72.5 -12 -99.5s-19.333 -48.333 -34 -64s-32.334 -27.667 -53.001 -36
s-43.5 -13.666 -68.5 -15.999s-51.5 -3.5 -79.5 -3.5zM233.997 754.002l-94 138v7h103l66 -81l64 81h104v-7l-94 -138h-149z" />
    <glyph glyph-name="scaron" unicode="&#x161;" horiz-adv-x="500" 
d="M260 -8c-21.333 0 -44.5039 0.666992 -69.5039 2s-49.333 3 -73 5s-44.834 4.33301 -63.501 7v113c10.667 -0.666992 22.834 -1.66699 36.501 -3s27.834 -2.33301 42.501 -3s28.834 -1.16699 42.501 -1.5s26.167 -0.5 37.5 -0.5c31.333 0 53.833 1 67.5 3
s22.334 6.16699 26.001 12.5s5.5 14.833 5.5 25.5s-1.16699 18.334 -3.5 23.001s-7 8 -14 10s-18.833 4 -35.5 6l-119 15c-28.667 4 -50.334 12.5 -65.001 25.5s-24.5 30.667 -29.5 53s-7.5 48.5 -7.5 78.5c0 35.333 5.33301 63.166 16 83.499s25.5 35.666 44.5 45.999
s41.667 17.166 68 20.499s54.5 5 84.5 5c21.333 0 43.333 -0.666992 66 -2s44.334 -3.16602 65.001 -5.49902s37.667 -4.83301 51 -7.5v-112l-52.5 4c-18.333 1.33301 -35.833 2.33301 -52.5 3s-30.667 1 -42 1c-26.667 0 -47.167 -0.666992 -61.5 -2
s-24 -4.66602 -29 -9.99902s-7.5 -14 -7.5 -26c0 -9.33301 0.833008 -16.5 2.5 -21.5s5.83398 -8.5 12.501 -10.5s17 -4 31 -6l120 -15c22.667 -2.66699 42 -8 58 -16s28.167 -22.333 36.5 -43s12.5 -51.667 12.5 -93c0 -37.333 -4.83301 -66.833 -14.5 -88.5
s-23.5 -38 -41.5 -49s-39.167 -18.167 -63.5 -21.5s-51.5 -5 -81.5 -5zM174.996 576l-94 138v7h103l66 -81l64 81h104v-7l-94 -138h-149z" />
    <glyph glyph-name="uni0162" unicode="&#x162;" horiz-adv-x="587" 
d="M206 0v548h-188v140h551v-140h-189v-548h-174zM169 -190v5l80 203h104v-5l-38 -203h-146z" />
    <glyph glyph-name="uni0163" unicode="&#x163;" horiz-adv-x="407" 
d="M113 0v388h-93v122h93v148h162v-148h111v-122h-111v-388h-162zM68 -190v5l80 203h104v-5l-38 -203h-146z" />
    <glyph glyph-name="Tcaron" unicode="&#x164;" horiz-adv-x="587" 
d="M206 0v548h-188v140h551v-140h-189v-548h-174zM219 754l-94 138v7h103l66 -81l64 81h104v-7l-94 -138h-149z" />
    <glyph glyph-name="tcaron" unicode="&#x165;" horiz-adv-x="407" 
d="M113 0v388h-93v122h93v148h162v-148h111v-122h-111v-388h-162zM320 554l13 202v57h125v-57l-48 -202h-90z" />
    <glyph glyph-name="Tbar" unicode="&#x166;" horiz-adv-x="587" 
d="M38 265v115h511v-115h-511zM206 0v548h-188v140h551v-140h-189v-548h-174z" />
    <glyph glyph-name="tbar" unicode="&#x167;" horiz-adv-x="407" 
d="M21 169v114h365v-114h-365zM113 0v388h-93v122h93v148h162v-148h111v-122h-111v-388h-162z" />
    <glyph glyph-name="Utilde" unicode="&#x168;" 
d="M345 -8c-51.333 0 -93.999 3.16699 -127.999 9.5s-61 16.5 -81 30.5s-35 33.167 -45 57.5s-16.5 54.666 -19.5 90.999s-4.5 79.5 -4.5 129.5v378h174v-415c0 -32 0.833008 -57.833 2.5 -77.5s5.66699 -34.5 12 -44.5s16.666 -16.5 30.999 -19.5s33.833 -4.5 58.5 -4.5
s44 1.5 58 4.5s24.167 9.5 30.5 19.5s10.333 24.833 12 44.5s2.5 45.5 2.5 77.5v415h174v-378c0 -50 -1.5 -93.167 -4.5 -129.5s-9.33301 -66.666 -19 -90.999s-24.5 -43.5 -44.5 -57.5s-47 -24.167 -81 -30.5s-76.667 -9.5 -128 -9.5zM156.001 750
c0 30.667 1.5 56.333 4.5 77s11 36.667 24 48s34.5 17 64.5 17c19.333 0 38.666 -2 57.999 -6s37.333 -8.33301 54 -13l37.5 -9c11.667 -2.66699 22.5 -4 32.5 -4c12.667 0 20 3 22 9s3 17.333 3 34h80c0 -29.333 -1.5 -54.666 -4.5 -75.999s-11 -37.5 -24 -48.5
s-34.5 -16.5 -64.5 -16.5c-20 0 -39.167 2.16699 -57.5 6.5s-36.166 8.16602 -53.499 11.499c-14 4 -27 7.33301 -39 10s-22.333 4 -31 4c-12.667 0 -20.167 -3.16699 -22.5 -9.5s-3.5 -17.833 -3.5 -34.5h-80z" />
    <glyph glyph-name="utilde" unicode="&#x169;" horiz-adv-x="591" 
d="M217 -8c-34 0 -61.332 4.32617 -81.999 12.9932s-36.334 21.334 -47.001 38.001s-17.667 37.334 -21 62.001s-5 53.334 -5 86.001v319h160v-270c0 -27.333 0.833008 -48.833 2.5 -64.5s4.83398 -27.167 9.50098 -34.5s11.667 -11.833 21 -13.5s22 -2.5 38 -2.5
c17.333 0 31.166 1.83301 41.499 5.5s17.833 9.83398 22.5 18.501s7.83398 20.834 9.50098 36.501s2.5 35.167 2.5 58.5v266h161v-510h-153l-4 62h-9c-9.33301 -17.333 -21.333 -31.166 -36 -41.499s-31.334 -17.666 -50.001 -21.999s-39 -6.5 -61 -6.5zM105.001 571.993
c0 30.667 1.5 56.333 4.5 77s11 36.667 24 48s34.5 17 64.5 17c19.333 0 38.666 -2 57.999 -6s37.333 -8.33301 54 -13l37.5 -9c11.667 -2.66699 22.5 -4 32.5 -4c12.667 0 20 3 22 9s3 17.333 3 34h80c0 -29.333 -1.5 -54.666 -4.5 -75.999s-11 -37.5 -24 -48.5
s-34.5 -16.5 -64.5 -16.5c-20 0 -39.167 2.16699 -57.5 6.5s-36.166 8.16602 -53.499 11.499c-14 4 -27 7.33301 -39 10s-22.333 4 -31 4c-12.667 0 -20.167 -3.16699 -22.5 -9.5s-3.5 -17.833 -3.5 -34.5h-80z" />
    <glyph glyph-name="Umacron" unicode="&#x16a;" 
d="M345 -8c-51.333 0 -93.999 3.16699 -127.999 9.5s-61 16.5 -81 30.5s-35 33.167 -45 57.5s-16.5 54.666 -19.5 90.999s-4.5 79.5 -4.5 129.5v378h174v-415c0 -32 0.833008 -57.833 2.5 -77.5s5.66699 -34.5 12 -44.5s16.666 -16.5 30.999 -19.5s33.833 -4.5 58.5 -4.5
s44 1.5 58 4.5s24.167 9.5 30.5 19.5s10.333 24.833 12 44.5s2.5 45.5 2.5 77.5v415h174v-378c0 -50 -1.5 -93.167 -4.5 -129.5s-9.33301 -66.666 -19 -90.999s-24.5 -43.5 -44.5 -57.5s-47 -24.167 -81 -30.5s-76.667 -9.5 -128 -9.5zM180.001 773v93h330v-93h-330z" />
    <glyph glyph-name="umacron" unicode="&#x16b;" horiz-adv-x="591" 
d="M217 -8c-34 0 -61.332 4.32617 -81.999 12.9932s-36.334 21.334 -47.001 38.001s-17.667 37.334 -21 62.001s-5 53.334 -5 86.001v319h160v-270c0 -27.333 0.833008 -48.833 2.5 -64.5s4.83398 -27.167 9.50098 -34.5s11.667 -11.833 21 -13.5s22 -2.5 38 -2.5
c17.333 0 31.166 1.83301 41.499 5.5s17.833 9.83398 22.5 18.501s7.83398 20.834 9.50098 36.501s2.5 35.167 2.5 58.5v266h161v-510h-153l-4 62h-9c-9.33301 -17.333 -21.333 -31.166 -36 -41.499s-31.334 -17.666 -50.001 -21.999s-39 -6.5 -61 -6.5zM130.001 594.993v93
h330v-93h-330z" />
    <glyph glyph-name="Ubreve" unicode="&#x16c;" 
d="M345 -8c-51.333 0 -93.999 3.16699 -127.999 9.5s-61 16.5 -81 30.5s-35 33.167 -45 57.5s-16.5 54.666 -19.5 90.999s-4.5 79.5 -4.5 129.5v378h174v-415c0 -32 0.833008 -57.833 2.5 -77.5s5.66699 -34.5 12 -44.5s16.666 -16.5 30.999 -19.5s33.833 -4.5 58.5 -4.5
s44 1.5 58 4.5s24.167 9.5 30.5 19.5s10.333 24.833 12 44.5s2.5 45.5 2.5 77.5v415h174v-378c0 -50 -1.5 -93.167 -4.5 -129.5s-9.33301 -66.666 -19 -90.999s-24.5 -43.5 -44.5 -57.5s-47 -24.167 -81 -30.5s-76.667 -9.5 -128 -9.5zM344.001 747
c-33.333 0 -60.1709 3.66699 -80.5039 11s-35.666 17.666 -45.999 30.999s-17.166 29.166 -20.499 47.499s-5 38.5 -5 60.5h88c0 -13.333 0.833008 -24.666 2.5 -33.999s7 -16.666 16 -21.999s23.833 -8 44.5 -8c21.333 0 36.5 2.66699 45.5 8s14.5 12.666 16.5 21.999
s3 20.666 3 33.999h89c0 -22 -1.83301 -42.167 -5.5 -60.5s-10.667 -34.166 -21 -47.499s-25.666 -23.666 -45.999 -30.999s-47.166 -11 -80.499 -11z" />
    <glyph glyph-name="ubreve" unicode="&#x16d;" horiz-adv-x="591" 
d="M217 -8c-34 0 -61.332 4.32617 -81.999 12.9932s-36.334 21.334 -47.001 38.001s-17.667 37.334 -21 62.001s-5 53.334 -5 86.001v319h160v-270c0 -27.333 0.833008 -48.833 2.5 -64.5s4.83398 -27.167 9.50098 -34.5s11.667 -11.833 21 -13.5s22 -2.5 38 -2.5
c17.333 0 31.166 1.83301 41.499 5.5s17.833 9.83398 22.5 18.501s7.83398 20.834 9.50098 36.501s2.5 35.167 2.5 58.5v266h161v-510h-153l-4 62h-9c-9.33301 -17.333 -21.333 -31.166 -36 -41.499s-31.334 -17.666 -50.001 -21.999s-39 -6.5 -61 -6.5zM295.001 569.993
c-33.333 0 -60.1709 3.66699 -80.5039 11s-35.666 17.666 -45.999 30.999s-17.166 29.166 -20.499 47.499s-5 38.166 -5 59.499h88c0 -12.667 0.833008 -23.834 2.5 -33.501s7 -17.167 16 -22.5s23.833 -8 44.5 -8c21.333 0 36.5 2.66699 45.5 8s14.5 12.833 16.5 22.5
s3 20.834 3 33.501h89c0 -21.333 -1.83301 -41.166 -5.5 -59.499s-10.667 -34.166 -21 -47.499s-25.666 -23.666 -45.999 -30.999s-47.166 -11 -80.499 -11z" />
    <glyph glyph-name="Uring" unicode="&#x16e;" 
d="M345 -8c-51.333 0 -93.999 3.16699 -127.999 9.5s-61 16.5 -81 30.5s-35 33.167 -45 57.5s-16.5 54.666 -19.5 90.999s-4.5 79.5 -4.5 129.5v378h174v-415c0 -32 0.833008 -57.833 2.5 -77.5s5.66699 -34.5 12 -44.5s16.666 -16.5 30.999 -19.5s33.833 -4.5 58.5 -4.5
s44 1.5 58 4.5s24.167 9.5 30.5 19.5s10.333 24.833 12 44.5s2.5 45.5 2.5 77.5v415h174v-378c0 -50 -1.5 -93.167 -4.5 -129.5s-9.33301 -66.666 -19 -90.999s-24.5 -43.5 -44.5 -57.5s-47 -24.167 -81 -30.5s-76.667 -9.5 -128 -9.5zM343.001 740
c-33.333 0 -59.833 2.16699 -79.5 6.5s-34.167 11.166 -43.5 20.499s-15.333 21.5 -18 36.5s-4 33.167 -4 54.5c0 20.667 1.33301 38.667 4 54s8.66699 27.666 18 36.999s23.833 16.333 43.5 21s46.5 7 80.5 7c33.333 0 60 -2.33301 80 -7s34.833 -11.667 44.5 -21
s15.834 -21.666 18.501 -36.999s4 -33.333 4 -54c0 -21.333 -1.33301 -39.5 -4 -54.5s-8.83398 -27.167 -18.501 -36.5s-24.5 -16.166 -44.5 -20.499s-47 -6.5 -81 -6.5zM343.001 805c21.333 0 36.333 1.5 45 4.5s13.834 8.33301 15.501 16s2.5 18.5 2.5 32.5
s-0.833008 24.833 -2.5 32.5s-6.83398 13.167 -15.501 16.5s-23.667 5 -45 5c-20 0 -34.167 -1.66699 -42.5 -5s-13.333 -8.83301 -15 -16.5s-2.5 -18.5 -2.5 -32.5s0.833008 -24.833 2.5 -32.5s6.66699 -13 15 -16s22.5 -4.5 42.5 -4.5z" />
    <glyph glyph-name="uring" unicode="&#x16f;" horiz-adv-x="591" 
d="M217 -8c-34 0 -61.332 4.32617 -81.999 12.9932s-36.334 21.334 -47.001 38.001s-17.667 37.334 -21 62.001s-5 53.334 -5 86.001v319h160v-270c0 -27.333 0.833008 -48.833 2.5 -64.5s4.83398 -27.167 9.50098 -34.5s11.667 -11.833 21 -13.5s22 -2.5 38 -2.5
c17.333 0 31.166 1.83301 41.499 5.5s17.833 9.83398 22.5 18.501s7.83398 20.834 9.50098 36.501s2.5 35.167 2.5 58.5v266h161v-510h-153l-4 62h-9c-9.33301 -17.333 -21.333 -31.166 -36 -41.499s-31.334 -17.666 -50.001 -21.999s-39 -6.5 -61 -6.5zM294.001 561.993
c-33.333 0 -59.833 2.16699 -79.5 6.5s-34.167 11.166 -43.5 20.499s-15.333 21.5 -18 36.5s-4 33.167 -4 54.5c0 20.667 1.33301 38.667 4 54s8.66699 27.666 18 36.999s23.833 16.333 43.5 21s46.5 7 80.5 7c33.333 0 60 -2.33301 80 -7s34.833 -11.667 44.5 -21
s15.834 -21.666 18.501 -36.999s4 -33.333 4 -54c0 -21.333 -1.33301 -39.5 -4 -54.5s-8.83398 -27.167 -18.501 -36.5s-24.5 -16.166 -44.5 -20.499s-47 -6.5 -81 -6.5zM294.001 626.993c21.333 0 36.333 1.5 45 4.5s13.834 8.33301 15.501 16s2.5 18.5 2.5 32.5
s-0.833008 24.833 -2.5 32.5s-6.83398 13.167 -15.501 16.5s-23.667 5 -45 5c-20 0 -34.167 -1.66699 -42.5 -5s-13.333 -8.83301 -15 -16.5s-2.5 -18.5 -2.5 -32.5s0.833008 -24.833 2.5 -32.5s6.66699 -13 15 -16s22.5 -4.5 42.5 -4.5z" />
    <glyph glyph-name="Uhungarumlaut" unicode="&#x170;" 
d="M345 -8c-51.333 0 -93.999 3.16699 -127.999 9.5s-61 16.5 -81 30.5s-35 33.167 -45 57.5s-16.5 54.666 -19.5 90.999s-4.5 79.5 -4.5 129.5v378h174v-415c0 -32 0.833008 -57.833 2.5 -77.5s5.66699 -34.5 12 -44.5s16.666 -16.5 30.999 -19.5s33.833 -4.5 58.5 -4.5
s44 1.5 58 4.5s24.167 9.5 30.5 19.5s10.333 24.833 12 44.5s2.5 45.5 2.5 77.5v415h174v-378c0 -50 -1.5 -93.167 -4.5 -129.5s-9.33301 -66.666 -19 -90.999s-24.5 -43.5 -44.5 -57.5s-47 -24.167 -81 -30.5s-76.667 -9.5 -128 -9.5zM196.001 754v5l78 121h128v-4
l-112 -122h-94zM386.001 754v5l79 121h128v-4l-112 -122h-95z" />
    <glyph glyph-name="uhungarumlaut" unicode="&#x171;" horiz-adv-x="591" 
d="M217 -8c-34 0 -61.332 4.32617 -81.999 12.9932s-36.334 21.334 -47.001 38.001s-17.667 37.334 -21 62.001s-5 53.334 -5 86.001v319h160v-270c0 -27.333 0.833008 -48.833 2.5 -64.5s4.83398 -27.167 9.50098 -34.5s11.667 -11.833 21 -13.5s22 -2.5 38 -2.5
c17.333 0 31.166 1.83301 41.499 5.5s17.833 9.83398 22.5 18.501s7.83398 20.834 9.50098 36.501s2.5 35.167 2.5 58.5v266h161v-510h-153l-4 62h-9c-9.33301 -17.333 -21.333 -31.166 -36 -41.499s-31.334 -17.666 -50.001 -21.999s-39 -6.5 -61 -6.5zM147.001 575.993v5
l78 121h128v-4l-112 -122h-94zM337.001 575.993v5l79 121h128v-4l-112 -122h-95z" />
    <glyph glyph-name="Uogonek" unicode="&#x172;" 
d="M345 -8c-51.333 0 -93.999 3.16699 -127.999 9.5s-61 16.5 -81 30.5s-35 33.167 -45 57.5s-16.5 54.666 -19.5 90.999s-4.5 79.5 -4.5 129.5v378h174v-415c0 -32 0.833008 -57.833 2.5 -77.5s5.66699 -34.5 12 -44.5s16.666 -16.5 30.999 -19.5s33.833 -4.5 58.5 -4.5
s44 1.5 58 4.5s24.167 9.5 30.5 19.5s10.333 24.833 12 44.5s2.5 45.5 2.5 77.5v415h174v-378c0 -50 -1.5 -93.167 -4.5 -129.5s-9.33301 -66.666 -19 -90.999s-24.5 -43.5 -44.5 -57.5s-47 -24.167 -81 -30.5s-76.667 -9.5 -128 -9.5zM362.001 -200
c-32.667 0 -58.168 3.83301 -76.501 11.5s-31.166 18 -38.499 31s-11 26.833 -11 41.5c0 21.333 7 43 21 65s32 42.333 54 61l119 -10c-8.66699 -5.33301 -17.834 -12.666 -27.501 -21.999s-18 -19.333 -25 -30s-10.5 -20.667 -10.5 -30c0 -10.667 3 -19.167 9 -25.5
s18.667 -9.5 38 -9.5h6.5c3 0 6.5 0.333008 10.5 1v-81c-10 -0.666992 -21.167 -1.33398 -33.5 -2.00098s-24.166 -1 -35.499 -1z" />
    <glyph glyph-name="uogonek" unicode="&#x173;" horiz-adv-x="591" 
d="M217 -8c-34 0 -61.332 4.32617 -81.999 12.9932s-36.334 21.334 -47.001 38.001s-17.667 37.334 -21 62.001s-5 53.334 -5 86.001v319h160v-270c0 -27.333 0.833008 -48.833 2.5 -64.5s4.83398 -27.167 9.50098 -34.5s11.667 -11.833 21 -13.5s22 -2.5 38 -2.5
c17.333 0 31.166 1.83301 41.499 5.5s17.833 9.83398 22.5 18.501s7.83398 20.834 9.50098 36.501s2.5 35.167 2.5 58.5v266h161v-510h-153l-4 62h-9c-9.33301 -17.333 -21.333 -31.166 -36 -41.499s-31.334 -17.666 -50.001 -21.999s-39 -6.5 -61 -6.5zM462.001 -200.007
c-32.667 0 -58.168 3.83301 -76.501 11.5s-31.166 18 -38.499 31s-11 26.833 -11 41.5c0 21.333 7 43 21 65s32 42.333 54 61l119 -10c-8.66699 -5.33301 -17.834 -12.666 -27.501 -21.999s-18 -19.333 -25 -30s-10.5 -20.667 -10.5 -30c0 -10.667 3 -19.167 9 -25.5
s18.667 -9.5 38 -9.5h6.5c3 0 6.5 0.333008 10.5 1v-81c-10 -0.666992 -21.167 -1.33398 -33.5 -2.00098s-24.166 -1 -35.499 -1z" />
    <glyph glyph-name="Wcircumflex" unicode="&#x174;" horiz-adv-x="988" 
d="M168 0l-153 688h173l99 -491h8l112 491h180l114 -491h8l91 491h173l-153 -688h-218l-105 434h-7l-104 -434h-218zM325 754v8l94 137h149l94 -137v-8h-104l-65 81l-65 -81h-103z" />
    <glyph glyph-name="wcircumflex" unicode="&#x175;" horiz-adv-x="843" 
d="M148 0l-130 510h160l73 -349h9l89 349h148l90 -349h10l71 349h156l-130 -510h-197l-71 267h-10l-70 -267h-198zM253 576v8l94 137h149l94 -137v-8h-104l-65 81l-65 -81h-103z" />
    <glyph glyph-name="Ycircumflex" unicode="&#x176;" horiz-adv-x="637" 
d="M231 0v236l-229 452h179l137 -289h7l135 289h175l-230 -452v-236h-174zM150 754v8l94 137h149l94 -137v-8h-104l-65 81l-65 -81h-103z" />
    <glyph glyph-name="ycircumflex" unicode="&#x177;" horiz-adv-x="591" 
d="M277 -206c-20.667 0 -41.999 0.500977 -63.999 1.50098s-42.833 2.5 -62.5 4.5s-36.834 4 -51.501 6v111c20.667 0 39.167 -0.166992 55.5 -0.5s31.333 -0.5 45 -0.5h38.5c31.333 0 56 1.33301 74 4s31 7.66699 39 15s13 18.5 15 33.5s3 34.5 3 58.5v41h-8
c-9.33301 -16 -21 -28.833 -35 -38.5s-30.167 -16.667 -48.5 -21s-38.5 -6.5 -60.5 -6.5c-34 0 -61.333 4.16699 -82 12.5s-36.334 21 -47.001 38s-17.667 37.667 -21 62s-5 52.833 -5 85.5v310h160v-261c0 -27.333 0.833008 -48.833 2.5 -64.5
s4.83398 -27.167 9.50098 -34.5s11.667 -12 21 -14s22 -3 38 -3c17.333 0 31.166 1.83301 41.499 5.5s17.833 10 22.5 19s7.83398 21.333 9.50098 37s2.5 35.167 2.5 58.5v257h161v-453c0 -44.667 -2.33301 -83.5 -7 -116.5s-15 -60.333 -31 -82
s-41.167 -37.834 -75.5 -48.501s-80.833 -16 -139.5 -16zM127.001 576.001v8l94 137h149l94 -137v-8h-104l-65 81l-65 -81h-103z" />
    <glyph glyph-name="Ydieresis" unicode="&#x178;" horiz-adv-x="637" 
d="M231 0v236l-229 452h179l137 -289h7l135 289h175l-230 -452v-236h-174zM146 773v108h131v-108h-131zM359 773v108h131v-108h-131z" />
    <glyph glyph-name="Zacute" unicode="&#x179;" horiz-adv-x="614" 
d="M44 0v128l310 426h-299v134h515v-124l-315 -431h316v-133h-527zM223 754v5l92 140h155v-5l-133 -140h-114z" />
    <glyph glyph-name="zacute" unicode="&#x17a;" horiz-adv-x="526" 
d="M43 0v114l235 274h-223v122h426v-114l-234 -274h236v-122h-440zM164 576v5l92 140h155v-5l-133 -140h-114z" />
    <glyph glyph-name="Zdotaccent" unicode="&#x17b;" horiz-adv-x="614" 
d="M44 0v128l310 426h-299v134h515v-124l-315 -431h316v-133h-527zM241 773v108h131v-108h-131z" />
    <glyph glyph-name="zdotaccent" unicode="&#x17c;" horiz-adv-x="526" 
d="M43 0v114l235 274h-223v122h426v-114l-234 -274h236v-122h-440zM204 595v108h131v-108h-131z" />
    <glyph glyph-name="Zcaron" unicode="&#x17d;" horiz-adv-x="614" 
d="M44 0v128l310 426h-299v134h515v-124l-315 -431h316v-133h-527zM232 754l-94 138v7h103l66 -81l64 81h104v-7l-94 -138h-149z" />
    <glyph glyph-name="zcaron" unicode="&#x17e;" horiz-adv-x="526" 
d="M43 0v114l235 274h-223v122h426v-114l-234 -274h236v-122h-440zM195 576l-94 138v7h103l66 -81l64 81h104v-7l-94 -138h-149z" />
    <glyph glyph-name="longs" unicode="&#x17f;" horiz-adv-x="402" 
d="M114 0l-0.000976562 387.997h-94v122h94v35c0 38.667 2.33301 70.167 7 94.5s13 43.5 25 57.5s28.833 24.167 50.5 30.5s49 10.333 82 12s72.5 2.5 118.5 2.5v-110c-27.333 0 -49.166 -0.666992 -65.499 -2s-28.5 -4.16602 -36.5 -8.49902s-13.167 -10.666 -15.5 -18.999
s-3.5 -20.166 -3.5 -35.499v-567h-162z" />
    </font>
</defs>
</svg>
